Truculenta-CondensedBlack.ufo
<glyph name="exclam" format="2">
  <advance width="265"/>
  <unicode hex="0021"/>
  <outline>
    <contour>
      <point x="88" y="230" type="curve"/>
      <point x="169" y="232" type="line"/>
      <point x="173" y="353"/>
      <point x="175" y="409"/>
      <point x="180" y="478" type="curve" smooth="yes"/>
      <point x="187" y="563"/>
      <point x="188" y="589"/>
      <point x="199" y="711" type="curve"/>
      <point x="65" y="704" type="line"/>
      <point x="71" y="597"/>
      <point x="74" y="553"/>
      <point x="77" y="485" type="curve" smooth="yes"/>
      <point x="80" y="414"/>
      <point x="84" y="339"/>
    </contour>
    <contour>
      <point x="191" y="0" type="line"/>
      <point x="181" y="171" type="line"/>
      <point x="73" y="169" type="line"/>
      <point x="69" y="0" type="line"/>
    </contour>
  </outline>
</glyph>
<glyph name="quotedbl" format="2">
  <advance width="420"/>
  <unicode hex="0022"/>
  <outline>
    <contour>
      <point x="228" y="494" type="curve"/>
      <point x="332" y="502" type="line"/>
      <point x="332" y="497"/>
      <point x="341" y="573"/>
      <point x="349" y="614" type="curve" smooth="yes"/>
      <point x="358" y="655"/>
      <point x="369" y="700"/>
      <point x="368" y="697" type="curve"/>
      <point x="234" y="702" type="line"/>
      <point x="234" y="705"/>
      <point x="234" y="657"/>
      <point x="232" y="606" type="curve" smooth="yes"/>
      <point x="230" y="548"/>
      <point x="228" y="491"/>
    </contour>
    <contour>
      <point x="70" y="489" type="curve"/>
      <point x="174" y="505" type="line"/>
      <point x="173" y="501"/>
      <point x="176" y="578"/>
      <point x="180" y="619" type="curve" smooth="yes"/>
      <point x="184" y="660"/>
      <point x="192" y="706"/>
      <point x="192" y="704" type="curve"/>
      <point x="58" y="697" type="line"/>
      <point x="58" y="699"/>
      <point x="63" y="652"/>
      <point x="65" y="601" type="curve" smooth="yes"/>
      <point x="67" y="544"/>
      <point x="71" y="486"/>
    </contour>
  </outline>
</glyph>
<glyph name="numbersign" format="2">
  <advance width="710"/>
  <unicode hex="0023"/>
  <outline>
    <contour>
      <point x="89" y="3" type="line"/>
      <point x="202" y="0" type="line"/>
      <point x="284" y="369" type="line"/>
      <point x="365" y="696" type="line"/>
      <point x="254" y="699" type="line"/>
      <point x="189" y="390" type="line"/>
    </contour>
    <contour>
      <point x="48" y="155" type="line"/>
      <point x="41" y="155"/>
      <point x="225" y="160"/>
      <point x="349" y="159" type="curve" smooth="yes"/>
      <point x="478" y="158"/>
      <point x="623" y="157"/>
      <point x="617" y="157" type="curve"/>
      <point x="612" y="260" type="line"/>
      <point x="618" y="260"/>
      <point x="473" y="257"/>
      <point x="352" y="257" type="curve" smooth="yes"/>
      <point x="237" y="257"/>
      <point x="43" y="260"/>
      <point x="50" y="260" type="curve"/>
    </contour>
    <contour>
      <point x="340" y="2" type="line"/>
      <point x="453" y="-2" type="line"/>
      <point x="532" y="358" type="line"/>
      <point x="613" y="682" type="line"/>
      <point x="502" y="690" type="line"/>
      <point x="440" y="390" type="line"/>
    </contour>
    <contour>
      <point x="98" y="442" type="line"/>
      <point x="91" y="442"/>
      <point x="276" y="447"/>
      <point x="400" y="446" type="curve" smooth="yes"/>
      <point x="528" y="445"/>
      <point x="668" y="443"/>
      <point x="663" y="443" type="curve"/>
      <point x="663" y="547" type="line"/>
      <point x="669" y="547"/>
      <point x="523" y="544"/>
      <point x="402" y="544" type="curve" smooth="yes"/>
      <point x="287" y="544"/>
      <point x="82" y="547"/>
      <point x="89" y="547" type="curve"/>
    </contour>
  </outline>
</glyph>
<glyph name="percent" format="2">
  <advance width="714"/>
  <unicode hex="0025"/>
  <outline>
    <contour>
      <point x="170" y="0" type="curve"/>
      <point x="281" y="0" type="line"/>
      <point x="316" y="94"/>
      <point x="357" y="220"/>
      <point x="408" y="348" type="curve" smooth="yes"/>
      <point x="459" y="475"/>
      <point x="516" y="607"/>
      <point x="551" y="692" type="curve"/>
      <point x="441" y="693" type="line"/>
      <point x="415" y="625"/>
      <point x="361" y="496"/>
      <point x="312" y="365" type="curve" smooth="yes"/>
      <point x="262" y="237"/>
      <point x="209" y="102"/>
    </contour>
    <contour>
      <point x="181" y="367" type="curve" smooth="yes"/>
      <point x="258" y="367"/>
      <point x="309" y="428"/>
      <point x="309" y="538" type="curve" smooth="yes"/>
      <point x="309" y="644"/>
      <point x="263" y="699"/>
      <point x="169" y="699" type="curve" smooth="yes"/>
      <point x="86" y="699"/>
      <point x="36" y="644"/>
      <point x="36" y="539" type="curve" smooth="yes"/>
      <point x="36" y="428"/>
      <point x="82" y="367"/>
    </contour>
    <contour>
      <point x="170" y="458" type="curve" smooth="yes"/>
      <point x="142" y="458"/>
      <point x="130" y="478"/>
      <point x="130" y="537" type="curve" smooth="yes"/>
      <point x="130" y="587"/>
      <point x="143" y="611"/>
      <point x="175" y="611" type="curve" smooth="yes"/>
      <point x="205" y="611"/>
      <point x="215" y="586"/>
      <point x="215" y="542" type="curve" smooth="yes"/>
      <point x="215" y="477"/>
      <point x="200" y="458"/>
    </contour>
    <contour>
      <point x="551" y="0" type="curve" smooth="yes"/>
      <point x="628" y="0"/>
      <point x="678" y="63"/>
      <point x="678" y="173" type="curve" smooth="yes"/>
      <point x="678" y="274"/>
      <point x="635" y="332"/>
      <point x="539" y="332" type="curve" smooth="yes"/>
      <point x="456" y="332"/>
      <point x="405" y="279"/>
      <point x="405" y="174" type="curve" smooth="yes"/>
      <point x="405" y="57"/>
      <point x="453" y="0"/>
    </contour>
    <contour>
      <point x="538" y="92" type="curve" smooth="yes"/>
      <point x="511" y="92"/>
      <point x="499" y="113"/>
      <point x="499" y="173" type="curve" smooth="yes"/>
      <point x="499" y="227"/>
      <point x="516" y="246"/>
      <point x="543" y="246" type="curve" smooth="yes"/>
      <point x="574" y="246"/>
      <point x="585" y="221"/>
      <point x="585" y="178" type="curve" smooth="yes"/>
      <point x="585" y="126"/>
      <point x="572" y="92"/>
    </contour>
  </outline>
</glyph>
<glyph name="quotesingle" format="2">
  <advance width="244"/>
  <unicode hex="0027"/>
  <outline>
    <contour>
      <point x="73" y="489" type="curve"/>
      <point x="176" y="505" type="line"/>
      <point x="176" y="501"/>
      <point x="179" y="578"/>
      <point x="182" y="619" type="curve" smooth="yes"/>
      <point x="187" y="660"/>
      <point x="195" y="706"/>
      <point x="195" y="704" type="curve"/>
      <point x="61" y="697" type="line"/>
      <point x="60" y="699"/>
      <point x="66" y="652"/>
      <point x="68" y="601" type="curve" smooth="yes"/>
      <point x="70" y="544"/>
      <point x="73" y="486"/>
    </contour>
  </outline>
</glyph>
<glyph name="parenleft" format="2">
  <advance width="285"/>
  <unicode hex="0028"/>
  <outline>
    <contour>
      <point x="203" y="-162" type="curve"/>
      <point x="230" y="-78" type="line"/>
      <point x="153" y="-17"/>
      <point x="156" y="130"/>
      <point x="156" y="281" type="curve" smooth="yes"/>
      <point x="156" y="433"/>
      <point x="153" y="580"/>
      <point x="230" y="641" type="curve"/>
      <point x="203" y="725" type="line"/>
      <point x="91" y="699"/>
      <point x="53" y="578"/>
      <point x="53" y="281" type="curve" smooth="yes"/>
      <point x="53" y="-15"/>
      <point x="91" y="-136"/>
    </contour>
  </outline>
</glyph>
<glyph name="parenright" format="2">
  <advance width="285"/>
  <unicode hex="0029"/>
  <outline>
    <contour>
      <point x="80" y="725" type="curve"/>
      <point x="53" y="641" type="line"/>
      <point x="130" y="580"/>
      <point x="127" y="433"/>
      <point x="127" y="282" type="curve" smooth="yes"/>
      <point x="127" y="130"/>
      <point x="130" y="-17"/>
      <point x="53" y="-78" type="curve"/>
      <point x="80" y="-162" type="line"/>
      <point x="192" y="-136"/>
      <point x="230" y="-15"/>
      <point x="230" y="282" type="curve" smooth="yes"/>
      <point x="230" y="578"/>
      <point x="192" y="699"/>
    </contour>
  </outline>
</glyph>
<glyph name="asterisk" format="2">
  <advance width="544"/>
  <unicode hex="002A"/>
  <outline>
    <contour>
      <point x="401" y="404" type="curve"/>
      <point x="486" y="478" type="line"/>
      <point x="388" y="529"/>
      <point x="348" y="538"/>
      <point x="273" y="586" type="curve" smooth="yes"/>
      <point x="224" y="617"/>
      <point x="196" y="645"/>
      <point x="122" y="705" type="curve"/>
      <point x="57" y="617" type="line"/>
      <point x="52" y="619"/>
      <point x="187" y="555"/>
      <point x="241" y="524" type="curve" smooth="yes"/>
      <point x="292" y="496"/>
      <point x="405" y="401"/>
    </contour>
    <contour>
      <point x="110" y="389" type="line"/>
      <point x="105" y="385"/>
      <point x="242" y="494"/>
      <point x="293" y="524" type="curve" smooth="yes"/>
      <point x="347" y="556"/>
      <point x="472" y="613"/>
      <point x="468" y="611" type="curve"/>
      <point x="429" y="709" type="line"/>
      <point x="347" y="647"/>
      <point x="304" y="611"/>
      <point x="240" y="570" type="curve" smooth="yes"/>
      <point x="169" y="524"/>
      <point x="139" y="510"/>
      <point x="73" y="468" type="curve"/>
    </contour>
    <contour>
      <point x="325" y="336" type="line"/>
      <point x="325" y="331"/>
      <point x="305" y="494"/>
      <point x="305" y="562" type="curve" smooth="yes"/>
      <point x="305" y="632"/>
      <point x="323" y="756"/>
      <point x="323" y="752" type="curve"/>
      <point x="215" y="759" type="line"/>
      <point x="214" y="764"/>
      <point x="229" y="628"/>
      <point x="230" y="561" type="curve" smooth="yes"/>
      <point x="231" y="497"/>
      <point x="215" y="341"/>
      <point x="216" y="347" type="curve"/>
    </contour>
  </outline>
</glyph>
<glyph name="plus" format="2">
  <advance width="400"/>
  <unicode hex="002B"/>
  <outline>
    <contour>
      <point x="256" y="145" type="line"/>
      <point x="250" y="191"/>
      <point x="246" y="234"/>
      <point x="246" y="302" type="curve" smooth="yes"/>
      <point x="246" y="372"/>
      <point x="249" y="405"/>
      <point x="254" y="457" type="curve"/>
      <point x="143" y="454" type="line"/>
      <point x="144" y="408"/>
      <point x="149" y="369"/>
      <point x="150" y="301" type="curve" smooth="yes"/>
      <point x="151" y="237"/>
      <point x="147" y="197"/>
      <point x="144" y="138" type="curve"/>
    </contour>
    <contour>
      <point x="53" y="237" type="line"/>
      <point x="99" y="243"/>
      <point x="169" y="246"/>
      <point x="202" y="246" type="curve" smooth="yes"/>
      <point x="264" y="246"/>
      <point x="347" y="238"/>
      <point x="345" y="238" type="curve"/>
      <point x="344" y="345" type="line"/>
      <point x="302" y="340"/>
      <point x="269" y="339"/>
      <point x="210" y="338" type="curve" smooth="yes"/>
      <point x="153" y="336"/>
      <point x="93" y="340"/>
      <point x="56" y="342" type="curve"/>
    </contour>
  </outline>
</glyph>
<glyph name="comma" format="2">
  <advance width="246"/>
  <unicode hex="002C"/>
  <outline>
    <contour>
      <point x="121" y="-159" type="line"/>
      <point x="171" y="-109"/>
      <point x="180" y="-52"/>
      <point x="180" y="19" type="curve" smooth="yes"/>
      <point x="180" y="172" type="line"/>
      <point x="65" y="165" type="line"/>
      <point x="67" y="4" type="line"/>
      <point x="117" y="1" type="line"/>
      <point x="117" y="-40"/>
      <point x="111" y="-79"/>
      <point x="72" y="-125" type="curve"/>
    </contour>
  </outline>
</glyph>
<glyph name="hyphen" format="2">
  <advance width="301"/>
  <unicode hex="002D"/>
  <outline>
    <contour>
      <point x="55" y="239" type="line"/>
      <point x="55" y="239"/>
      <point x="102" y="241"/>
      <point x="147" y="241" type="curve" smooth="yes"/>
      <point x="190" y="241"/>
      <point x="246" y="239"/>
      <point x="246" y="239" type="curve"/>
      <point x="244" y="341" type="line"/>
      <point x="244" y="341"/>
      <point x="199" y="337"/>
      <point x="152" y="338" type="curve" smooth="yes"/>
      <point x="104" y="339"/>
      <point x="59" y="341"/>
      <point x="59" y="341" type="curve"/>
    </contour>
  </outline>
</glyph>
<glyph name="period" format="2">
  <advance width="247"/>
  <unicode hex="002E"/>
  <outline>
    <contour>
      <point x="181" y="0" type="line"/>
      <point x="180" y="180" type="line"/>
      <point x="65" y="173" type="line"/>
      <point x="68" y="0" type="line"/>
    </contour>
  </outline>
</glyph>
<glyph name="slash" format="2">
  <advance width="275"/>
  <unicode hex="002F"/>
  <outline>
    <contour>
      <point x="0" y="-1" type="curve"/>
      <point x="111" y="0" type="line"/>
      <point x="134" y="119"/>
      <point x="164" y="236"/>
      <point x="196" y="366" type="curve" smooth="yes"/>
      <point x="228" y="492"/>
      <point x="253" y="597"/>
      <point x="275" y="698" type="curve"/>
      <point x="165" y="700" type="line"/>
      <point x="148" y="579"/>
      <point x="127" y="483"/>
      <point x="99" y="367" type="curve" smooth="yes"/>
      <point x="68" y="241"/>
      <point x="40" y="128"/>
    </contour>
  </outline>
</glyph>
<glyph name="zero" format="2">
  <advance width="404"/>
  <unicode hex="0030"/>
  <outline>
    <contour>
      <point x="193" y="-10" type="curve" smooth="yes"/>
      <point x="335" y="-10"/>
      <point x="366" y="132"/>
      <point x="366" y="342" type="curve" smooth="yes"/>
      <point x="366" y="560"/>
      <point x="360" y="707"/>
      <point x="209" y="707" type="curve" smooth="yes"/>
      <point x="64" y="707"/>
      <point x="38" y="547"/>
      <point x="38" y="343" type="curve" smooth="yes"/>
      <point x="38" y="126"/>
      <point x="54" y="-10"/>
    </contour>
    <contour>
      <point x="199" y="84" type="curve" smooth="yes"/>
      <point x="144" y="84"/>
      <point x="142" y="170"/>
      <point x="142" y="338" type="curve" smooth="yes"/>
      <point x="142" y="493"/>
      <point x="151" y="610"/>
      <point x="206" y="610" type="curve" smooth="yes"/>
      <point x="260" y="610"/>
      <point x="264" y="504"/>
      <point x="264" y="353" type="curve" smooth="yes"/>
      <point x="264" y="182"/>
      <point x="260" y="84"/>
    </contour>
  </outline>
</glyph>
<glyph name="one" format="2">
  <advance width="245"/>
  <unicode hex="0031"/>
  <outline>
    <contour>
      <point x="94" y="0" type="curve"/>
      <point x="208" y="0" type="line"/>
      <point x="208" y="-7"/>
      <point x="203" y="165"/>
      <point x="203" y="341" type="curve" smooth="yes"/>
      <point x="203" y="517"/>
      <point x="209" y="701"/>
      <point x="209" y="694" type="curve"/>
      <point x="144" y="694" type="line"/>
      <point x="97" y="621" type="line"/>
      <point x="98" y="545"/>
      <point x="99" y="421"/>
      <point x="99" y="342" type="curve" smooth="yes"/>
      <point x="99" y="223"/>
      <point x="93" y="-8"/>
    </contour>
    <contour>
      <point x="11" y="550" type="line"/>
      <point x="52" y="549"/>
      <point x="115" y="553"/>
      <point x="162" y="573" type="curve"/>
      <point x="144" y="694" type="line"/>
      <point x="106" y="662"/>
      <point x="35" y="641"/>
      <point x="5" y="636" type="curve"/>
    </contour>
  </outline>
</glyph>
<glyph name="two" format="2">
  <advance width="378"/>
  <unicode hex="0032"/>
  <outline>
    <contour>
      <point x="123" y="68" type="line"/>
      <point x="208" y="139"/>
      <point x="341" y="327"/>
      <point x="341" y="504" type="curve" smooth="yes"/>
      <point x="341" y="626"/>
      <point x="292" y="700"/>
      <point x="197" y="700" type="curve" smooth="yes"/>
      <point x="63" y="700"/>
      <point x="42" y="599"/>
      <point x="42" y="493" type="curve" smooth="yes"/>
      <point x="42" y="459"/>
      <point x="45" y="425"/>
      <point x="51" y="384" type="curve"/>
      <point x="150" y="385" type="line"/>
      <point x="144" y="418"/>
      <point x="140" y="457"/>
      <point x="140" y="490" type="curve" smooth="yes"/>
      <point x="140" y="549"/>
      <point x="144" y="605"/>
      <point x="189" y="605" type="curve" smooth="yes"/>
      <point x="223" y="605"/>
      <point x="235" y="570"/>
      <point x="235" y="485" type="curve" smooth="yes"/>
      <point x="235" y="335"/>
      <point x="128" y="200"/>
      <point x="25" y="96" type="curve"/>
    </contour>
    <contour>
      <point x="23" y="-6" type="line"/>
      <point x="30" y="-5"/>
      <point x="183" y="0"/>
      <point x="188" y="0" type="curve" smooth="yes"/>
      <point x="214" y="0"/>
      <point x="340" y="0"/>
      <point x="349" y="0" type="curve"/>
      <point x="348" y="106" type="line"/>
      <point x="319" y="99"/>
      <point x="251" y="98"/>
      <point x="199" y="97" type="curve" smooth="yes"/>
      <point x="147" y="96"/>
      <point x="82" y="96"/>
      <point x="25" y="96" type="curve"/>
    </contour>
  </outline>
</glyph>
<glyph name="three" format="2">
  <advance width="349"/>
  <unicode hex="0033"/>
  <outline>
    <contour>
      <point x="164" y="-10" type="curve" smooth="yes"/>
      <point x="264" y="-10"/>
      <point x="322" y="56"/>
      <point x="323" y="167" type="curve" smooth="yes"/>
      <point x="323" y="225"/>
      <point x="302" y="279"/>
      <point x="251" y="304" type="curve"/>
      <point x="298" y="337"/>
      <point x="325" y="395"/>
      <point x="325" y="501" type="curve" smooth="yes"/>
      <point x="325" y="617"/>
      <point x="291" y="697"/>
      <point x="172" y="697" type="curve" smooth="yes"/>
      <point x="73" y="697"/>
      <point x="22" y="620"/>
      <point x="28" y="500" type="curve"/>
      <point x="129" y="499" type="line"/>
      <point x="130" y="569"/>
      <point x="140" y="600"/>
      <point x="174" y="600" type="curve" smooth="yes"/>
      <point x="209" y="600"/>
      <point x="222" y="575"/>
      <point x="222" y="487" type="curve" smooth="yes"/>
      <point x="222" y="384"/>
      <point x="209" y="335"/>
      <point x="139" y="335" type="curve" smooth="yes"/>
      <point x="127" y="335"/>
      <point x="108" y="335"/>
      <point x="90" y="336" type="curve"/>
      <point x="90" y="248" type="line"/>
      <point x="111" y="249"/>
      <point x="131" y="249"/>
      <point x="147" y="249" type="curve" smooth="yes"/>
      <point x="194" y="249"/>
      <point x="221" y="230"/>
      <point x="220" y="159" type="curve" smooth="yes"/>
      <point x="220" y="108"/>
      <point x="202" y="81"/>
      <point x="167" y="81" type="curve" smooth="yes"/>
      <point x="130" y="81"/>
      <point x="115" y="101"/>
      <point x="116" y="145" type="curve"/>
      <point x="14" y="145" type="line"/>
      <point x="14" y="46"/>
      <point x="69" y="-10"/>
    </contour>
  </outline>
</glyph>
<glyph name="four" format="2">
  <advance width="375"/>
  <unicode hex="0034"/>
  <outline>
    <contour>
      <point x="105" y="184" type="line"/>
      <point x="121" y="236"/>
      <point x="132" y="282"/>
      <point x="174" y="436" type="curve" smooth="yes"/>
      <point x="196" y="517"/>
      <point x="220" y="610"/>
      <point x="223" y="618" type="curve" smooth="yes"/>
      <point x="240" y="664"/>
      <point x="305" y="698"/>
      <point x="303" y="696" type="curve"/>
      <point x="160" y="702" type="line"/>
      <point x="161" y="707"/>
      <point x="118" y="560"/>
      <point x="87" y="449" type="curve" smooth="yes"/>
      <point x="61" y="357"/>
      <point x="12" y="223"/>
      <point x="14" y="229" type="curve"/>
    </contour>
    <contour>
      <point x="30" y="126" type="line"/>
      <point x="26" y="126"/>
      <point x="129" y="130"/>
      <point x="193" y="131" type="curve" smooth="yes"/>
      <point x="261" y="132"/>
      <point x="361" y="131"/>
      <point x="357" y="131" type="curve"/>
      <point x="356" y="236" type="line"/>
      <point x="360" y="236"/>
      <point x="259" y="230"/>
      <point x="188" y="227" type="curve" smooth="yes"/>
      <point x="119" y="223"/>
      <point x="44" y="228"/>
      <point x="14" y="229" type="curve"/>
    </contour>
    <contour>
      <point x="193" y="-3" type="curve"/>
      <point x="302" y="0" type="line"/>
      <point x="302" y="-8"/>
      <point x="299" y="131"/>
      <point x="299" y="306" type="curve" smooth="yes"/>
      <point x="299" y="483"/>
      <point x="303" y="703"/>
      <point x="303" y="696" type="curve"/>
      <point x="198" y="686" type="line"/>
      <point x="204" y="536"/>
      <point x="195" y="357"/>
      <point x="195" y="251" type="curve" smooth="yes"/>
      <point x="195" y="194"/>
      <point x="196" y="171"/>
    </contour>
  </outline>
</glyph>
<glyph name="five" format="2">
  <advance width="369"/>
  <unicode hex="0035"/>
  <outline>
    <contour>
      <point x="170" y="-10" type="curve" smooth="yes"/>
      <point x="289" y="-10"/>
      <point x="346" y="100"/>
      <point x="346" y="238" type="curve" smooth="yes"/>
      <point x="346" y="402"/>
      <point x="285" y="464"/>
      <point x="214" y="464" type="curve" smooth="yes"/>
      <point x="155" y="464"/>
      <point x="116" y="422"/>
      <point x="88" y="345" type="curve"/>
      <point x="134" y="297" type="line"/>
      <point x="140" y="340"/>
      <point x="163" y="363"/>
      <point x="190" y="363" type="curve" smooth="yes"/>
      <point x="221" y="363"/>
      <point x="243" y="321"/>
      <point x="243" y="235" type="curve" smooth="yes"/>
      <point x="243" y="149"/>
      <point x="224" y="84"/>
      <point x="176" y="84" type="curve" smooth="yes"/>
      <point x="127" y="84"/>
      <point x="118" y="112"/>
      <point x="121" y="192" type="curve"/>
      <point x="19" y="185" type="line"/>
      <point x="13" y="66"/>
      <point x="60" y="-10"/>
    </contour>
    <contour>
      <point x="134" y="297" type="line"/>
      <point x="134" y="291"/>
      <point x="140" y="423"/>
      <point x="142" y="502" type="curve" smooth="yes"/>
      <point x="144" y="586"/>
      <point x="150" y="700"/>
      <point x="150" y="695" type="curve"/>
      <point x="40" y="703" type="line"/>
      <point x="40" y="708"/>
      <point x="42" y="593"/>
      <point x="40" y="505" type="curve" smooth="yes"/>
      <point x="38" y="421"/>
      <point x="30" y="288"/>
      <point x="30" y="293" type="curve"/>
    </contour>
    <contour>
      <point x="65" y="593" type="line"/>
      <point x="63" y="593"/>
      <point x="134" y="595"/>
      <point x="188" y="595" type="curve" smooth="yes"/>
      <point x="235" y="595"/>
      <point x="295" y="594"/>
      <point x="322" y="593" type="curve"/>
      <point x="326" y="697" type="line"/>
      <point x="301" y="696"/>
      <point x="236" y="697"/>
      <point x="186" y="698" type="curve" smooth="yes"/>
      <point x="135" y="699"/>
      <point x="136" y="699"/>
      <point x="39" y="703" type="curve"/>
    </contour>
  </outline>
</glyph>
<glyph name="six" format="2">
  <advance width="386"/>
  <unicode hex="0036"/>
  <outline>
    <contour>
      <point x="199" y="-10" type="curve" smooth="yes"/>
      <point x="296" y="-10"/>
      <point x="351" y="74"/>
      <point x="351" y="207" type="curve" smooth="yes"/>
      <point x="351" y="349"/>
      <point x="287" y="405"/>
      <point x="220" y="405" type="curve" smooth="yes"/>
      <point x="161" y="405"/>
      <point x="114" y="357"/>
      <point x="102" y="249" type="curve"/>
      <point x="134" y="200" type="line"/>
      <point x="134" y="258"/>
      <point x="150" y="309"/>
      <point x="196" y="309" type="curve" smooth="yes"/>
      <point x="233" y="309"/>
      <point x="249" y="271"/>
      <point x="249" y="201" type="curve" smooth="yes"/>
      <point x="249" y="133"/>
      <point x="230" y="80"/>
      <point x="191" y="80" type="curve" smooth="yes"/>
      <point x="140" y="80"/>
      <point x="134" y="147"/>
      <point x="134" y="192" type="curve" smooth="yes"/>
      <point x="134" y="354"/>
      <point x="120" y="620"/>
      <point x="203" y="620" type="curve" smooth="yes"/>
      <point x="228" y="620"/>
      <point x="242" y="583"/>
      <point x="242" y="525" type="curve" smooth="yes"/>
      <point x="242" y="502"/>
      <point x="239" y="473"/>
      <point x="235" y="443" type="curve"/>
      <point x="337" y="445" type="line"/>
      <point x="341" y="473"/>
      <point x="343" y="502"/>
      <point x="343" y="530" type="curve" smooth="yes"/>
      <point x="343" y="634"/>
      <point x="311" y="713"/>
      <point x="205" y="713" type="curve" smooth="yes"/>
      <point x="90" y="713"/>
      <point x="31" y="596"/>
      <point x="31" y="321" type="curve" smooth="yes"/>
      <point x="31" y="86"/>
      <point x="75" y="-10"/>
    </contour>
  </outline>
</glyph>
<glyph name="seven" format="2">
  <advance width="301"/>
  <unicode hex="0037"/>
  <outline>
    <contour>
      <point x="69" y="-1" type="curve"/>
      <point x="192" y="0" type="line"/>
      <point x="188" y="98"/>
      <point x="186" y="198"/>
      <point x="195" y="293" type="curve" smooth="yes"/>
      <point x="205" y="401"/>
      <point x="230" y="503"/>
      <point x="284" y="588" type="curve"/>
      <point x="284" y="700" type="line"/>
      <point x="168" y="642"/>
      <point x="116" y="489"/>
      <point x="90" y="337" type="curve" smooth="yes"/>
      <point x="71" y="227"/>
      <point x="67" y="107"/>
    </contour>
    <contour>
      <point x="16" y="585" type="line"/>
      <point x="42" y="586"/>
      <point x="77" y="587"/>
      <point x="126" y="587" type="curve" smooth="yes"/>
      <point x="175" y="587"/>
      <point x="280" y="589"/>
      <point x="276" y="589" type="curve"/>
      <point x="284" y="700" type="line"/>
      <point x="288" y="700"/>
      <point x="203" y="698"/>
      <point x="139" y="698" type="curve" smooth="yes"/>
      <point x="88" y="698"/>
      <point x="60" y="700"/>
      <point x="15" y="700" type="curve"/>
    </contour>
  </outline>
</glyph>
<glyph name="eight" format="2">
  <advance width="368"/>
  <unicode hex="0038"/>
  <outline>
    <contour>
      <point x="176" y="259" type="curve" smooth="yes"/>
      <point x="283" y="259"/>
      <point x="335" y="332"/>
      <point x="335" y="472" type="curve" smooth="yes"/>
      <point x="335" y="634"/>
      <point x="287" y="707"/>
      <point x="188" y="707" type="curve" smooth="yes"/>
      <point x="87" y="707"/>
      <point x="33" y="627"/>
      <point x="33" y="462" type="curve" smooth="yes"/>
      <point x="33" y="337"/>
      <point x="88" y="259"/>
    </contour>
    <contour>
      <point x="174" y="-10" type="curve" smooth="yes"/>
      <point x="294" y="-10"/>
      <point x="351" y="55"/>
      <point x="351" y="164" type="curve" smooth="yes"/>
      <point x="351" y="292"/>
      <point x="290" y="345"/>
      <point x="189" y="345" type="curve" smooth="yes"/>
      <point x="85" y="345"/>
      <point x="17" y="288"/>
      <point x="17" y="156" type="curve" smooth="yes"/>
      <point x="17" y="57"/>
      <point x="76" y="-10"/>
    </contour>
    <contour>
      <point x="184" y="73" type="curve" smooth="yes"/>
      <point x="138" y="73"/>
      <point x="119" y="104"/>
      <point x="119" y="165" type="curve" smooth="yes"/>
      <point x="119" y="227"/>
      <point x="143" y="259"/>
      <point x="184" y="259" type="curve" smooth="yes"/>
      <point x="230" y="259"/>
      <point x="249" y="229"/>
      <point x="249" y="164" type="curve" smooth="yes"/>
      <point x="249" y="110"/>
      <point x="231" y="73"/>
    </contour>
    <contour>
      <point x="184" y="345" type="curve" smooth="yes"/>
      <point x="147" y="345"/>
      <point x="137" y="378"/>
      <point x="137" y="474" type="curve" smooth="yes"/>
      <point x="137" y="568"/>
      <point x="146" y="617"/>
      <point x="187" y="617" type="curve" smooth="yes"/>
      <point x="224" y="617"/>
      <point x="232" y="577"/>
      <point x="232" y="467" type="curve" smooth="yes"/>
      <point x="232" y="379"/>
      <point x="221" y="345"/>
    </contour>
  </outline>
</glyph>
<glyph name="nine" format="2">
  <advance width="380"/>
  <unicode hex="0039"/>
  <outline>
    <contour>
      <point x="178" y="-10" type="curve" smooth="yes"/>
      <point x="305" y="-10"/>
      <point x="353" y="110"/>
      <point x="353" y="380" type="curve" smooth="yes"/>
      <point x="353" y="616"/>
      <point x="308" y="714"/>
      <point x="191" y="714" type="curve" smooth="yes"/>
      <point x="70" y="714"/>
      <point x="33" y="594"/>
      <point x="33" y="466" type="curve" smooth="yes"/>
      <point x="33" y="311"/>
      <point x="83" y="237"/>
      <point x="164" y="237" type="curve" smooth="yes"/>
      <point x="221" y="237"/>
      <point x="268" y="280"/>
      <point x="282" y="388" type="curve"/>
      <point x="250" y="431" type="line"/>
      <point x="250" y="374"/>
      <point x="221" y="334"/>
      <point x="185" y="334" type="curve" smooth="yes"/>
      <point x="143" y="334"/>
      <point x="135" y="385"/>
      <point x="135" y="472" type="curve" smooth="yes"/>
      <point x="135" y="555"/>
      <point x="141" y="621"/>
      <point x="191" y="621" type="curve" smooth="yes"/>
      <point x="247" y="621"/>
      <point x="250" y="523"/>
      <point x="250" y="327" type="curve" smooth="yes"/>
      <point x="250" y="162"/>
      <point x="235" y="80"/>
      <point x="185" y="80" type="curve" smooth="yes"/>
      <point x="148" y="80"/>
      <point x="143" y="134"/>
      <point x="143" y="190" type="curve" smooth="yes"/>
      <point x="143" y="196"/>
      <point x="144" y="200"/>
      <point x="143" y="208" type="curve"/>
      <point x="40" y="203" type="line"/>
      <point x="40" y="195"/>
      <point x="40" y="186"/>
      <point x="40" y="182" type="curve" smooth="yes"/>
      <point x="40" y="70"/>
      <point x="71" y="-10"/>
    </contour>
  </outline>
</glyph>
<glyph name="greater" format="2">
  <advance width="508"/>
  <unicode hex="003E"/>
  <outline>
    <contour>
      <point x="73" y="109" type="line"/>
      <point x="146" y="138"/>
      <point x="203" y="165"/>
      <point x="254" y="182" type="curve" smooth="yes"/>
      <point x="331" y="209"/>
      <point x="443" y="252"/>
      <point x="438" y="250" type="curve"/>
      <point x="436" y="349" type="line"/>
      <point x="441" y="351"/>
      <point x="306" y="309"/>
      <point x="235" y="285" type="curve" smooth="yes"/>
      <point x="169" y="261"/>
      <point x="63" y="228"/>
      <point x="67" y="229" type="curve"/>
    </contour>
    <contour>
      <point x="74" y="496" type="curve"/>
      <point x="65" y="376" type="line"/>
      <point x="62" y="378"/>
      <point x="164" y="344"/>
      <point x="233" y="319" type="curve" smooth="yes"/>
      <point x="304" y="293"/>
      <point x="443" y="248"/>
      <point x="438" y="250" type="curve"/>
      <point x="436" y="349" type="line"/>
      <point x="441" y="348"/>
      <point x="334" y="390"/>
      <point x="259" y="419" type="curve" smooth="yes"/>
      <point x="202" y="441"/>
      <point x="122" y="471"/>
    </contour>
  </outline>
</glyph>
<glyph name="question" format="2">
  <advance width="415"/>
  <unicode hex="003F"/>
  <outline>
    <contour>
      <point x="258" y="213" type="line"/>
      <point x="251" y="248"/>
      <point x="247" y="272"/>
      <point x="247" y="288" type="curve" smooth="yes"/>
      <point x="247" y="311"/>
      <point x="254" y="326"/>
      <point x="287" y="365" type="curve" smooth="yes"/>
      <point x="319" y="403"/>
      <point x="358" y="437"/>
      <point x="358" y="553" type="curve" smooth="yes"/>
      <point x="358" y="650"/>
      <point x="303" y="716"/>
      <point x="214" y="716" type="curve" smooth="yes"/>
      <point x="92" y="716"/>
      <point x="54" y="624"/>
      <point x="54" y="537" type="curve" smooth="yes"/>
      <point x="54" y="507"/>
      <point x="60" y="473"/>
      <point x="70" y="436" type="curve"/>
      <point x="173" y="435" type="line"/>
      <point x="164" y="475"/>
      <point x="157" y="515"/>
      <point x="157" y="545" type="curve" smooth="yes"/>
      <point x="157" y="581"/>
      <point x="167" y="616"/>
      <point x="208" y="616" type="curve" smooth="yes"/>
      <point x="233" y="616"/>
      <point x="255" y="591"/>
      <point x="255" y="549" type="curve" smooth="yes"/>
      <point x="255" y="472"/>
      <point x="227" y="452"/>
      <point x="196" y="414" type="curve" smooth="yes"/>
      <point x="157" y="365"/>
      <point x="143" y="330"/>
      <point x="143" y="287" type="curve" smooth="yes"/>
      <point x="143" y="268"/>
      <point x="146" y="246"/>
      <point x="153" y="214" type="curve"/>
    </contour>
    <contour>
      <point x="268" y="-3" type="line"/>
      <point x="256" y="167" type="line"/>
      <point x="148" y="165" type="line"/>
      <point x="147" y="0" type="line"/>
    </contour>
  </outline>
</glyph>
<glyph name="A" format="2">
  <advance width="341"/>
  <unicode hex="0041"/>
  <anchor x="168" y="0" name="bottom"/>
  <anchor x="273" y="-1" name="ogonek"/>
  <anchor x="169" y="693" name="top"/>
  <outline>
    <contour>
      <point x="216" y="-5" type="curve"/>
      <point x="338" y="0" type="line"/>
      <point x="319" y="121"/>
      <point x="300" y="246"/>
      <point x="285" y="362" type="curve" smooth="yes"/>
      <point x="267" y="492"/>
      <point x="253" y="612"/>
      <point x="247" y="705" type="curve"/>
      <point x="94" y="697" type="line"/>
      <point x="157" y="638" type="line"/>
      <point x="168" y="541"/>
      <point x="179" y="450"/>
      <point x="189" y="352" type="curve" smooth="yes"/>
      <point x="199" y="247"/>
      <point x="209" y="134"/>
    </contour>
    <contour>
      <point x="68" y="123" type="line"/>
      <point x="264" y="130" type="line"/>
      <point x="264" y="220" type="line"/>
      <point x="68" y="223" type="line"/>
    </contour>
    <contour>
      <point x="117" y="6" type="line"/>
      <point x="123" y="121"/>
      <point x="133" y="236"/>
      <point x="145" y="347" type="curve" smooth="yes"/>
      <point x="155" y="445"/>
      <point x="166" y="540"/>
      <point x="177" y="630" type="curve"/>
      <point x="247" y="705" type="line"/>
      <point x="94" y="697" type="line"/>
      <point x="82" y="578"/>
      <point x="68" y="469"/>
      <point x="53" y="357" type="curve" smooth="yes"/>
      <point x="37" y="247"/>
      <point x="21" y="134"/>
      <point x="3" y="7" type="curve"/>
    </contour>
  </outline>
</glyph>
<glyph name="B" format="2">
  <advance width="372"/>
  <unicode hex="0042"/>
  <outline>
    <contour>
      <point x="114" y="212" type="line"/>
      <point x="253" y="212"/>
      <point x="351" y="276"/>
      <point x="351" y="472" type="curve" smooth="yes"/>
      <point x="351" y="653"/>
      <point x="313" y="726"/>
      <point x="130" y="726" type="curve" smooth="yes"/>
      <point x="99" y="726"/>
      <point x="68" y="724"/>
      <point x="32" y="720" type="curve"/>
      <point x="83" y="627" type="line"/>
      <point x="108" y="633"/>
      <point x="125" y="636"/>
      <point x="167" y="636" type="curve" smooth="yes"/>
      <point x="223" y="636"/>
      <point x="242" y="616"/>
      <point x="242" y="469" type="curve" smooth="yes"/>
      <point x="242" y="303"/>
      <point x="211" y="282"/>
      <point x="110" y="282" type="curve"/>
    </contour>
    <contour>
      <point x="153" y="-10" type="curve" smooth="yes"/>
      <point x="294" y="-10"/>
      <point x="358" y="28"/>
      <point x="358" y="133" type="curve" smooth="yes"/>
      <point x="358" y="236"/>
      <point x="255" y="283"/>
      <point x="110" y="282" type="curve"/>
      <point x="114" y="187" type="line"/>
      <point x="130" y="188"/>
      <point x="171" y="190"/>
      <point x="193" y="190" type="curve" smooth="yes"/>
      <point x="232" y="190"/>
      <point x="249" y="177"/>
      <point x="249" y="132" type="curve" smooth="yes"/>
      <point x="249" y="88"/>
      <point x="229" y="73"/>
      <point x="183" y="73" type="curve" smooth="yes"/>
      <point x="147" y="73"/>
      <point x="116" y="79"/>
      <point x="91" y="81" type="curve"/>
      <point x="36" y="-5" type="line"/>
      <point x="80" y="-8"/>
      <point x="113" y="-10"/>
    </contour>
    <contour>
      <point x="36" y="-5" type="curve"/>
      <point x="147" y="3" type="line"/>
      <point x="147" y="3"/>
      <point x="142" y="240"/>
      <point x="144" y="357" type="curve" smooth="yes"/>
      <point x="146" y="473"/>
      <point x="146" y="711"/>
      <point x="146" y="711" type="curve"/>
      <point x="32" y="720" type="line"/>
      <point x="32" y="720"/>
      <point x="40" y="530"/>
      <point x="40" y="359" type="curve" smooth="yes"/>
      <point x="40" y="189"/>
      <point x="36" y="-5"/>
    </contour>
  </outline>
</glyph>
<glyph name="C" format="2">
  <advance width="355"/>
  <unicode hex="0043"/>
  <anchor x="186" y="0" name="bottom"/>
  <anchor x="194" y="693" name="top"/>
  <outline>
    <contour>
      <point x="177" y="-3" type="curve"/>
      <point x="290" y="-3"/>
      <point x="329" y="67"/>
      <point x="329" y="169" type="curve" smooth="yes"/>
      <point x="329" y="186"/>
      <point x="328" y="204"/>
      <point x="326" y="223" type="curve"/>
      <point x="227" y="213" type="line"/>
      <point x="228" y="195"/>
      <point x="228" y="179"/>
      <point x="228" y="165" type="curve" smooth="yes"/>
      <point x="228" y="122"/>
      <point x="222" y="97"/>
      <point x="193" y="97" type="curve" smooth="yes"/>
      <point x="169" y="97"/>
      <point x="158" y="122"/>
      <point x="152" y="163" type="curve" smooth="yes"/>
      <point x="146" y="205"/>
      <point x="148" y="263"/>
      <point x="148" y="330" type="curve" smooth="yes"/>
      <point x="148" y="395"/>
      <point x="147" y="451"/>
      <point x="149" y="496" type="curve" smooth="yes"/>
      <point x="152" y="568"/>
      <point x="161" y="610"/>
      <point x="193" y="610" type="curve" smooth="yes"/>
      <point x="222" y="610"/>
      <point x="231" y="578"/>
      <point x="231" y="507" type="curve" smooth="yes"/>
      <point x="231" y="467"/>
      <point x="229" y="415"/>
      <point x="225" y="350" type="curve"/>
      <point x="329" y="350" type="line"/>
      <point x="332" y="398"/>
      <point x="334" y="444"/>
      <point x="334" y="485" type="curve" smooth="yes"/>
      <point x="334" y="620"/>
      <point x="309" y="708"/>
      <point x="195" y="708" type="curve" smooth="yes"/>
      <point x="93" y="708"/>
      <point x="55" y="636"/>
      <point x="43" y="540" type="curve" smooth="yes"/>
      <point x="36" y="486"/>
      <point x="35" y="424"/>
      <point x="35" y="362" type="curve" smooth="yes"/>
      <point x="35" y="282"/>
      <point x="35" y="205"/>
      <point x="45" y="143" type="curve" smooth="yes"/>
      <point x="59" y="56"/>
      <point x="95" y="-3"/>
    </contour>
  </outline>
</glyph>
<glyph name="D" format="2">
  <advance width="385"/>
  <unicode hex="0044"/>
  <anchor x="88" y="348" name="center"/>
  <anchor x="193" y="693" name="top"/>
  <outline>
    <contour>
      <point x="132" y="-10" type="curve" smooth="yes"/>
      <point x="360" y="-10"/>
      <point x="354" y="206"/>
      <point x="354" y="355" type="curve" smooth="yes"/>
      <point x="354" y="581"/>
      <point x="342" y="708"/>
      <point x="153" y="708" type="curve" smooth="yes"/>
      <point x="116" y="708"/>
      <point x="71" y="702"/>
      <point x="41" y="695" type="curve"/>
      <point x="102" y="608" type="line"/>
      <point x="130" y="616"/>
      <point x="151" y="621"/>
      <point x="177" y="621" type="curve" smooth="yes"/>
      <point x="245" y="621"/>
      <point x="240" y="541"/>
      <point x="240" y="358" type="curve" smooth="yes"/>
      <point x="240" y="161"/>
      <point x="240" y="73"/>
      <point x="161" y="73" type="curve" smooth="yes"/>
      <point x="135" y="73"/>
      <point x="115" y="76"/>
      <point x="91" y="81" type="curve"/>
      <point x="44" y="-6" type="line"/>
      <point x="63" y="-8"/>
      <point x="100" y="-10"/>
    </contour>
    <contour>
      <point x="44" y="-6" type="curve"/>
      <point x="155" y="-4" type="line"/>
      <point x="154" y="98"/>
      <point x="152" y="265"/>
      <point x="152" y="350" type="curve"/>
      <point x="152" y="456"/>
      <point x="153" y="598"/>
      <point x="155" y="691" type="curve"/>
      <point x="41" y="695" type="line"/>
      <point x="44" y="610"/>
      <point x="48" y="457"/>
      <point x="48" y="350" type="curve"/>
      <point x="48" y="227"/>
      <point x="46" y="74"/>
    </contour>
  </outline>
</glyph>
<glyph name="E" format="2">
  <advance width="344"/>
  <unicode hex="0045"/>
  <anchor x="184" y="0" name="bottom"/>
  <anchor x="292" y="-1" name="ogonek"/>
  <anchor x="186" y="693" name="top"/>
  <outline>
    <contour>
      <point x="54" y="-1" type="curve"/>
      <point x="164" y="3" type="line"/>
      <point x="164" y="3"/>
      <point x="161" y="223"/>
      <point x="161" y="341" type="curve"/>
      <point x="161" y="457"/>
      <point x="164" y="688"/>
      <point x="164" y="688" type="curve"/>
      <point x="50" y="702" type="line"/>
      <point x="50" y="702"/>
      <point x="58" y="513"/>
      <point x="58" y="342" type="curve"/>
      <point x="58" y="173"/>
      <point x="54" y="-1"/>
    </contour>
    <contour>
      <point x="54" y="-1" type="line"/>
      <point x="318" y="0" type="line"/>
      <point x="317" y="76" type="line"/>
      <point x="111" y="81" type="line"/>
    </contour>
    <contour>
      <point x="107" y="189" type="line"/>
      <point x="313" y="193" type="line"/>
      <point x="315" y="283" type="line"/>
      <point x="107" y="286" type="line"/>
    </contour>
    <contour>
      <point x="98" y="610" type="line"/>
      <point x="306" y="611" type="line"/>
      <point x="306" y="693" type="line"/>
      <point x="50" y="702" type="line"/>
    </contour>
  </outline>
</glyph>
<glyph name="F" format="2">
  <advance width="333"/>
  <unicode hex="0046"/>
  <outline>
    <contour>
      <point x="54" y="4" type="curve"/>
      <point x="164" y="4" type="line"/>
      <point x="164" y="4"/>
      <point x="161" y="243"/>
      <point x="161" y="361" type="curve"/>
      <point x="161" y="477"/>
      <point x="164" y="693"/>
      <point x="164" y="693" type="curve"/>
      <point x="50" y="707" type="line"/>
      <point x="50" y="707"/>
      <point x="58" y="532"/>
      <point x="58" y="361" type="curve"/>
      <point x="58" y="192"/>
      <point x="54" y="4"/>
    </contour>
    <contour>
      <point x="107" y="261" type="line"/>
      <point x="310" y="264" type="line"/>
      <point x="308" y="355" type="line"/>
      <point x="107" y="358" type="line"/>
    </contour>
    <contour>
      <point x="95" y="614" type="line"/>
      <point x="300" y="614" type="line"/>
      <point x="303" y="698" type="line"/>
      <point x="50" y="707" type="line"/>
    </contour>
  </outline>
</glyph>
<glyph name="G" format="2">
  <advance width="360"/>
  <unicode hex="0047"/>
  <anchor x="183" y="0" name="bottom"/>
  <anchor x="191" y="693" name="top"/>
  <outline>
    <contour>
      <point x="30" y="340" type="curve" smooth="yes"/>
      <point x="30" y="266"/>
      <point x="31" y="195"/>
      <point x="42" y="137" type="curve" smooth="yes"/>
      <point x="58" y="50"/>
      <point x="94" y="-8"/>
      <point x="176" y="-8" type="curve" smooth="yes"/>
      <point x="232" y="-8"/>
      <point x="257" y="16"/>
      <point x="271" y="42" type="curve"/>
      <point x="286" y="0" type="line"/>
      <point x="334" y="0" type="line"/>
      <point x="332" y="267" type="line"/>
      <point x="198" y="269" type="line"/>
      <point x="198" y="190" type="line"/>
      <point x="249" y="192" type="line"/>
      <point x="250" y="185"/>
      <point x="250" y="178"/>
      <point x="250" y="171" type="curve" smooth="yes"/>
      <point x="250" y="133"/>
      <point x="238" y="93"/>
      <point x="200" y="93" type="curve" smooth="yes"/>
      <point x="163" y="93"/>
      <point x="150" y="125"/>
      <point x="145" y="184" type="curve" smooth="yes"/>
      <point x="141" y="227"/>
      <point x="143" y="286"/>
      <point x="143" y="357" type="curve" smooth="yes"/>
      <point x="143" y="414"/>
      <point x="143" y="466"/>
      <point x="145" y="508" type="curve" smooth="yes"/>
      <point x="148" y="574"/>
      <point x="160" y="616"/>
      <point x="190" y="616" type="curve" smooth="yes"/>
      <point x="220" y="616"/>
      <point x="227" y="589"/>
      <point x="227" y="518" type="curve" smooth="yes"/>
      <point x="227" y="483"/>
      <point x="225" y="437"/>
      <point x="224" y="378" type="curve"/>
      <point x="328" y="377" type="line"/>
      <point x="331" y="417"/>
      <point x="333" y="454"/>
      <point x="333" y="489" type="curve" smooth="yes"/>
      <point x="333" y="623"/>
      <point x="303" y="714"/>
      <point x="193" y="714" type="curve" smooth="yes"/>
      <point x="99" y="714"/>
      <point x="59" y="656"/>
      <point x="42" y="567" type="curve" smooth="yes"/>
      <point x="30" y="503"/>
      <point x="30" y="425"/>
    </contour>
  </outline>
</glyph>
<glyph name="H" format="2">
  <advance width="412"/>
  <unicode hex="0048"/>
  <anchor x="206" y="0" name="bottom"/>
  <anchor x="205" y="459" name="center"/>
  <anchor x="205" y="693" name="top"/>
  <outline>
    <contour>
      <point x="239" y="0" type="curve"/>
      <point x="359" y="0" type="line"/>
      <point x="356" y="97"/>
      <point x="355" y="241"/>
      <point x="355" y="383" type="curve" smooth="yes"/>
      <point x="355" y="518"/>
      <point x="359" y="619"/>
      <point x="362" y="708" type="curve"/>
      <point x="243" y="706" type="line"/>
      <point x="245" y="627"/>
      <point x="246" y="463"/>
      <point x="246" y="381" type="curve" smooth="yes"/>
      <point x="246" y="297"/>
      <point x="243" y="118"/>
    </contour>
    <contour>
      <point x="104" y="282" type="line"/>
      <point x="104" y="189" type="line"/>
      <point x="317" y="184" type="line"/>
      <point x="317" y="288" type="line"/>
    </contour>
    <contour>
      <point x="53" y="2" type="curve"/>
      <point x="168" y="3" type="line"/>
      <point x="168" y="80"/>
      <point x="165" y="285"/>
      <point x="165" y="352" type="curve" smooth="yes"/>
      <point x="165" y="440"/>
      <point x="168" y="623"/>
      <point x="168" y="698" type="curve"/>
      <point x="50" y="694" type="line"/>
      <point x="52" y="621"/>
      <point x="57" y="480"/>
      <point x="57" y="353" type="curve" smooth="yes"/>
      <point x="57" y="233"/>
      <point x="56" y="98"/>
    </contour>
  </outline>
</glyph>
<glyph name="I" format="2">
  <advance width="202"/>
  <unicode hex="0049"/>
  <anchor x="102" y="0" name="bottom"/>
  <anchor x="93" y="0" name="ogonek"/>
  <anchor x="104" y="693" name="top"/>
  <outline>
    <contour>
      <point x="46" y="702" type="line"/>
      <point x="47" y="626"/>
      <point x="50" y="470"/>
      <point x="50" y="396" type="curve"/>
      <point x="50" y="296"/>
      <point x="42" y="0"/>
      <point x="42" y="0" type="curve"/>
      <point x="157" y="1" type="line"/>
      <point x="157" y="1"/>
      <point x="154" y="212"/>
      <point x="154" y="398" type="curve"/>
      <point x="154" y="585"/>
      <point x="160" y="704"/>
      <point x="160" y="704" type="curve"/>
    </contour>
  </outline>
</glyph>
<glyph name="J" format="2">
  <advance width="341"/>
  <unicode hex="004A"/>
  <anchor x="246" y="693" name="top"/>
  <outline>
    <contour>
      <point x="150" y="-3" type="curve" smooth="yes"/>
      <point x="261" y="-3"/>
      <point x="302" y="60"/>
      <point x="302" y="196" type="curve" smooth="yes"/>
      <point x="302" y="266"/>
      <point x="302" y="334"/>
      <point x="302" y="402" type="curve"/>
      <point x="302" y="492"/>
      <point x="302" y="606"/>
      <point x="304" y="699" type="curve"/>
      <point x="195" y="697" type="line"/>
      <point x="199" y="610"/>
      <point x="200" y="464"/>
      <point x="200" y="396" type="curve"/>
      <point x="201" y="319"/>
      <point x="201" y="288"/>
      <point x="201" y="248" type="curve" smooth="yes"/>
      <point x="201" y="147"/>
      <point x="203" y="95"/>
      <point x="153" y="95" type="curve" smooth="yes"/>
      <point x="120" y="95"/>
      <point x="111" y="117"/>
      <point x="111" y="208" type="curve" smooth="yes"/>
      <point x="111" y="231"/>
      <point x="112" y="272"/>
      <point x="112" y="298" type="curve"/>
      <point x="11" y="299" type="line"/>
      <point x="9" y="269"/>
      <point x="9" y="231"/>
      <point x="9" y="212" type="curve" smooth="yes"/>
      <point x="9" y="60"/>
      <point x="37" y="-3"/>
    </contour>
  </outline>
</glyph>
<glyph name="K" format="2">
  <advance width="363"/>
  <unicode hex="004B"/>
  <anchor x="187" y="0" name="bottom"/>
  <outline>
    <contour>
      <point x="254" y="1" type="curve"/>
      <point x="388" y="6" type="line"/>
      <point x="311" y="128"/>
      <point x="268" y="206"/>
      <point x="225" y="294" type="curve"/>
      <point x="259" y="398"/>
      <point x="336" y="592"/>
      <point x="383" y="705" type="curve"/>
      <point x="264" y="702" type="line"/>
      <point x="236" y="596"/>
      <point x="180" y="422"/>
      <point x="124" y="271" type="curve"/>
      <point x="166" y="191"/>
      <point x="214" y="102"/>
    </contour>
    <contour>
      <point x="41" y="2" type="curve"/>
      <point x="156" y="3" type="line"/>
      <point x="156" y="80"/>
      <point x="153" y="285"/>
      <point x="153" y="352" type="curve" smooth="yes"/>
      <point x="153" y="440"/>
      <point x="156" y="623"/>
      <point x="156" y="698" type="curve"/>
      <point x="38" y="704" type="line"/>
      <point x="40" y="631"/>
      <point x="45" y="480"/>
      <point x="45" y="353" type="curve" smooth="yes"/>
      <point x="45" y="233"/>
      <point x="44" y="98"/>
    </contour>
  </outline>
</glyph>
<glyph name="L" format="2">
  <advance width="315"/>
  <unicode hex="004C"/>
  <anchor x="175" y="0" name="bottom"/>
  <anchor x="140" y="350" name="center"/>
  <anchor x="102" y="693" name="top"/>
  <anchor x="187" y="478" name="topright"/>
  <outline>
    <contour>
      <point x="49" y="-4" type="curve"/>
      <point x="159" y="3" type="line"/>
      <point x="159" y="3"/>
      <point x="157" y="226"/>
      <point x="157" y="343" type="curve"/>
      <point x="157" y="459"/>
      <point x="159" y="703"/>
      <point x="159" y="703" type="curve"/>
      <point x="45" y="696" type="line"/>
      <point x="45" y="696"/>
      <point x="53" y="516"/>
      <point x="53" y="345" type="curve"/>
      <point x="53" y="176"/>
      <point x="49" y="-4"/>
    </contour>
    <contour>
      <point x="49" y="-4" type="line"/>
      <point x="313" y="-1" type="line"/>
      <point x="313" y="78" type="line"/>
      <point x="106" y="81" type="line"/>
    </contour>
  </outline>
</glyph>
<glyph name="M" format="2">
  <advance width="547"/>
  <unicode hex="004D"/>
  <outline>
    <contour>
      <point x="48" y="-1" type="curve"/>
      <point x="148" y="-1" type="line"/>
      <point x="147" y="141"/>
      <point x="146" y="231"/>
      <point x="146" y="297" type="curve" smooth="yes"/>
      <point x="146" y="377"/>
      <point x="145" y="422"/>
      <point x="145" y="481" type="curve"/>
      <point x="155" y="418"/>
      <point x="164" y="366"/>
      <point x="170" y="317" type="curve" smooth="yes"/>
      <point x="183" y="218"/>
      <point x="195" y="135"/>
      <point x="209" y="18" type="curve"/>
      <point x="331" y="12" type="line"/>
      <point x="345" y="137"/>
      <point x="357" y="211"/>
      <point x="370" y="320" type="curve" smooth="yes"/>
      <point x="376" y="370"/>
      <point x="383" y="428"/>
      <point x="396" y="501" type="curve"/>
      <point x="397" y="434"/>
      <point x="397" y="375"/>
      <point x="398" y="321" type="curve" smooth="yes"/>
      <point x="400" y="209"/>
      <point x="396" y="114"/>
      <point x="395" y="0" type="curve"/>
      <point x="499" y="-2" type="line"/>
      <point x="499" y="-2"/>
      <point x="495" y="205"/>
      <point x="495" y="376" type="curve" smooth="yes"/>
      <point x="495" y="547"/>
      <point x="498" y="697"/>
      <point x="498" y="697" type="curve"/>
      <point x="340" y="697" type="line"/>
      <point x="330" y="601"/>
      <point x="319" y="526"/>
      <point x="310" y="437" type="curve" smooth="yes"/>
      <point x="302" y="361"/>
      <point x="285" y="237"/>
      <point x="272" y="119" type="curve"/>
      <point x="258" y="239"/>
      <point x="241" y="365"/>
      <point x="233" y="441" type="curve" smooth="yes"/>
      <point x="224" y="530"/>
      <point x="214" y="606"/>
      <point x="205" y="704" type="curve"/>
      <point x="49" y="702" type="line"/>
      <point x="49" y="702"/>
      <point x="52" y="520"/>
      <point x="52" y="349" type="curve" smooth="yes"/>
      <point x="52" y="178"/>
      <point x="48" y="-1"/>
    </contour>
  </outline>
</glyph>
<glyph name="N" format="2">
  <advance width="421"/>
  <unicode hex="004E"/>
  <anchor x="214" y="0" name="bottom"/>
  <anchor x="217" y="693" name="top"/>
  <outline>
    <contour>
      <point x="50" y="704" type="line"/>
      <point x="50" y="704"/>
      <point x="56" y="527"/>
      <point x="56" y="356" type="curve" smooth="yes"/>
      <point x="56" y="185"/>
      <point x="53" y="1"/>
      <point x="53" y="1" type="curve"/>
      <point x="156" y="0" type="line"/>
      <point x="156" y="0"/>
      <point x="153" y="158"/>
      <point x="153" y="274" type="curve" smooth="yes"/>
      <point x="153" y="280"/>
      <point x="153" y="324"/>
      <point x="153" y="413" type="curve"/>
      <point x="158" y="390"/>
      <point x="174" y="328"/>
      <point x="179" y="305" type="curve" smooth="yes"/>
      <point x="199" y="210"/>
      <point x="220" y="112"/>
      <point x="243" y="7" type="curve"/>
      <point x="362" y="14" type="line"/>
      <point x="362" y="14"/>
      <point x="363" y="212"/>
      <point x="365" y="383" type="curve" smooth="yes"/>
      <point x="367" y="554"/>
      <point x="371" y="715"/>
      <point x="371" y="715" type="curve"/>
      <point x="265" y="715" type="line"/>
      <point x="265" y="715"/>
      <point x="271" y="497"/>
      <point x="271" y="381" type="curve" smooth="yes"/>
      <point x="271" y="355"/>
      <point x="271" y="288"/>
      <point x="272" y="253" type="curve"/>
      <point x="264" y="296"/>
      <point x="245" y="368"/>
      <point x="237" y="409" type="curve" smooth="yes"/>
      <point x="218" y="509"/>
      <point x="198" y="602"/>
      <point x="180" y="704" type="curve"/>
    </contour>
  </outline>
</glyph>
<glyph name="P" format="2">
  <advance width="352"/>
  <unicode hex="0050"/>
  <outline>
    <contour>
      <point x="123" y="210" type="line"/>
      <point x="259" y="210"/>
      <point x="348" y="280"/>
      <point x="348" y="476" type="curve" smooth="yes"/>
      <point x="348" y="648"/>
      <point x="301" y="719"/>
      <point x="129" y="719" type="curve" smooth="yes"/>
      <point x="107" y="719"/>
      <point x="76" y="716"/>
      <point x="40" y="712" type="curve"/>
      <point x="91" y="618" type="line"/>
      <point x="116" y="625"/>
      <point x="125" y="628"/>
      <point x="172" y="628" type="curve" smooth="yes"/>
      <point x="212" y="628"/>
      <point x="240" y="611"/>
      <point x="240" y="473" type="curve" smooth="yes"/>
      <point x="240" y="307"/>
      <point x="217" y="290"/>
      <point x="123" y="290" type="curve"/>
    </contour>
    <contour>
      <point x="44" y="-5" type="curve"/>
      <point x="154" y="5" type="line"/>
      <point x="153" y="103"/>
      <point x="151" y="265"/>
      <point x="151" y="350" type="curve"/>
      <point x="150" y="446"/>
      <point x="145" y="618"/>
      <point x="153" y="702" type="curve"/>
      <point x="40" y="712" type="line"/>
      <point x="43" y="631"/>
      <point x="48" y="477"/>
      <point x="48" y="352" type="curve"/>
      <point x="48" y="228"/>
      <point x="46" y="75"/>
    </contour>
  </outline>
</glyph>
<glyph name="Q" format="2">
  <advance width="383"/>
  <unicode hex="0051"/>
  <outline>
    <contour>
      <point x="185" y="-5" type="curve"/>
      <point x="268" y="-5"/>
      <point x="308" y="49"/>
      <point x="326" y="133" type="curve" smooth="yes"/>
      <point x="340" y="195"/>
      <point x="342" y="272"/>
      <point x="342" y="356" type="curve" smooth="yes"/>
      <point x="342" y="433"/>
      <point x="341" y="502"/>
      <point x="332" y="558" type="curve" smooth="yes"/>
      <point x="318" y="649"/>
      <point x="282" y="706"/>
      <point x="194" y="706" type="curve" smooth="yes"/>
      <point x="119" y="706"/>
      <point x="80" y="662"/>
      <point x="61" y="591" type="curve" smooth="yes"/>
      <point x="44" y="529"/>
      <point x="41" y="447"/>
      <point x="41" y="357" type="curve" smooth="yes"/>
      <point x="41" y="262"/>
      <point x="41" y="177"/>
      <point x="56" y="114" type="curve" smooth="yes"/>
      <point x="72" y="40"/>
      <point x="108" y="-5"/>
    </contour>
    <contour>
      <point x="193" y="77" type="curve"/>
      <point x="168" y="77"/>
      <point x="154" y="99"/>
      <point x="153" y="147" type="curve" smooth="yes"/>
      <point x="152" y="188"/>
      <point x="153" y="266"/>
      <point x="153" y="346" type="curve" smooth="yes"/>
      <point x="153" y="417"/>
      <point x="151" y="484"/>
      <point x="156" y="532" type="curve" smooth="yes"/>
      <point x="161" y="577"/>
      <point x="171" y="606"/>
      <point x="194" y="606" type="curve" smooth="yes"/>
      <point x="219" y="606"/>
      <point x="227" y="580"/>
      <point x="230" y="522" type="curve" smooth="yes"/>
      <point x="232" y="483"/>
      <point x="231" y="429"/>
      <point x="231" y="359" type="curve" smooth="yes"/>
      <point x="231" y="277"/>
      <point x="231" y="197"/>
      <point x="230" y="154" type="curve" smooth="yes"/>
      <point x="229" y="102"/>
      <point x="214" y="77"/>
    </contour>
    <contour>
      <point x="267" y="-85" type="line"/>
      <point x="351" y="-32" type="line"/>
      <point x="210" y="142" type="line"/>
      <point x="167" y="114" type="line"/>
    </contour>
  </outline>
</glyph>
<glyph name="R" format="2">
  <advance width="380"/>
  <unicode hex="0052"/>
  <anchor x="199" y="0" name="bottom"/>
  <anchor x="186" y="693" name="top"/>
  <outline>
    <contour>
      <point x="118" y="227" type="line"/>
      <point x="260" y="227"/>
      <point x="349" y="286"/>
      <point x="349" y="474" type="curve" smooth="yes"/>
      <point x="349" y="643"/>
      <point x="302" y="714"/>
      <point x="124" y="714" type="curve" smooth="yes"/>
      <point x="103" y="714"/>
      <point x="71" y="711"/>
      <point x="35" y="707" type="curve"/>
      <point x="86" y="613" type="line"/>
      <point x="111" y="620"/>
      <point x="127" y="623"/>
      <point x="174" y="623" type="curve" smooth="yes"/>
      <point x="221" y="623"/>
      <point x="240" y="606"/>
      <point x="240" y="471" type="curve" smooth="yes"/>
      <point x="240" y="313"/>
      <point x="214" y="306"/>
      <point x="114" y="306" type="curve"/>
    </contour>
    <contour>
      <point x="39" y="-5" type="curve"/>
      <point x="149" y="4" type="line"/>
      <point x="148" y="103"/>
      <point x="146" y="267"/>
      <point x="146" y="352" type="curve"/>
      <point x="146" y="437"/>
      <point x="148" y="599"/>
      <point x="149" y="697" type="curve"/>
      <point x="35" y="707" type="line"/>
      <point x="38" y="628"/>
      <point x="43" y="478"/>
      <point x="43" y="353" type="curve"/>
      <point x="43" y="230"/>
      <point x="41" y="76"/>
    </contour>
    <contour>
      <point x="255" y="-6" type="curve"/>
      <point x="381" y="-3" type="line"/>
      <point x="331" y="104"/>
      <point x="305" y="206"/>
      <point x="276" y="305" type="curve"/>
      <point x="164" y="274" type="line"/>
      <point x="194" y="175"/>
      <point x="231" y="86"/>
    </contour>
  </outline>
</glyph>
<glyph name="S" format="2">
  <advance width="347"/>
  <unicode hex="0053"/>
  <anchor x="171" y="0" name="bottom"/>
  <anchor x="181" y="693" name="top"/>
  <outline>
    <contour>
      <point x="171" y="-10" type="curve" smooth="yes"/>
      <point x="281" y="-10"/>
      <point x="341" y="56"/>
      <point x="341" y="158" type="curve" smooth="yes"/>
      <point x="341" y="244"/>
      <point x="298" y="284"/>
      <point x="207" y="352" type="curve" smooth="yes"/>
      <point x="145" y="398"/>
      <point x="120" y="432"/>
      <point x="120" y="495" type="curve" smooth="yes"/>
      <point x="120" y="575"/>
      <point x="130" y="613"/>
      <point x="177" y="613" type="curve" smooth="yes"/>
      <point x="215" y="613"/>
      <point x="226" y="573"/>
      <point x="226" y="515" type="curve" smooth="yes"/>
      <point x="226" y="481"/>
      <point x="222" y="439"/>
      <point x="218" y="396" type="curve"/>
      <point x="332" y="396" type="line"/>
      <point x="338" y="437"/>
      <point x="342" y="475"/>
      <point x="342" y="510" type="curve" smooth="yes"/>
      <point x="342" y="629"/>
      <point x="300" y="705"/>
      <point x="179" y="705" type="curve" smooth="yes"/>
      <point x="70" y="705"/>
      <point x="7" y="624"/>
      <point x="7" y="507" type="curve" smooth="yes"/>
      <point x="7" y="405"/>
      <point x="26" y="344"/>
      <point x="127" y="271" type="curve" smooth="yes"/>
      <point x="203" y="216"/>
      <point x="227" y="192"/>
      <point x="227" y="151" type="curve" smooth="yes"/>
      <point x="227" y="104"/>
      <point x="208" y="80"/>
      <point x="167" y="80" type="curve" smooth="yes"/>
      <point x="129" y="80"/>
      <point x="117" y="113"/>
      <point x="117" y="159" type="curve" smooth="yes"/>
      <point x="117" y="181"/>
      <point x="120" y="205"/>
      <point x="123" y="231" type="curve"/>
      <point x="17" y="231" type="line"/>
      <point x="12" y="204"/>
      <point x="9" y="179"/>
      <point x="9" y="156" type="curve" smooth="yes"/>
      <point x="9" y="56"/>
      <point x="58" y="-10"/>
    </contour>
  </outline>
</glyph>
<glyph name="T" format="2">
  <advance width="321"/>
  <unicode hex="0054"/>
  <anchor x="160" y="13" name="bottom"/>
  <anchor x="157" y="347" name="center"/>
  <anchor x="158" y="693" name="top"/>
  <outline>
    <contour>
      <point x="104" y="2" type="curve"/>
      <point x="212" y="4" type="line"/>
      <point x="212" y="4"/>
      <point x="210" y="245"/>
      <point x="210" y="347" type="curve"/>
      <point x="210" y="447"/>
      <point x="212" y="688"/>
      <point x="212" y="688" type="curve"/>
      <point x="99" y="692" type="line"/>
      <point x="99" y="692"/>
      <point x="106" y="532"/>
      <point x="106" y="345" type="curve"/>
      <point x="106" y="156"/>
      <point x="103" y="-12"/>
    </contour>
    <contour>
      <point x="-11" y="597" type="line"/>
      <point x="-11" y="597"/>
      <point x="106" y="602"/>
      <point x="156" y="603" type="curve"/>
      <point x="206" y="603"/>
      <point x="332" y="605"/>
      <point x="332" y="605" type="curve"/>
      <point x="329" y="704" type="line"/>
      <point x="329" y="704"/>
      <point x="192" y="702"/>
      <point x="143" y="702" type="curve"/>
      <point x="94" y="702"/>
      <point x="-8" y="701"/>
      <point x="-8" y="701" type="curve"/>
    </contour>
  </outline>
</glyph>
<glyph name="U" format="2">
  <advance width="392"/>
  <unicode hex="0055"/>
  <anchor x="195" y="0" name="bottom"/>
  <anchor x="225" y="0" name="ogonek"/>
  <anchor x="196" y="693" name="top"/>
  <anchor x="282" y="693" name="topright"/>
  <outline>
    <contour>
      <point x="198" y="-10" type="curve"/>
      <point x="310" y="-10"/>
      <point x="345" y="85"/>
      <point x="345" y="171" type="curve" smooth="yes"/>
      <point x="345" y="201"/>
      <point x="345" y="278"/>
      <point x="344" y="392" type="curve"/>
      <point x="344" y="524"/>
      <point x="346" y="617"/>
      <point x="347" y="706" type="curve"/>
      <point x="234" y="707" type="line"/>
      <point x="236" y="645"/>
      <point x="239" y="521"/>
      <point x="240" y="394" type="curve"/>
      <point x="240" y="272"/>
      <point x="239" y="231"/>
      <point x="239" y="211" type="curve" smooth="yes"/>
      <point x="239" y="146"/>
      <point x="237" y="93"/>
      <point x="197" y="93" type="curve" smooth="yes"/>
      <point x="157" y="93"/>
      <point x="149" y="127"/>
      <point x="149" y="224" type="curve" smooth="yes"/>
      <point x="149" y="264"/>
      <point x="149" y="319"/>
      <point x="150" y="396" type="curve"/>
      <point x="151" y="464"/>
      <point x="152" y="607"/>
      <point x="155" y="695" type="curve"/>
      <point x="43" y="696" type="line"/>
      <point x="46" y="603"/>
      <point x="46" y="492"/>
      <point x="46" y="402" type="curve"/>
      <point x="46" y="334"/>
      <point x="45" y="239"/>
      <point x="45" y="169" type="curve" smooth="yes"/>
      <point x="45" y="55"/>
      <point x="100" y="-10"/>
    </contour>
  </outline>
</glyph>
<glyph name="V" format="2">
  <advance width="370"/>
  <unicode hex="0056"/>
  <outline>
    <contour>
      <point x="17" y="704" type="line"/>
      <point x="33" y="594"/>
      <point x="47" y="497"/>
      <point x="64" y="379" type="curve" smooth="yes"/>
      <point x="78" y="274"/>
      <point x="94" y="153"/>
      <point x="115" y="-9" type="curve"/>
      <point x="250" y="-11" type="line"/>
      <point x="270" y="136"/>
      <point x="288" y="255"/>
      <point x="307" y="393" type="curve" smooth="yes"/>
      <point x="320" y="484"/>
      <point x="334" y="583"/>
      <point x="351" y="705" type="curve"/>
      <point x="238" y="697" type="line"/>
      <point x="231" y="609"/>
      <point x="224" y="511"/>
      <point x="215" y="406" type="curve" smooth="yes"/>
      <point x="207" y="310"/>
      <point x="198" y="217"/>
      <point x="187" y="109" type="curve"/>
      <point x="177" y="218"/>
      <point x="168" y="311"/>
      <point x="160" y="410" type="curve" smooth="yes"/>
      <point x="152" y="510"/>
      <point x="145" y="606"/>
      <point x="139" y="702" type="curve"/>
    </contour>
  </outline>
</glyph>
<glyph name="W" format="2">
  <advance width="607"/>
  <unicode hex="0057"/>
  <anchor x="311" y="693" name="top"/>
  <outline>
    <contour>
      <point x="237" y="-11" type="line"/>
      <point x="260" y="115"/>
      <point x="274" y="200"/>
      <point x="288" y="298" type="curve" smooth="yes"/>
      <point x="294" y="340"/>
      <point x="300" y="383"/>
      <point x="306" y="433" type="curve"/>
      <point x="312" y="385"/>
      <point x="317" y="342"/>
      <point x="323" y="301" type="curve" smooth="yes"/>
      <point x="336" y="204"/>
      <point x="349" y="117"/>
      <point x="369" y="-8" type="curve"/>
      <point x="505" y="-11" type="line"/>
      <point x="521" y="132"/>
      <point x="534" y="244"/>
      <point x="550" y="371" type="curve" smooth="yes"/>
      <point x="562" y="467"/>
      <point x="576" y="571"/>
      <point x="594" y="703" type="curve"/>
      <point x="481" y="695" type="line"/>
      <point x="470" y="564"/>
      <point x="462" y="472"/>
      <point x="454" y="376" type="curve" smooth="yes"/>
      <point x="447" y="300"/>
      <point x="441" y="221"/>
      <point x="434" y="118" type="curve"/>
      <point x="421" y="196"/>
      <point x="410" y="274"/>
      <point x="400" y="353" type="curve" smooth="yes"/>
      <point x="387" y="453"/>
      <point x="377" y="554"/>
      <point x="367" y="657" type="curve"/>
      <point x="251" y="657" type="line"/>
      <point x="237" y="543"/>
      <point x="224" y="447"/>
      <point x="212" y="352" type="curve" smooth="yes"/>
      <point x="201" y="275"/>
      <point x="190" y="199"/>
      <point x="177" y="116" type="curve"/>
      <point x="171" y="195"/>
      <point x="164" y="286"/>
      <point x="158" y="375" type="curve" smooth="yes"/>
      <point x="148" y="508"/>
      <point x="140" y="635"/>
      <point x="136" y="706" type="curve"/>
      <point x="14" y="707" type="line"/>
      <point x="33" y="568"/>
      <point x="47" y="460"/>
      <point x="61" y="341" type="curve" smooth="yes"/>
      <point x="74" y="241"/>
      <point x="86" y="133"/>
      <point x="102" y="-8" type="curve"/>
    </contour>
  </outline>
</glyph>
<glyph name="X" format="2">
  <advance width="347"/>
  <unicode hex="0058"/>
  <outline>
    <contour>
      <point x="-16" y="-2" type="curve"/>
      <point x="94" y="-1" type="line"/>
      <point x="129" y="102"/>
      <point x="165" y="201"/>
      <point x="201" y="298" type="curve" smooth="yes"/>
      <point x="253" y="432"/>
      <point x="307" y="561"/>
      <point x="360" y="691" type="curve"/>
      <point x="250" y="692" type="line"/>
      <point x="222" y="610"/>
      <point x="188" y="512"/>
      <point x="148" y="411" type="curve" smooth="yes"/>
      <point x="95" y="271"/>
      <point x="37" y="123"/>
    </contour>
    <contour>
      <point x="247" y="-7" type="curve"/>
      <point x="363" y="-5" type="line"/>
      <point x="302" y="153"/>
      <point x="246" y="304"/>
      <point x="195" y="447" type="curve" smooth="yes"/>
      <point x="164" y="532"/>
      <point x="136" y="612"/>
      <point x="109" y="688" type="curve"/>
      <point x="-6" y="690" type="line"/>
      <point x="36" y="588"/>
      <point x="92" y="444"/>
      <point x="147" y="291" type="curve" smooth="yes"/>
      <point x="182" y="191"/>
      <point x="217" y="91"/>
    </contour>
  </outline>
</glyph>
<glyph name="Y" format="2">
  <advance width="317"/>
  <unicode hex="0059"/>
  <anchor x="155" y="0" name="bottom"/>
  <anchor x="157" y="693" name="top"/>
  <outline>
    <contour>
      <point x="103" y="0" type="curve"/>
      <point x="206" y="1" type="line"/>
      <point x="206" y="-5"/>
      <point x="203" y="110"/>
      <point x="200" y="224" type="curve"/>
      <point x="104" y="234" type="line"/>
      <point x="107" y="64"/>
      <point x="103" y="-6"/>
    </contour>
    <contour>
      <point x="-22" y="704" type="line"/>
      <point x="-3" y="629"/>
      <point x="17" y="548"/>
      <point x="39" y="459" type="curve" smooth="yes"/>
      <point x="62" y="363"/>
      <point x="87" y="256"/>
      <point x="113" y="137" type="curve"/>
      <point x="194" y="136" type="line"/>
      <point x="221" y="250"/>
      <point x="252" y="369"/>
      <point x="282" y="484" type="curve" smooth="yes"/>
      <point x="301" y="559"/>
      <point x="321" y="631"/>
      <point x="339" y="698" type="curve"/>
      <point x="225" y="696" type="line"/>
      <point x="215" y="634"/>
      <point x="204" y="567"/>
      <point x="192" y="500" type="curve" smooth="yes"/>
      <point x="181" y="438"/>
      <point x="169" y="375"/>
      <point x="156" y="318" type="curve"/>
      <point x="145" y="378"/>
      <point x="135" y="438"/>
      <point x="125" y="497" type="curve" smooth="yes"/>
      <point x="114" y="565"/>
      <point x="104" y="633"/>
      <point x="94" y="704" type="curve"/>
    </contour>
  </outline>
</glyph>
<glyph name="Z" format="2">
  <advance width="313"/>
  <unicode hex="005A"/>
  <anchor x="159" y="693" name="top"/>
  <outline>
    <contour>
      <point x="19" y="693" type="curve"/>
      <point x="14" y="600" type="line"/>
      <point x="39" y="601"/>
      <point x="73" y="601"/>
      <point x="98" y="602" type="curve" smooth="yes"/>
      <point x="120" y="603"/>
      <point x="152" y="603"/>
      <point x="174" y="603" type="curve"/>
      <point x="153" y="533"/>
      <point x="126" y="445"/>
      <point x="97" y="355" type="curve" smooth="yes"/>
      <point x="67" y="263"/>
      <point x="35" y="169"/>
      <point x="9" y="92" type="curve"/>
      <point x="14" y="1" type="line"/>
      <point x="10" y="1"/>
      <point x="85" y="3"/>
      <point x="153" y="3" type="curve" smooth="yes"/>
      <point x="214" y="3"/>
      <point x="318" y="0"/>
      <point x="300" y="0" type="curve"/>
      <point x="302" y="95" type="line"/>
      <point x="275" y="92"/>
      <point x="234" y="92"/>
      <point x="205" y="92" type="curve" smooth="yes"/>
      <point x="176" y="92"/>
      <point x="139" y="92"/>
      <point x="123" y="92" type="curve"/>
      <point x="142" y="154"/>
      <point x="169" y="243"/>
      <point x="199" y="335" type="curve" smooth="yes"/>
      <point x="229" y="430"/>
      <point x="262" y="528"/>
      <point x="287" y="600" type="curve"/>
      <point x="288" y="695" type="line"/>
      <point x="238" y="694"/>
      <point x="217" y="693"/>
      <point x="170" y="692" type="curve" smooth="yes"/>
      <point x="131" y="691"/>
      <point x="72" y="694"/>
    </contour>
  </outline>
</glyph>
<glyph name="bracketleft" format="2">
  <advance width="337"/>
  <unicode hex="005B"/>
  <outline>
    <contour>
      <point x="57" y="-139" type="curve"/>
      <point x="159" y="-128" type="line"/>
      <point x="154" y="123"/>
      <point x="154" y="172"/>
      <point x="154" y="296" type="curve" smooth="yes"/>
      <point x="154" y="393"/>
      <point x="157" y="460"/>
      <point x="159" y="671" type="curve"/>
      <point x="58" y="692" type="line"/>
      <point x="58" y="700"/>
      <point x="62" y="509"/>
      <point x="62" y="303" type="curve" smooth="yes"/>
      <point x="62" y="98"/>
      <point x="60" y="-85"/>
    </contour>
    <contour>
      <point x="57" y="-139" type="line"/>
      <point x="45" y="-139"/>
      <point x="61" y="-138"/>
      <point x="271" y="-130" type="curve"/>
      <point x="279" y="-9" type="line"/>
      <point x="138" y="-16"/>
      <point x="107" y="-21"/>
      <point x="85" y="-24" type="curve"/>
    </contour>
    <contour>
      <point x="74" y="594" type="line"/>
      <point x="120" y="595"/>
      <point x="213" y="596"/>
      <point x="278" y="596" type="curve"/>
      <point x="267" y="702" type="line"/>
      <point x="126" y="695"/>
      <point x="75" y="692"/>
      <point x="58" y="692" type="curve"/>
    </contour>
  </outline>
</glyph>
<glyph name="backslash" format="2">
  <advance width="275"/>
  <unicode hex="005C"/>
  <outline>
    <contour>
      <point x="275" y="-1" type="line"/>
      <point x="244" y="100"/>
      <point x="206" y="238"/>
      <point x="176" y="367" type="curve" smooth="yes"/>
      <point x="149" y="484"/>
      <point x="122" y="615"/>
      <point x="110" y="700" type="curve"/>
      <point x="0" y="698" type="line"/>
      <point x="15" y="630"/>
      <point x="47" y="495"/>
      <point x="79" y="366" type="curve" smooth="yes"/>
      <point x="110" y="235"/>
      <point x="146" y="92"/>
      <point x="164" y="0" type="curve"/>
    </contour>
  </outline>
</glyph>
<glyph name="bracketright" format="2">
  <advance width="337"/>
  <unicode hex="005D"/>
  <outline>
    <contour>
      <point x="279" y="-129" type="line"/>
      <point x="278" y="1"/>
      <point x="276" y="130"/>
      <point x="275" y="260" type="curve"/>
      <point x="277" y="407"/>
      <point x="278" y="555"/>
      <point x="280" y="702" type="curve"/>
      <point x="178" y="691" type="line"/>
      <point x="179" y="550"/>
      <point x="181" y="408"/>
      <point x="182" y="267" type="curve"/>
      <point x="181" y="142"/>
      <point x="179" y="17"/>
      <point x="178" y="-108" type="curve"/>
    </contour>
    <contour>
      <point x="70" y="-139" type="line"/>
      <point x="140" y="-136"/>
      <point x="209" y="-132"/>
      <point x="279" y="-129" type="curve"/>
      <point x="263" y="-31" type="line"/>
      <point x="195" y="-32"/>
      <point x="126" y="-32"/>
      <point x="58" y="-33" type="curve"/>
    </contour>
    <contour>
      <point x="58" y="572" type="line"/>
      <point x="122" y="577"/>
      <point x="187" y="581"/>
      <point x="251" y="586" type="curve"/>
      <point x="280" y="701" type="line"/>
      <point x="209" y="698"/>
      <point x="137" y="696"/>
      <point x="66" y="693" type="curve"/>
    </contour>
  </outline>
</glyph>
<glyph name="underscore" format="2">
  <advance width="338"/>
  <unicode hex="005F"/>
  <outline>
    <contour>
      <point x="38" y="-125" type="line"/>
      <point x="38" y="-125"/>
      <point x="118" y="-122"/>
      <point x="170" y="-121" type="curve" smooth="yes"/>
      <point x="225" y="-120"/>
      <point x="294" y="-122"/>
      <point x="294" y="-122" type="curve"/>
      <point x="301" y="-32" type="line"/>
      <point x="301" y="-32"/>
      <point x="223" y="-35"/>
      <point x="165" y="-36" type="curve" smooth="yes"/>
      <point x="108" y="-37"/>
      <point x="37" y="-34"/>
      <point x="37" y="-34" type="curve"/>
    </contour>
  </outline>
</glyph>
<glyph name="a" format="2">
  <advance width="300"/>
  <unicode hex="0061"/>
  <anchor x="140" y="0" name="bottom"/>
  <anchor x="252" y="-1" name="ogonek"/>
  <anchor x="149" y="515" name="top"/>
  <outline>
    <contour>
      <point x="202" y="0" type="line"/>
      <point x="278" y="0" type="line"/>
      <point x="276" y="274" type="line"/>
      <point x="279" y="384" type="line" smooth="yes"/>
      <point x="281" y="469"/>
      <point x="250" y="525"/>
      <point x="152" y="525" type="curve" smooth="yes"/>
      <point x="55" y="525"/>
      <point x="18" y="468"/>
      <point x="18" y="376" type="curve" smooth="yes"/>
      <point x="18" y="361"/>
      <point x="19" y="345"/>
      <point x="21" y="328" type="curve"/>
      <point x="119" y="331" type="line"/>
      <point x="117" y="354"/>
      <point x="115" y="374"/>
      <point x="115" y="391" type="curve" smooth="yes"/>
      <point x="115" y="419"/>
      <point x="120" y="437"/>
      <point x="149" y="437" type="curve" smooth="yes"/>
      <point x="179" y="437"/>
      <point x="183" y="418"/>
      <point x="183" y="381" type="curve" smooth="yes"/>
      <point x="184" y="263" type="line"/>
    </contour>
    <contour>
      <point x="103" y="-9" type="curve" smooth="yes"/>
      <point x="213" y="-9"/>
      <point x="231" y="129"/>
      <point x="231" y="331" type="curve"/>
      <point x="184" y="263" type="line"/>
      <point x="184" y="108"/>
      <point x="176" y="81"/>
      <point x="144" y="81" type="curve" smooth="yes"/>
      <point x="116" y="81"/>
      <point x="112" y="102"/>
      <point x="112" y="127" type="curve" smooth="yes"/>
      <point x="112" y="167"/>
      <point x="124" y="191"/>
      <point x="151" y="213" type="curve" smooth="yes"/>
      <point x="192" y="247"/>
      <point x="216" y="279"/>
      <point x="231" y="360" type="curve"/>
      <point x="183" y="381" type="line"/>
      <point x="183" y="330"/>
      <point x="145" y="304"/>
      <point x="107" y="269" type="curve" smooth="yes"/>
      <point x="61" y="227"/>
      <point x="14" y="190"/>
      <point x="14" y="104" type="curve" smooth="yes"/>
      <point x="14" y="38"/>
      <point x="40" y="-9"/>
    </contour>
  </outline>
</glyph>
<glyph name="b" format="2">
  <advance width="345"/>
  <unicode hex="0062"/>
  <outline>
    <contour>
      <point x="195" y="-10" type="curve" smooth="yes"/>
      <point x="263" y="-10"/>
      <point x="295" y="31"/>
      <point x="306" y="118" type="curve" smooth="yes"/>
      <point x="319" y="223"/>
      <point x="320" y="303"/>
      <point x="314" y="397" type="curve" smooth="yes"/>
      <point x="309" y="476"/>
      <point x="285" y="525"/>
      <point x="225" y="525" type="curve" smooth="yes"/>
      <point x="91" y="525"/>
      <point x="104" y="274"/>
      <point x="104" y="250" type="curve"/>
      <point x="144" y="292" type="line"/>
      <point x="144" y="377"/>
      <point x="147" y="437"/>
      <point x="180" y="437" type="curve" smooth="yes"/>
      <point x="206" y="437"/>
      <point x="210" y="409"/>
      <point x="210" y="361" type="curve" smooth="yes"/>
      <point x="210" y="315"/>
      <point x="210" y="216"/>
      <point x="208" y="140" type="curve" smooth="yes"/>
      <point x="207" y="97"/>
      <point x="202" y="66"/>
      <point x="175" y="66" type="curve" smooth="yes"/>
      <point x="140" y="66"/>
      <point x="144" y="125"/>
      <point x="144" y="238" type="curve"/>
      <point x="104" y="256" type="line"/>
      <point x="104" y="104"/>
      <point x="106" y="-10"/>
    </contour>
    <contour>
      <point x="118" y="-2" type="line"/>
      <point x="142" y="100" type="line"/>
      <point x="144" y="179"/>
      <point x="144" y="277"/>
      <point x="144" y="343" type="curve"/>
      <point x="144" y="465"/>
      <point x="146" y="584"/>
      <point x="147" y="690" type="curve"/>
      <point x="32" y="686" type="line"/>
      <point x="38" y="555"/>
      <point x="39" y="452"/>
      <point x="40" y="344" type="curve" smooth="yes"/>
      <point x="41" y="228"/>
      <point x="39" y="86"/>
      <point x="35" y="0" type="curve"/>
    </contour>
  </outline>
</glyph>
<glyph name="c" format="2">
  <advance width="322"/>
  <unicode hex="0063"/>
  <anchor x="164" y="0" name="bottom"/>
  <anchor x="168" y="515" name="top"/>
  <outline>
    <contour>
      <point x="160" y="-9" type="curve" smooth="yes"/>
      <point x="262" y="-9"/>
      <point x="299" y="61"/>
      <point x="299" y="142" type="curve" smooth="yes"/>
      <point x="299" y="151"/>
      <point x="299" y="159"/>
      <point x="298" y="168" type="curve"/>
      <point x="194" y="168" type="line"/>
      <point x="195" y="159"/>
      <point x="196" y="149"/>
      <point x="196" y="137" type="curve" smooth="yes"/>
      <point x="196" y="106"/>
      <point x="189" y="71"/>
      <point x="163" y="71" type="curve" smooth="yes"/>
      <point x="145" y="71"/>
      <point x="137" y="88"/>
      <point x="134" y="122" type="curve" smooth="yes"/>
      <point x="131" y="155"/>
      <point x="133" y="205"/>
      <point x="133" y="271" type="curve" smooth="yes"/>
      <point x="133" y="314"/>
      <point x="132" y="352"/>
      <point x="135" y="382" type="curve" smooth="yes"/>
      <point x="139" y="424"/>
      <point x="146" y="449"/>
      <point x="168" y="449" type="curve" smooth="yes"/>
      <point x="194" y="449"/>
      <point x="199" y="422"/>
      <point x="199" y="373" type="curve" smooth="yes"/>
      <point x="199" y="350"/>
      <point x="198" y="321"/>
      <point x="197" y="289" type="curve"/>
      <point x="301" y="286" type="line"/>
      <point x="304" y="310"/>
      <point x="306" y="333"/>
      <point x="306" y="355" type="curve" smooth="yes"/>
      <point x="306" y="451"/>
      <point x="273" y="527"/>
      <point x="176" y="527" type="curve" smooth="yes"/>
      <point x="94" y="527"/>
      <point x="57" y="483"/>
      <point x="40" y="418" type="curve" smooth="yes"/>
      <point x="28" y="371"/>
      <point x="26" y="314"/>
      <point x="26" y="255" type="curve" smooth="yes"/>
      <point x="26" y="180"/>
      <point x="27" y="121"/>
      <point x="37" y="78" type="curve" smooth="yes"/>
      <point x="51" y="20"/>
      <point x="85" y="-9"/>
    </contour>
  </outline>
</glyph>
<glyph name="d" format="2">
  <advance width="345"/>
  <unicode hex="0064"/>
  <anchor x="227" y="601" name="center"/>
  <anchor x="290" y="408" name="topright"/>
  <outline>
    <contour>
      <point x="26" y="253" type="curve" smooth="yes"/>
      <point x="26" y="193"/>
      <point x="26" y="133"/>
      <point x="35" y="86" type="curve" smooth="yes"/>
      <point x="45" y="29"/>
      <point x="70" y="-10"/>
      <point x="125" y="-10" type="curve" smooth="yes"/>
      <point x="166" y="-10"/>
      <point x="189" y="13"/>
      <point x="205" y="48" type="curve"/>
      <point x="210" y="-2" type="line"/>
      <point x="308" y="0" type="line"/>
      <point x="304" y="86"/>
      <point x="302" y="228"/>
      <point x="303" y="324" type="curve" smooth="yes"/>
      <point x="304" y="415"/>
      <point x="304" y="551"/>
      <point x="311" y="696" type="curve"/>
      <point x="196" y="690" type="line"/>
      <point x="197" y="643"/>
      <point x="197" y="550"/>
      <point x="198" y="503" type="curve"/>
      <point x="186" y="518"/>
      <point x="168" y="525"/>
      <point x="141" y="525" type="curve" smooth="yes"/>
      <point x="85" y="525"/>
      <point x="56" y="487"/>
      <point x="41" y="430" type="curve" smooth="yes"/>
      <point x="28" y="380"/>
      <point x="26" y="317"/>
    </contour>
    <contour>
      <point x="132" y="257" type="curve" smooth="yes"/>
      <point x="132" y="312"/>
      <point x="131" y="357"/>
      <point x="134" y="390" type="curve" smooth="yes"/>
      <point x="137" y="428"/>
      <point x="145" y="450"/>
      <point x="166" y="450" type="curve" smooth="yes"/>
      <point x="184" y="450"/>
      <point x="193" y="430"/>
      <point x="196" y="393" type="curve" smooth="yes"/>
      <point x="199" y="360"/>
      <point x="199" y="315"/>
      <point x="199" y="259" type="curve" smooth="yes"/>
      <point x="199" y="214"/>
      <point x="201" y="166"/>
      <point x="195" y="132" type="curve" smooth="yes"/>
      <point x="191" y="105"/>
      <point x="182" y="87"/>
      <point x="164" y="87" type="curve" smooth="yes"/>
      <point x="144" y="87"/>
      <point x="137" y="108"/>
      <point x="134" y="145" type="curve" smooth="yes"/>
      <point x="131" y="173"/>
      <point x="132" y="212"/>
    </contour>
  </outline>
</glyph>
<glyph name="e" format="2">
  <advance width="323"/>
  <unicode hex="0065"/>
  <anchor x="173" y="0" name="bottom"/>
  <anchor x="199" y="-1" name="ogonek"/>
  <anchor x="174" y="515" name="top"/>
  <outline>
    <contour>
      <point x="163" y="-9" type="curve" smooth="yes"/>
      <point x="265" y="-9"/>
      <point x="299" y="62"/>
      <point x="299" y="141" type="curve" smooth="yes"/>
      <point x="299" y="150"/>
      <point x="299" y="159"/>
      <point x="298" y="168" type="curve"/>
      <point x="194" y="168" type="line"/>
      <point x="195" y="156"/>
      <point x="196" y="144"/>
      <point x="196" y="132" type="curve" smooth="yes"/>
      <point x="196" y="100"/>
      <point x="189" y="71"/>
      <point x="163" y="71" type="curve" smooth="yes"/>
      <point x="141" y="71"/>
      <point x="134" y="88"/>
      <point x="132" y="126" type="curve" smooth="yes"/>
      <point x="130" y="158"/>
      <point x="133" y="206"/>
      <point x="133" y="271" type="curve" smooth="yes"/>
      <point x="133" y="324"/>
      <point x="132" y="370"/>
      <point x="136" y="402" type="curve" smooth="yes"/>
      <point x="140" y="432"/>
      <point x="149" y="449"/>
      <point x="168" y="449" type="curve" smooth="yes"/>
      <point x="194" y="449"/>
      <point x="199" y="421"/>
      <point x="199" y="375" type="curve" smooth="yes"/>
      <point x="199" y="355"/>
      <point x="198" y="330"/>
      <point x="197" y="303" type="curve"/>
      <point x="296" y="233" type="line"/>
      <point x="300" y="277"/>
      <point x="302" y="317"/>
      <point x="302" y="352" type="curve" smooth="yes"/>
      <point x="302" y="461"/>
      <point x="277" y="527"/>
      <point x="176" y="527" type="curve" smooth="yes"/>
      <point x="103" y="527"/>
      <point x="66" y="491"/>
      <point x="46" y="437" type="curve" smooth="yes"/>
      <point x="25" y="381"/>
      <point x="26" y="305"/>
      <point x="26" y="231" type="curve" smooth="yes"/>
      <point x="26" y="174"/>
      <point x="27" y="123"/>
      <point x="37" y="83" type="curve" smooth="yes"/>
      <point x="51" y="26"/>
      <point x="85" y="-9"/>
    </contour>
    <contour>
      <point x="63" y="225" type="line"/>
      <point x="149" y="232"/>
      <point x="296" y="233"/>
      <point x="296" y="233" type="curve"/>
      <point x="267" y="310" type="line"/>
      <point x="59" y="308" type="line"/>
    </contour>
  </outline>
</glyph>
<glyph name="f" format="2">
  <advance width="237"/>
  <unicode hex="0066"/>
  <outline>
    <contour>
      <point x="-1" y="418" type="line"/>
      <point x="-1" y="418"/>
      <point x="68" y="421"/>
      <point x="118" y="421" type="curve"/>
      <point x="171" y="422"/>
      <point x="244" y="422"/>
      <point x="244" y="422" type="curve"/>
      <point x="250" y="517" type="line"/>
      <point x="250" y="517"/>
      <point x="172" y="515"/>
      <point x="120" y="515" type="curve"/>
      <point x="73" y="515"/>
      <point x="3" y="517"/>
      <point x="3" y="517" type="curve"/>
    </contour>
    <contour>
      <point x="185" y="714" type="curve" smooth="yes"/>
      <point x="87" y="714"/>
      <point x="53" y="653"/>
      <point x="53" y="561" type="curve" smooth="yes"/>
      <point x="53" y="448"/>
      <point x="52" y="392"/>
      <point x="52" y="271" type="curve" smooth="yes"/>
      <point x="52" y="125"/>
      <point x="46" y="-3"/>
      <point x="46" y="-3" type="curve"/>
      <point x="163" y="0" type="line"/>
      <point x="163" y="0"/>
      <point x="156" y="129"/>
      <point x="156" y="272" type="curve" smooth="yes"/>
      <point x="156" y="386"/>
      <point x="158" y="475"/>
      <point x="162" y="583" type="curve" smooth="yes"/>
      <point x="163" y="608"/>
      <point x="164" y="631"/>
      <point x="189" y="631" type="curve" smooth="yes"/>
      <point x="213" y="631"/>
      <point x="216" y="612"/>
      <point x="216" y="580" type="curve"/>
      <point x="313" y="579" type="line"/>
      <point x="317" y="653"/>
      <point x="282" y="714"/>
    </contour>
  </outline>
</glyph>
<glyph name="g" format="2">
  <advance width="337"/>
  <unicode hex="0067"/>
  <anchor x="170" y="515" name="top"/>
  <outline>
    <contour>
      <point x="164" y="-170" type="curve"/>
      <point x="263" y="-170"/>
      <point x="300" y="-106"/>
      <point x="300" y="-3" type="curve" smooth="yes"/>
      <point x="300" y="104"/>
      <point x="298" y="164"/>
      <point x="298" y="278" type="curve" smooth="yes"/>
      <point x="298" y="393"/>
      <point x="304" y="426"/>
      <point x="314" y="515" type="curve"/>
      <point x="229" y="515" type="line"/>
      <point x="215" y="460"/>
      <point x="195" y="370"/>
      <point x="195" y="277" type="curve"/>
      <point x="195" y="146"/>
      <point x="195" y="37"/>
      <point x="195" y="-16" type="curve" smooth="yes"/>
      <point x="195" y="-59"/>
      <point x="191" y="-91"/>
      <point x="164" y="-91" type="curve" smooth="yes"/>
      <point x="144" y="-91"/>
      <point x="138" y="-69"/>
      <point x="138" y="-49" type="curve" smooth="yes"/>
      <point x="138" y="-42"/>
      <point x="139" y="-35"/>
      <point x="140" y="-30" type="curve"/>
      <point x="34" y="-39" type="line"/>
      <point x="33" y="-50"/>
      <point x="32" y="-61"/>
      <point x="32" y="-71" type="curve" smooth="yes"/>
      <point x="32" y="-135"/>
      <point x="80" y="-170"/>
    </contour>
    <contour>
      <point x="120" y="-8" type="curve" smooth="yes"/>
      <point x="254" y="-8"/>
      <point x="229" y="189"/>
      <point x="229" y="244" type="curve"/>
      <point x="195" y="257" type="line"/>
      <point x="195" y="160"/>
      <point x="202" y="71"/>
      <point x="164" y="71" type="curve" smooth="yes"/>
      <point x="141" y="71"/>
      <point x="135" y="94"/>
      <point x="132" y="135" type="curve" smooth="yes"/>
      <point x="130" y="167"/>
      <point x="132" y="210"/>
      <point x="133" y="263" type="curve" smooth="yes"/>
      <point x="134" y="318"/>
      <point x="132" y="362"/>
      <point x="135" y="392" type="curve" smooth="yes"/>
      <point x="138" y="424"/>
      <point x="146" y="441"/>
      <point x="168" y="441" type="curve" smooth="yes"/>
      <point x="203" y="441"/>
      <point x="195" y="354"/>
      <point x="195" y="257" type="curve"/>
      <point x="248" y="249" type="line"/>
      <point x="248" y="451"/>
      <point x="226" y="524"/>
      <point x="144" y="524" type="curve" smooth="yes"/>
      <point x="91" y="524"/>
      <point x="62" y="489"/>
      <point x="46" y="438" type="curve" smooth="yes"/>
      <point x="30" y="388"/>
      <point x="26" y="322"/>
      <point x="26" y="261" type="curve" smooth="yes"/>
      <point x="26" y="205"/>
      <point x="26" y="146"/>
      <point x="34" y="97" type="curve" smooth="yes"/>
      <point x="44" y="36"/>
      <point x="67" y="-8"/>
    </contour>
  </outline>
</glyph>
<glyph name="h" format="2">
  <advance width="357"/>
  <unicode hex="0068"/>
  <anchor x="173" y="0" name="bottom"/>
  <anchor x="126" y="598" name="center"/>
  <anchor x="89" y="669" name="top"/>
  <outline>
    <contour>
      <point x="31" y="1" type="curve"/>
      <point x="145" y="1" type="line"/>
      <point x="145" y="1"/>
      <point x="142" y="132"/>
      <point x="142" y="276" type="curve"/>
      <point x="142" y="419"/>
      <point x="143" y="690"/>
      <point x="143" y="690" type="curve"/>
      <point x="37" y="690" type="line"/>
      <point x="37" y="690"/>
      <point x="38" y="415"/>
      <point x="38" y="269" type="curve"/>
      <point x="38" y="123"/>
      <point x="31" y="1"/>
    </contour>
    <contour>
      <point x="315" y="0" type="line"/>
      <point x="312" y="81"/>
      <point x="310" y="143"/>
      <point x="310" y="231" type="curve" smooth="yes"/>
      <point x="310" y="271"/>
      <point x="310" y="343"/>
      <point x="310" y="407" type="curve" smooth="yes"/>
      <point x="310" y="490"/>
      <point x="276" y="523"/>
      <point x="226" y="523" type="curve" smooth="yes"/>
      <point x="174" y="523"/>
      <point x="87" y="506"/>
      <point x="87" y="227" type="curve"/>
      <point x="142" y="276" type="line"/>
      <point x="142" y="376"/>
      <point x="139" y="437"/>
      <point x="178" y="437" type="curve" smooth="yes"/>
      <point x="205" y="437"/>
      <point x="206" y="410"/>
      <point x="206" y="387" type="curve" smooth="yes"/>
      <point x="206" y="324"/>
      <point x="206" y="270"/>
      <point x="206" y="230" type="curve" smooth="yes"/>
      <point x="206" y="139"/>
      <point x="204" y="79"/>
      <point x="200" y="1" type="curve"/>
    </contour>
  </outline>
</glyph>
<glyph name="i" format="2">
  <advance width="178"/>
  <unicode hex="0069"/>
  <anchor x="88" y="0" name="bottom"/>
  <anchor x="131" y="-1" name="ogonek"/>
  <outline>
    <contour>
      <point x="147" y="0" type="line"/>
      <point x="143" y="91"/>
      <point x="141" y="172"/>
      <point x="141" y="265" type="curve" smooth="yes"/>
      <point x="141" y="384"/>
      <point x="143" y="473"/>
      <point x="145" y="514" type="curve"/>
      <point x="29" y="515" type="line"/>
      <point x="31" y="467"/>
      <point x="37" y="385"/>
      <point x="37" y="266" type="curve" smooth="yes"/>
      <point x="37" y="163"/>
      <point x="34" y="81"/>
      <point x="29" y="2" type="curve"/>
    </contour>
    <contour>
      <point x="143" y="603" type="line"/>
      <point x="143" y="723" type="line"/>
      <point x="31" y="715" type="line"/>
      <point x="34" y="594" type="line"/>
    </contour>
  </outline>
</glyph>
<glyph name="k" format="2">
  <advance width="332"/>
  <unicode hex="006B"/>
  <anchor x="181" y="0" name="bottom"/>
  <outline>
    <contour>
      <point x="234" y="0" type="curve"/>
      <point x="356" y="3" type="line"/>
      <point x="305" y="103"/>
      <point x="264" y="189"/>
      <point x="224" y="278" type="curve"/>
      <point x="264" y="374"/>
      <point x="292" y="438"/>
      <point x="327" y="519" type="curve"/>
      <point x="213" y="521" type="line"/>
      <point x="188" y="445"/>
      <point x="165" y="384"/>
      <point x="118" y="269" type="curve"/>
      <point x="160" y="177"/>
      <point x="199" y="88"/>
    </contour>
    <contour>
      <point x="31" y="1" type="curve"/>
      <point x="140" y="1" type="line"/>
      <point x="140" y="1"/>
      <point x="138" y="120"/>
      <point x="138" y="264" type="curve"/>
      <point x="138" y="406"/>
      <point x="138" y="691"/>
      <point x="138" y="691" type="curve"/>
      <point x="36" y="691" type="line"/>
      <point x="36" y="691"/>
      <point x="37" y="412"/>
      <point x="37" y="266" type="curve"/>
      <point x="37" y="119"/>
      <point x="31" y="1"/>
    </contour>
  </outline>
</glyph>
<glyph name="l" format="2">
  <advance width="176"/>
  <unicode hex="006C"/>
  <anchor x="86" y="0" name="bottom"/>
  <anchor x="88" y="359" name="center"/>
  <anchor x="90" y="693" name="top"/>
  <anchor x="230" y="473" name="topright"/>
  <outline>
    <contour>
      <point x="32" y="0" type="curve"/>
      <point x="141" y="11" type="line"/>
      <point x="140" y="58"/>
      <point x="139" y="160"/>
      <point x="139" y="264" type="curve" smooth="yes"/>
      <point x="139" y="396"/>
      <point x="141" y="547"/>
      <point x="142" y="691" type="curve"/>
      <point x="35" y="692" type="line"/>
      <point x="37" y="599"/>
      <point x="40" y="403"/>
      <point x="40" y="266" type="curve" smooth="yes"/>
      <point x="40" y="117"/>
      <point x="37" y="86"/>
    </contour>
  </outline>
</glyph>
<glyph name="m" format="2">
  <advance width="515"/>
  <unicode hex="006D"/>
  <outline>
    <contour>
      <point x="200" y="1" type="curve"/>
      <point x="315" y="1" type="line"/>
      <point x="312" y="82"/>
      <point x="310" y="143"/>
      <point x="310" y="231" type="curve" smooth="yes"/>
      <point x="310" y="423"/>
      <point x="307" y="523"/>
      <point x="231" y="523" type="curve" smooth="yes"/>
      <point x="179" y="523"/>
      <point x="97" y="506"/>
      <point x="97" y="227" type="curve"/>
      <point x="152" y="276" type="line"/>
      <point x="152" y="376"/>
      <point x="144" y="437"/>
      <point x="183" y="437" type="curve" smooth="yes"/>
      <point x="205" y="437"/>
      <point x="206" y="410"/>
      <point x="206" y="387" type="curve" smooth="yes"/>
      <point x="206" y="324"/>
      <point x="206" y="270"/>
      <point x="206" y="230" type="curve" smooth="yes"/>
      <point x="206" y="139"/>
      <point x="204" y="79"/>
    </contour>
    <contour>
      <point x="42" y="1" type="curve"/>
      <point x="156" y="1" type="line"/>
      <point x="155" y="82"/>
      <point x="152" y="181"/>
      <point x="152" y="276" type="curve"/>
      <point x="146" y="407"/>
      <point x="145" y="498"/>
      <point x="144" y="522" type="curve"/>
      <point x="46" y="515" type="line"/>
      <point x="47" y="465"/>
      <point x="48" y="375"/>
      <point x="48" y="266" type="curve" smooth="yes"/>
      <point x="48" y="159"/>
      <point x="46" y="76"/>
    </contour>
    <contour>
      <point x="473" y="1" type="line"/>
      <point x="470" y="82"/>
      <point x="468" y="143"/>
      <point x="468" y="231" type="curve" smooth="yes"/>
      <point x="468" y="271"/>
      <point x="468" y="343"/>
      <point x="468" y="407" type="curve" smooth="yes"/>
      <point x="468" y="490"/>
      <point x="434" y="523"/>
      <point x="389" y="523" type="curve" smooth="yes"/>
      <point x="337" y="523"/>
      <point x="255" y="506"/>
      <point x="255" y="227" type="curve"/>
      <point x="310" y="276" type="line"/>
      <point x="310" y="376"/>
      <point x="302" y="437"/>
      <point x="341" y="437" type="curve" smooth="yes"/>
      <point x="363" y="437"/>
      <point x="364" y="410"/>
      <point x="364" y="387" type="curve" smooth="yes"/>
      <point x="364" y="324"/>
      <point x="364" y="270"/>
      <point x="364" y="230" type="curve" smooth="yes"/>
      <point x="364" y="139"/>
      <point x="362" y="80"/>
      <point x="358" y="2" type="curve"/>
    </contour>
  </outline>
</glyph>
<glyph name="n" format="2">
  <advance width="354"/>
  <unicode hex="006E"/>
  <anchor x="175" y="0" name="bottom"/>
  <anchor x="182" y="515" name="top"/>
  <anchor x="75" y="515" name="topright"/>
  <outline>
    <contour>
      <point x="320" y="0" type="line"/>
      <point x="317" y="81"/>
      <point x="315" y="143"/>
      <point x="315" y="231" type="curve" smooth="yes"/>
      <point x="315" y="271"/>
      <point x="315" y="343"/>
      <point x="315" y="407" type="curve" smooth="yes"/>
      <point x="315" y="490"/>
      <point x="281" y="523"/>
      <point x="231" y="523" type="curve" smooth="yes"/>
      <point x="179" y="523"/>
      <point x="92" y="506"/>
      <point x="92" y="227" type="curve"/>
      <point x="147" y="276" type="line"/>
      <point x="147" y="376"/>
      <point x="144" y="437"/>
      <point x="183" y="437" type="curve" smooth="yes"/>
      <point x="210" y="437"/>
      <point x="211" y="410"/>
      <point x="211" y="387" type="curve" smooth="yes"/>
      <point x="211" y="324"/>
      <point x="211" y="270"/>
      <point x="211" y="230" type="curve" smooth="yes"/>
      <point x="211" y="139"/>
      <point x="209" y="79"/>
      <point x="205" y="1" type="curve"/>
    </contour>
    <contour>
      <point x="37" y="1" type="curve"/>
      <point x="151" y="1" type="line"/>
      <point x="150" y="82"/>
      <point x="147" y="181"/>
      <point x="147" y="276" type="curve"/>
      <point x="141" y="407"/>
      <point x="140" y="498"/>
      <point x="139" y="522" type="curve"/>
      <point x="41" y="515" type="line"/>
      <point x="42" y="465"/>
      <point x="43" y="375"/>
      <point x="43" y="266" type="curve" smooth="yes"/>
      <point x="43" y="159"/>
      <point x="41" y="76"/>
    </contour>
  </outline>
</glyph>
<glyph name="o" format="2">
  <advance width="333"/>
  <unicode hex="006F"/>
  <anchor x="170" y="0" name="bottom"/>
  <anchor x="168" y="256" name="center"/>
  <anchor x="205" y="4" name="ogonek"/>
  <anchor x="170" y="515" name="top"/>
  <anchor x="199" y="515" name="topright"/>
  <outline>
    <contour>
      <point x="161" y="-10" type="curve" smooth="yes"/>
      <point x="235" y="-10"/>
      <point x="272" y="32"/>
      <point x="290" y="94" type="curve" smooth="yes"/>
      <point x="303" y="141"/>
      <point x="306" y="201"/>
      <point x="306" y="263" type="curve" smooth="yes"/>
      <point x="306" y="323"/>
      <point x="306" y="378"/>
      <point x="297" y="423" type="curve" smooth="yes"/>
      <point x="285" y="486"/>
      <point x="253" y="527"/>
      <point x="175" y="527" type="curve" smooth="yes"/>
      <point x="100" y="527"/>
      <point x="63" y="487"/>
      <point x="44" y="427" type="curve" smooth="yes"/>
      <point x="29" y="381"/>
      <point x="26" y="324"/>
      <point x="26" y="264" type="curve" smooth="yes"/>
      <point x="26" y="206"/>
      <point x="26" y="153"/>
      <point x="33" y="110" type="curve" smooth="yes"/>
      <point x="44" y="36"/>
      <point x="76" y="-10"/>
    </contour>
    <contour>
      <point x="165" y="71" type="curve" smooth="yes"/>
      <point x="144" y="71"/>
      <point x="136" y="86"/>
      <point x="134" y="142" type="curve" smooth="yes"/>
      <point x="133" y="167"/>
      <point x="133" y="200"/>
      <point x="133" y="243" type="curve" smooth="yes"/>
      <point x="133" y="310"/>
      <point x="133" y="356"/>
      <point x="136" y="387" type="curve" smooth="yes"/>
      <point x="139" y="436"/>
      <point x="148" y="449"/>
      <point x="168" y="449" type="curve" smooth="yes"/>
      <point x="188" y="449"/>
      <point x="195" y="435"/>
      <point x="198" y="382" type="curve" smooth="yes"/>
      <point x="199" y="355"/>
      <point x="199" y="318"/>
      <point x="199" y="267" type="curve" smooth="yes"/>
      <point x="199" y="213"/>
      <point x="199" y="173"/>
      <point x="197" y="144" type="curve" smooth="yes"/>
      <point x="194" y="87"/>
      <point x="186" y="71"/>
    </contour>
  </outline>
</glyph>
<glyph name="p" format="2">
  <advance width="348"/>
  <unicode hex="0070"/>
  <outline>
    <contour>
      <point x="34" y="-166" type="curve"/>
      <point x="154" y="-160" type="line"/>
      <point x="150" y="12" type="line"/>
      <point x="160" y="1"/>
      <point x="173" y="-8"/>
      <point x="207" y="-8" type="curve" smooth="yes"/>
      <point x="248" y="-8"/>
      <point x="275" y="15"/>
      <point x="292" y="52" type="curve" smooth="yes"/>
      <point x="316" y="102"/>
      <point x="321" y="178"/>
      <point x="321" y="251" type="curve" smooth="yes"/>
      <point x="321" y="304"/>
      <point x="322" y="356"/>
      <point x="318" y="401" type="curve" smooth="yes"/>
      <point x="310" y="473"/>
      <point x="289" y="525"/>
      <point x="228" y="525" type="curve" smooth="yes"/>
      <point x="196" y="525"/>
      <point x="166" y="512"/>
      <point x="148" y="475" type="curve"/>
      <point x="149" y="520" type="line"/>
      <point x="40" y="515" type="line"/>
      <point x="40" y="443"/>
      <point x="43" y="308"/>
      <point x="43" y="184" type="curve" smooth="yes"/>
      <point x="43" y="62"/>
      <point x="34" y="-166"/>
    </contour>
    <contour>
      <point x="147" y="185" type="curve" smooth="yes"/>
      <point x="147" y="326" type="line" smooth="yes"/>
      <point x="147" y="391"/>
      <point x="156" y="431"/>
      <point x="182" y="431" type="curve" smooth="yes"/>
      <point x="202" y="431"/>
      <point x="209" y="413"/>
      <point x="211" y="369" type="curve" smooth="yes"/>
      <point x="213" y="339"/>
      <point x="212" y="298"/>
      <point x="212" y="242" type="curve" smooth="yes"/>
      <point x="212" y="195"/>
      <point x="213" y="148"/>
      <point x="208" y="114" type="curve" smooth="yes"/>
      <point x="203" y="85"/>
      <point x="195" y="65"/>
      <point x="178" y="65" type="curve" smooth="yes"/>
      <point x="143" y="65"/>
      <point x="147" y="125"/>
    </contour>
  </outline>
</glyph>
<glyph name="q" format="2">
  <advance width="347"/>
  <unicode hex="0071"/>
  <outline>
    <contour>
      <point x="26" y="252" type="curve" smooth="yes"/>
      <point x="26" y="189"/>
      <point x="27" y="127"/>
      <point x="38" y="79" type="curve" smooth="yes"/>
      <point x="50" y="25"/>
      <point x="76" y="-11"/>
      <point x="127" y="-11" type="curve" smooth="yes"/>
      <point x="159" y="-11"/>
      <point x="189" y="13"/>
      <point x="205" y="47" type="curve"/>
      <point x="208" y="-160" type="line"/>
      <point x="311" y="-164" type="line"/>
      <point x="307" y="-73"/>
      <point x="303" y="81"/>
      <point x="303" y="199" type="curve" smooth="yes"/>
      <point x="303" y="322"/>
      <point x="310" y="528"/>
      <point x="310" y="528" type="curve"/>
      <point x="200" y="525" type="line"/>
      <point x="201" y="495" type="line"/>
      <point x="189" y="518"/>
      <point x="169" y="525"/>
      <point x="141" y="525" type="curve" smooth="yes"/>
      <point x="81" y="525"/>
      <point x="52" y="480"/>
      <point x="38" y="416" type="curve" smooth="yes"/>
      <point x="28" y="369"/>
      <point x="26" y="310"/>
    </contour>
    <contour>
      <point x="132" y="256" type="curve" smooth="yes"/>
      <point x="132" y="306"/>
      <point x="132" y="350"/>
      <point x="135" y="383" type="curve" smooth="yes"/>
      <point x="139" y="425"/>
      <point x="147" y="450"/>
      <point x="166" y="450" type="curve" smooth="yes"/>
      <point x="187" y="450"/>
      <point x="195" y="430"/>
      <point x="198" y="382" type="curve" smooth="yes"/>
      <point x="200" y="351"/>
      <point x="199" y="308"/>
      <point x="199" y="250" type="curve" smooth="yes"/>
      <point x="199" y="201"/>
      <point x="200" y="162"/>
      <point x="197" y="133" type="curve" smooth="yes"/>
      <point x="193" y="98"/>
      <point x="186" y="79"/>
      <point x="164" y="79" type="curve" smooth="yes"/>
      <point x="143" y="79"/>
      <point x="135" y="96"/>
      <point x="134" y="137" type="curve" smooth="yes"/>
      <point x="133" y="165"/>
      <point x="132" y="204"/>
    </contour>
  </outline>
</glyph>
<glyph name="r" format="2">
  <advance width="293"/>
  <unicode hex="0072"/>
  <anchor x="80" y="0" name="bottom"/>
  <anchor x="161" y="515" name="top"/>
  <outline>
    <contour>
      <point x="184" y="207" type="curve"/>
      <point x="285" y="208" type="line"/>
      <point x="287" y="262"/>
      <point x="291" y="315"/>
      <point x="291" y="362" type="curve" smooth="yes"/>
      <point x="291" y="460"/>
      <point x="276" y="531"/>
      <point x="206" y="531" type="curve" smooth="yes"/>
      <point x="142" y="531"/>
      <point x="84" y="489"/>
      <point x="86" y="243" type="curve"/>
      <point x="135" y="286" type="line"/>
      <point x="135" y="383"/>
      <point x="130" y="443"/>
      <point x="163" y="443" type="curve" smooth="yes"/>
      <point x="183" y="443"/>
      <point x="189" y="412"/>
      <point x="189" y="353" type="curve" smooth="yes"/>
      <point x="189" y="315"/>
      <point x="186" y="266"/>
    </contour>
    <contour>
      <point x="22" y="-2" type="curve"/>
      <point x="136" y="0" type="line"/>
      <point x="137" y="98"/>
      <point x="135" y="178"/>
      <point x="135" y="292" type="curve"/>
      <point x="125" y="407"/>
      <point x="124" y="467"/>
      <point x="118" y="527" type="curve"/>
      <point x="23" y="520" type="line"/>
      <point x="27" y="467"/>
      <point x="34" y="374"/>
      <point x="31" y="245" type="curve" smooth="yes"/>
      <point x="29" y="145"/>
      <point x="27" y="98"/>
    </contour>
  </outline>
</glyph>
<glyph name="s" format="2">
  <advance width="300"/>
  <unicode hex="0073"/>
  <anchor x="151" y="0" name="bottom"/>
  <anchor x="148" y="515" name="top"/>
  <outline>
    <contour>
      <point x="141" y="-10" type="curve"/>
      <point x="249" y="-10"/>
      <point x="284" y="51"/>
      <point x="284" y="137" type="curve" smooth="yes"/>
      <point x="284" y="227"/>
      <point x="215" y="260"/>
      <point x="167" y="297" type="curve" smooth="yes"/>
      <point x="141" y="317"/>
      <point x="121" y="338"/>
      <point x="121" y="369" type="curve" smooth="yes"/>
      <point x="121" y="410"/>
      <point x="126" y="430"/>
      <point x="149" y="430" type="curve" smooth="yes"/>
      <point x="171" y="430"/>
      <point x="176" y="408"/>
      <point x="176" y="382" type="curve" smooth="yes"/>
      <point x="176" y="364"/>
      <point x="174" y="349"/>
      <point x="173" y="329" type="curve"/>
      <point x="275" y="329" type="line"/>
      <point x="278" y="348"/>
      <point x="279" y="362"/>
      <point x="279" y="380" type="curve" smooth="yes"/>
      <point x="279" y="454"/>
      <point x="251" y="513"/>
      <point x="152" y="513" type="curve" smooth="yes"/>
      <point x="64" y="513"/>
      <point x="16" y="453"/>
      <point x="16" y="358" type="curve" smooth="yes"/>
      <point x="16" y="271"/>
      <point x="63" y="234"/>
      <point x="107" y="204" type="curve" smooth="yes"/>
      <point x="143" y="178"/>
      <point x="176" y="157"/>
      <point x="176" y="116" type="curve" smooth="yes"/>
      <point x="176" y="93"/>
      <point x="172" y="75"/>
      <point x="149" y="75" type="curve" smooth="yes"/>
      <point x="128" y="75"/>
      <point x="122" y="93"/>
      <point x="122" y="113" type="curve" smooth="yes"/>
      <point x="122" y="126"/>
      <point x="123" y="140"/>
      <point x="124" y="156" type="curve"/>
      <point x="20" y="155" type="line"/>
      <point x="18" y="139"/>
      <point x="17" y="124"/>
      <point x="17" y="110" type="curve" smooth="yes"/>
      <point x="17" y="42"/>
      <point x="48" y="-10"/>
    </contour>
  </outline>
</glyph>
<glyph name="t" format="2">
  <advance width="311"/>
  <unicode hex="0074"/>
  <anchor x="160" y="0" name="bottom"/>
  <anchor x="139" y="346" name="center"/>
  <anchor x="163" y="515" name="topright"/>
  <outline>
    <contour>
      <point x="161" y="-11" type="curve" smooth="yes"/>
      <point x="277" y="-11"/>
      <point x="302" y="76"/>
      <point x="302" y="142" type="curve" smooth="yes"/>
      <point x="302" y="177"/>
      <point x="301" y="206"/>
      <point x="298" y="267" type="curve"/>
      <point x="194" y="268" type="line"/>
      <point x="195" y="218"/>
      <point x="196" y="208"/>
      <point x="196" y="174" type="curve" smooth="yes"/>
      <point x="196" y="106"/>
      <point x="193" y="70"/>
      <point x="166" y="70" type="curve" smooth="yes"/>
      <point x="141" y="70"/>
      <point x="142" y="101"/>
      <point x="142" y="131" type="curve" smooth="yes"/>
      <point x="142" y="171"/>
      <point x="142" y="225"/>
      <point x="145" y="293" type="curve" smooth="yes"/>
      <point x="148" y="355"/>
      <point x="158" y="490"/>
      <point x="167" y="607" type="curve"/>
      <point x="50" y="606" type="line"/>
      <point x="52" y="535"/>
      <point x="46" y="399"/>
      <point x="41" y="311" type="curve" smooth="yes"/>
      <point x="37" y="246"/>
      <point x="34" y="195"/>
      <point x="34" y="124" type="curve" smooth="yes"/>
      <point x="34" y="37"/>
      <point x="76" y="-11"/>
    </contour>
    <contour>
      <point x="3" y="410" type="line"/>
      <point x="3" y="410"/>
      <point x="73" y="416"/>
      <point x="123" y="417" type="curve" smooth="yes"/>
      <point x="173" y="418"/>
      <point x="277" y="420"/>
      <point x="277" y="420" type="curve"/>
      <point x="281" y="515" type="line"/>
      <point x="281" y="515"/>
      <point x="158" y="512"/>
      <point x="109" y="512" type="curve" smooth="yes"/>
      <point x="80" y="512"/>
      <point x="35" y="513"/>
      <point x="13" y="513" type="curve"/>
    </contour>
  </outline>
</glyph>
<glyph name="u" format="2">
  <advance width="337"/>
  <unicode hex="0075"/>
  <anchor x="175" y="0" name="bottom"/>
  <anchor x="263" y="-1" name="ogonek"/>
  <anchor x="174" y="515" name="top"/>
  <anchor x="233" y="515" name="topright"/>
  <outline>
    <contour>
      <point x="127" y="-8" type="curve" smooth="yes"/>
      <point x="231" y="-8"/>
      <point x="252" y="116"/>
      <point x="254" y="311" type="curve"/>
      <point x="200" y="245" type="line"/>
      <point x="200" y="126"/>
      <point x="200" y="77"/>
      <point x="161" y="77" type="curve" smooth="yes"/>
      <point x="133" y="77"/>
      <point x="135" y="118"/>
      <point x="135" y="147" type="curve" smooth="yes"/>
      <point x="135" y="187"/>
      <point x="135" y="208"/>
      <point x="136" y="276" type="curve" smooth="yes"/>
      <point x="138" y="385"/>
      <point x="140" y="457"/>
      <point x="142" y="525" type="curve"/>
      <point x="33" y="519" type="line"/>
      <point x="33" y="442"/>
      <point x="32" y="435"/>
      <point x="32" y="274" type="curve" smooth="yes"/>
      <point x="32" y="207"/>
      <point x="32" y="151"/>
      <point x="32" y="133" type="curve" smooth="yes"/>
      <point x="32" y="35"/>
      <point x="65" y="-8"/>
    </contour>
    <contour>
      <point x="216" y="0" type="line"/>
      <point x="304" y="0" type="line"/>
      <point x="304" y="9"/>
      <point x="302" y="181"/>
      <point x="303" y="282" type="curve" smooth="yes"/>
      <point x="304" y="392"/>
      <point x="304" y="407"/>
      <point x="310" y="526" type="curve"/>
      <point x="200" y="528" type="line"/>
      <point x="201" y="410"/>
      <point x="200" y="422"/>
      <point x="200" y="296" type="curve" smooth="yes"/>
      <point x="200" y="233"/>
      <point x="201" y="173"/>
      <point x="202" y="112" type="curve"/>
    </contour>
  </outline>
</glyph>
<glyph name="v" format="2">
  <advance width="310"/>
  <unicode hex="0076"/>
  <outline>
    <contour>
      <point x="11" y="521" type="line"/>
      <point x="27" y="414"/>
      <point x="39" y="340"/>
      <point x="48" y="276" type="curve" smooth="yes"/>
      <point x="64" y="162"/>
      <point x="72" y="96"/>
      <point x="82" y="0" type="curve"/>
      <point x="225" y="-4" type="line"/>
      <point x="237" y="76"/>
      <point x="251" y="177"/>
      <point x="265" y="278" type="curve" smooth="yes"/>
      <point x="278" y="365"/>
      <point x="290" y="447"/>
      <point x="301" y="517" type="curve"/>
      <point x="197" y="510" type="line"/>
      <point x="193" y="462"/>
      <point x="184" y="379"/>
      <point x="176" y="294" type="curve" smooth="yes"/>
      <point x="168" y="213"/>
      <point x="160" y="135"/>
      <point x="156" y="98" type="curve"/>
      <point x="152" y="147"/>
      <point x="145" y="220"/>
      <point x="138" y="297" type="curve" smooth="yes"/>
      <point x="131" y="378"/>
      <point x="125" y="457"/>
      <point x="121" y="521" type="curve"/>
    </contour>
  </outline>
</glyph>
<glyph name="w" format="2">
  <advance width="487"/>
  <unicode hex="0077"/>
  <anchor x="246" y="515" name="top"/>
  <outline>
    <contour>
      <point x="93" y="-1" type="curve"/>
      <point x="227" y="1" type="line"/>
      <point x="228" y="47"/>
      <point x="233" y="137"/>
      <point x="238" y="213" type="curve" smooth="yes"/>
      <point x="241" y="259"/>
      <point x="244" y="299"/>
      <point x="246" y="321" type="curve"/>
      <point x="247" y="301"/>
      <point x="250" y="257"/>
      <point x="253" y="207" type="curve" smooth="yes"/>
      <point x="258" y="130"/>
      <point x="264" y="38"/>
      <point x="266" y="1" type="curve"/>
      <point x="397" y="-1" type="line"/>
      <point x="404" y="44"/>
      <point x="425" y="172"/>
      <point x="445" y="291" type="curve" smooth="yes"/>
      <point x="462" y="390"/>
      <point x="477" y="484"/>
      <point x="482" y="517" type="curve"/>
      <point x="370" y="518" type="line"/>
      <point x="364" y="431"/>
      <point x="358" y="363"/>
      <point x="351" y="290" type="curve" smooth="yes"/>
      <point x="346" y="233"/>
      <point x="339" y="174"/>
      <point x="331" y="100" type="curve"/>
      <point x="329" y="128"/>
      <point x="325" y="194"/>
      <point x="321" y="265" type="curve" smooth="yes"/>
      <point x="316" y="346"/>
      <point x="311" y="435"/>
      <point x="309" y="483" type="curve"/>
      <point x="179" y="484" type="line"/>
      <point x="177" y="444"/>
      <point x="172" y="356"/>
      <point x="167" y="272" type="curve" smooth="yes"/>
      <point x="163" y="203"/>
      <point x="159" y="136"/>
      <point x="157" y="100" type="curve"/>
      <point x="152" y="149"/>
      <point x="144" y="218"/>
      <point x="137" y="292" type="curve" smooth="yes"/>
      <point x="130" y="367"/>
      <point x="123" y="447"/>
      <point x="117" y="515" type="curve"/>
      <point x="8" y="515" type="line"/>
      <point x="20" y="446"/>
      <point x="37" y="352"/>
      <point x="52" y="258" type="curve" smooth="yes"/>
      <point x="68" y="162"/>
      <point x="83" y="67"/>
    </contour>
  </outline>
</glyph>
<glyph name="x" format="2">
  <advance width="286"/>
  <unicode hex="0078"/>
  <outline>
    <contour>
      <point x="92" y="-4" type="line"/>
      <point x="127" y="103"/>
      <point x="140" y="137"/>
      <point x="190" y="261" type="curve" smooth="yes"/>
      <point x="239" y="383"/>
      <point x="252" y="415"/>
      <point x="294" y="518" type="curve"/>
      <point x="191" y="518" type="line"/>
      <point x="163" y="428"/>
      <point x="157" y="408"/>
      <point x="104" y="279" type="curve" smooth="yes"/>
      <point x="53" y="154"/>
      <point x="36" y="117"/>
      <point x="-17" y="-2" type="curve"/>
    </contour>
    <contour>
      <point x="204" y="-2" type="curve"/>
      <point x="311" y="1" type="line"/>
      <point x="262" y="101"/>
      <point x="238" y="156"/>
      <point x="187" y="279" type="curve" smooth="yes"/>
      <point x="134" y="406"/>
      <point x="126" y="431"/>
      <point x="96" y="518" type="curve"/>
      <point x="-14" y="515" type="line"/>
      <point x="27" y="419"/>
      <point x="44" y="382"/>
      <point x="96" y="261" type="curve" smooth="yes"/>
      <point x="147" y="142"/>
      <point x="171" y="83"/>
    </contour>
  </outline>
</glyph>
<glyph name="y" format="2">
  <advance width="311"/>
  <unicode hex="0079"/>
  <anchor x="266" y="0" name="bottom"/>
  <anchor x="154" y="515" name="top"/>
  <outline>
    <contour>
      <point x="182" y="-164" type="line"/>
      <point x="205" y="-41"/>
      <point x="238" y="122"/>
      <point x="272" y="272" type="curve" smooth="yes"/>
      <point x="293" y="366"/>
      <point x="313" y="454"/>
      <point x="331" y="523" type="curve"/>
      <point x="221" y="523" type="line"/>
      <point x="209" y="454"/>
      <point x="194" y="377"/>
      <point x="179" y="299" type="curve" smooth="yes"/>
      <point x="146" y="134"/>
      <point x="109" y="-37"/>
      <point x="81" y="-156" type="curve"/>
    </contour>
    <contour>
      <point x="118" y="-35" type="curve"/>
      <point x="197" y="-11" type="line"/>
      <point x="175" y="101"/>
      <point x="156" y="202"/>
      <point x="138" y="302" type="curve" smooth="yes"/>
      <point x="125" y="371"/>
      <point x="112" y="440"/>
      <point x="99" y="513" type="curve"/>
      <point x="-21" y="509" type="line"/>
      <point x="3" y="417"/>
      <point x="21" y="346"/>
      <point x="40" y="272" type="curve" smooth="yes"/>
      <point x="62" y="186"/>
      <point x="85" y="96"/>
    </contour>
  </outline>
</glyph>
<glyph name="z" format="2">
  <advance width="267"/>
  <unicode hex="007A"/>
  <anchor x="135" y="515" name="top"/>
  <outline>
    <contour>
      <point x="83" y="10" type="line"/>
      <point x="114" y="99"/>
      <point x="142" y="164"/>
      <point x="173" y="239" type="curve" smooth="yes"/>
      <point x="202" y="309"/>
      <point x="220" y="354"/>
      <point x="247" y="411" type="curve"/>
      <point x="161" y="495" type="line"/>
      <point x="132" y="406"/>
      <point x="110" y="341"/>
      <point x="79" y="265" type="curve" smooth="yes"/>
      <point x="50" y="193"/>
      <point x="32" y="149"/>
      <point x="6" y="94" type="curve"/>
    </contour>
    <contour>
      <point x="7" y="-4" type="line"/>
      <point x="7" y="-4"/>
      <point x="102" y="0"/>
      <point x="130" y="0" type="curve"/>
      <point x="180" y="-1"/>
      <point x="256" y="0"/>
      <point x="256" y="0" type="curve"/>
      <point x="256" y="96" type="line"/>
      <point x="256" y="96"/>
      <point x="193" y="94"/>
      <point x="145" y="93" type="curve"/>
      <point x="91" y="93"/>
      <point x="6" y="94"/>
      <point x="6" y="94" type="curve"/>
    </contour>
    <contour>
      <point x="9" y="411" type="line"/>
      <point x="9" y="411"/>
      <point x="65" y="413"/>
      <point x="114" y="413" type="curve"/>
      <point x="137" y="413"/>
      <point x="247" y="411"/>
      <point x="247" y="411" type="curve"/>
      <point x="244" y="515" type="line"/>
      <point x="244" y="515"/>
      <point x="136" y="512"/>
      <point x="130" y="512" type="curve"/>
      <point x="80" y="511"/>
      <point x="10" y="512"/>
      <point x="10" y="512" type="curve"/>
    </contour>
  </outline>
</glyph>
<glyph name="braceleft" format="2">
  <advance width="407"/>
  <unicode hex="007B"/>
  <outline>
    <contour>
      <point x="253" y="-147" type="curve" smooth="yes"/>
      <point x="286" y="-147"/>
      <point x="314" y="-137"/>
      <point x="347" y="-112" type="curve"/>
      <point x="323" y="-22" type="line"/>
      <point x="304" y="-43"/>
      <point x="275" y="-56"/>
      <point x="254" y="-56" type="curve" smooth="yes"/>
      <point x="231" y="-56"/>
      <point x="220" y="-41"/>
      <point x="220" y="2" type="curve" smooth="yes"/>
      <point x="220" y="25"/>
      <point x="241" y="151"/>
      <point x="241" y="187" type="curve" smooth="yes"/>
      <point x="241" y="218"/>
      <point x="233" y="255"/>
      <point x="178" y="279" type="curve"/>
      <point x="232" y="300"/>
      <point x="239" y="332"/>
      <point x="239" y="364" type="curve" smooth="yes"/>
      <point x="239" y="412"/>
      <point x="208" y="536"/>
      <point x="208" y="570" type="curve" smooth="yes"/>
      <point x="208" y="613"/>
      <point x="220" y="627"/>
      <point x="245" y="627" type="curve" smooth="yes"/>
      <point x="263" y="627"/>
      <point x="278" y="618"/>
      <point x="303" y="595" type="curve"/>
      <point x="333" y="685" type="line"/>
      <point x="300" y="710"/>
      <point x="272" y="720"/>
      <point x="239" y="720" type="curve" smooth="yes"/>
      <point x="158" y="720"/>
      <point x="111" y="674"/>
      <point x="111" y="580" type="curve" smooth="yes"/>
      <point x="111" y="523"/>
      <point x="143" y="423"/>
      <point x="143" y="374" type="curve" smooth="yes"/>
      <point x="143" y="341"/>
      <point x="102" y="313"/>
      <point x="45" y="323" type="curve"/>
      <point x="57" y="224" type="line"/>
      <point x="112" y="231"/>
      <point x="143" y="204"/>
      <point x="143" y="171" type="curve" smooth="yes"/>
      <point x="143" y="132"/>
      <point x="121" y="43"/>
      <point x="121" y="-7" type="curve" smooth="yes"/>
      <point x="121" y="-98"/>
      <point x="171" y="-147"/>
    </contour>
  </outline>
</glyph>
<glyph name="bar" format="2">
  <advance width="239"/>
  <unicode hex="007C"/>
  <outline>
    <contour>
      <point x="173" y="-136" type="line"/>
      <point x="174" y="-145"/>
      <point x="163" y="112"/>
      <point x="163" y="289" type="curve" smooth="yes"/>
      <point x="163" y="467"/>
      <point x="173" y="702"/>
      <point x="172" y="694" type="curve"/>
      <point x="67" y="693" type="line"/>
      <point x="66" y="701"/>
      <point x="69" y="462"/>
      <point x="69" y="288" type="curve" smooth="yes"/>
      <point x="69" y="113"/>
      <point x="65" y="-142"/>
      <point x="66" y="-134" type="curve"/>
    </contour>
  </outline>
</glyph>
<glyph name="braceright" format="2">
  <advance width="407"/>
  <unicode hex="007D"/>
  <outline>
    <contour>
      <point x="161" y="-147" type="curve" smooth="yes"/>
      <point x="242" y="-147"/>
      <point x="289" y="-101"/>
      <point x="289" y="-7" type="curve" smooth="yes"/>
      <point x="289" y="50"/>
      <point x="257" y="150"/>
      <point x="257" y="199" type="curve" smooth="yes"/>
      <point x="257" y="232"/>
      <point x="297" y="260"/>
      <point x="355" y="250" type="curve"/>
      <point x="343" y="349" type="line"/>
      <point x="288" y="342"/>
      <point x="257" y="369"/>
      <point x="257" y="402" type="curve" smooth="yes"/>
      <point x="257" y="441"/>
      <point x="279" y="530"/>
      <point x="279" y="580" type="curve" smooth="yes"/>
      <point x="279" y="671"/>
      <point x="229" y="720"/>
      <point x="147" y="720" type="curve" smooth="yes"/>
      <point x="114" y="720"/>
      <point x="86" y="710"/>
      <point x="53" y="685" type="curve"/>
      <point x="77" y="595" type="line"/>
      <point x="96" y="616"/>
      <point x="124" y="629"/>
      <point x="145" y="629" type="curve" smooth="yes"/>
      <point x="169" y="629"/>
      <point x="180" y="614"/>
      <point x="180" y="571" type="curve" smooth="yes"/>
      <point x="180" y="548"/>
      <point x="159" y="422"/>
      <point x="159" y="386" type="curve" smooth="yes"/>
      <point x="159" y="355"/>
      <point x="167" y="318"/>
      <point x="222" y="294" type="curve"/>
      <point x="167" y="273"/>
      <point x="161" y="241"/>
      <point x="161" y="209" type="curve" smooth="yes"/>
      <point x="161" y="161"/>
      <point x="192" y="37"/>
      <point x="192" y="3" type="curve" smooth="yes"/>
      <point x="192" y="-40"/>
      <point x="180" y="-54"/>
      <point x="155" y="-54" type="curve" smooth="yes"/>
      <point x="137" y="-54"/>
      <point x="122" y="-45"/>
      <point x="97" y="-22" type="curve"/>
      <point x="67" y="-112" type="line"/>
      <point x="100" y="-137"/>
      <point x="128" y="-147"/>
    </contour>
  </outline>
</glyph>
<glyph name="asciitilde" format="2">
  <advance width="393"/>
  <unicode hex="007E"/>
  <outline>
    <contour>
      <point x="50" y="216" type="line"/>
      <point x="62" y="225"/>
      <point x="99" y="240"/>
      <point x="129" y="240" type="curve" smooth="yes"/>
      <point x="166" y="240"/>
      <point x="209" y="224"/>
      <point x="245" y="224" type="curve" smooth="yes"/>
      <point x="302" y="224"/>
      <point x="337" y="248"/>
      <point x="347" y="259" type="curve"/>
      <point x="344" y="353" type="line"/>
      <point x="317" y="331"/>
      <point x="288" y="317"/>
      <point x="239" y="317" type="curve" smooth="yes"/>
      <point x="202" y="317"/>
      <point x="187" y="334"/>
      <point x="134" y="334" type="curve" smooth="yes"/>
      <point x="91" y="334"/>
      <point x="67" y="318"/>
      <point x="46" y="304" type="curve"/>
    </contour>
  </outline>
</glyph>
<glyph name="exclamdown" format="2">
  <advance width="265"/>
  <unicode hex="00A1"/>
  <outline>
    <contour>
      <point x="65" y="-158" type="curve"/>
      <point x="199" y="-150" type="line"/>
      <point x="194" y="-44"/>
      <point x="190" y="1"/>
      <point x="187" y="70" type="curve" smooth="yes"/>
      <point x="184" y="141"/>
      <point x="180" y="214"/>
      <point x="176" y="323" type="curve"/>
      <point x="96" y="321" type="line"/>
      <point x="92" y="200"/>
      <point x="89" y="145"/>
      <point x="84" y="76" type="curve" smooth="yes"/>
      <point x="78" y="-9"/>
      <point x="76" y="-37"/>
    </contour>
    <contour>
      <point x="84" y="382" type="line"/>
      <point x="192" y="385" type="line"/>
      <point x="196" y="554" type="line"/>
      <point x="73" y="544" type="line"/>
    </contour>
  </outline>
</glyph>
<glyph name="sterling" format="2">
  <advance width="415"/>
  <unicode hex="00A3"/>
  <outline>
    <contour>
      <point x="149" y="56" type="line"/>
      <point x="196" y="69"/>
      <point x="236" y="120"/>
      <point x="236" y="188" type="curve" smooth="yes"/>
      <point x="236" y="326"/>
      <point x="161" y="377"/>
      <point x="161" y="508" type="curve" smooth="yes"/>
      <point x="161" y="578"/>
      <point x="183" y="610"/>
      <point x="218" y="610" type="curve" smooth="yes"/>
      <point x="257" y="610"/>
      <point x="271" y="574"/>
      <point x="271" y="526" type="curve" smooth="yes"/>
      <point x="271" y="490"/>
      <point x="263" y="446"/>
      <point x="252" y="405" type="curve"/>
      <point x="353" y="406" type="line"/>
      <point x="364" y="450"/>
      <point x="369" y="492"/>
      <point x="369" y="530" type="curve" smooth="yes"/>
      <point x="369" y="634"/>
      <point x="326" y="706"/>
      <point x="222" y="706" type="curve" smooth="yes"/>
      <point x="119" y="706"/>
      <point x="63" y="628"/>
      <point x="63" y="501" type="curve" smooth="yes"/>
      <point x="63" y="361"/>
      <point x="140" y="320"/>
      <point x="140" y="166" type="curve" smooth="yes"/>
      <point x="140" y="124"/>
      <point x="107" y="91"/>
      <point x="65" y="91" type="curve"/>
    </contour>
    <contour>
      <point x="78" y="-4" type="line"/>
      <point x="75" y="-4"/>
      <point x="152" y="0"/>
      <point x="222" y="0" type="curve" smooth="yes"/>
      <point x="280" y="0"/>
      <point x="356" y="-1"/>
      <point x="353" y="-1" type="curve"/>
      <point x="358" y="94" type="line"/>
      <point x="362" y="95"/>
      <point x="294" y="89"/>
      <point x="234" y="89" type="curve" smooth="yes"/>
      <point x="159" y="89"/>
      <point x="61" y="91"/>
      <point x="65" y="91" type="curve"/>
    </contour>
    <contour>
      <point x="52" y="237" type="line"/>
      <point x="52" y="237"/>
      <point x="123" y="244"/>
      <point x="195" y="244" type="curve" smooth="yes"/>
      <point x="269" y="244"/>
      <point x="309" y="241"/>
      <point x="309" y="241" type="curve"/>
      <point x="318" y="339" type="line"/>
      <point x="318" y="339"/>
      <point x="265" y="335"/>
      <point x="195" y="333" type="curve" smooth="yes"/>
      <point x="167" y="332"/>
      <point x="131" y="332"/>
      <point x="61" y="333" type="curve"/>
    </contour>
  </outline>
</glyph>
<glyph name="brokenbar" format="2">
  <advance width="239"/>
  <unicode hex="00A6"/>
  <outline>
    <contour>
      <point x="69" y="352" type="curve"/>
      <point x="163" y="352" type="line"/>
      <point x="165" y="518"/>
      <point x="173" y="701"/>
      <point x="172" y="694" type="curve"/>
      <point x="67" y="693" type="line"/>
      <point x="67" y="700"/>
      <point x="69" y="516"/>
    </contour>
    <contour>
      <point x="66" y="-134" type="curve"/>
      <point x="173" y="-136" type="line"/>
      <point x="174" y="-143"/>
      <point x="166" y="29"/>
      <point x="164" y="187" type="curve"/>
      <point x="69" y="187" type="line"/>
      <point x="66" y="47"/>
      <point x="65" y="-85"/>
    </contour>
  </outline>
</glyph>
<glyph name="section" format="2">
  <advance width="347"/>
  <unicode hex="00A7"/>
  <outline>
    <contour>
      <point x="174" y="701" type="curve" smooth="yes"/>
      <point x="84" y="701"/>
      <point x="34" y="639"/>
      <point x="34" y="553" type="curve" smooth="yes"/>
      <point x="34" y="451"/>
      <point x="76" y="435"/>
      <point x="162" y="348" type="curve" smooth="yes"/>
      <point x="204" y="311"/>
      <point x="213" y="289"/>
      <point x="213" y="271" type="curve" smooth="yes"/>
      <point x="213" y="238"/>
      <point x="208" y="211"/>
      <point x="169" y="224" type="curve"/>
      <point x="177" y="152" type="line"/>
      <point x="279" y="144"/>
      <point x="313" y="196"/>
      <point x="313" y="257" type="curve" smooth="yes"/>
      <point x="313" y="343"/>
      <point x="258" y="390"/>
      <point x="224" y="416" type="curve" smooth="yes"/>
      <point x="169" y="466"/>
      <point x="136" y="478"/>
      <point x="136" y="539" type="curve" smooth="yes"/>
      <point x="136" y="589"/>
      <point x="143" y="623"/>
      <point x="175" y="623" type="curve" smooth="yes"/>
      <point x="202" y="623"/>
      <point x="211" y="602"/>
      <point x="211" y="562" type="curve" smooth="yes"/>
      <point x="211" y="537"/>
      <point x="208" y="505"/>
      <point x="203" y="467" type="curve"/>
      <point x="305" y="467" type="line"/>
      <point x="310" y="498"/>
      <point x="312" y="527"/>
      <point x="312" y="553" type="curve" smooth="yes"/>
      <point x="312" y="642"/>
      <point x="280" y="701"/>
    </contour>
    <contour>
      <point x="172" y="-109" type="curve" smooth="yes"/>
      <point x="262" y="-109"/>
      <point x="313" y="-47"/>
      <point x="313" y="39" type="curve" smooth="yes"/>
      <point x="313" y="112"/>
      <point x="287" y="151"/>
      <point x="229" y="201" type="curve" smooth="yes"/>
      <point x="172" y="251"/>
      <point x="134" y="275"/>
      <point x="134" y="321" type="curve" smooth="yes"/>
      <point x="134" y="358"/>
      <point x="145" y="379"/>
      <point x="178" y="368" type="curve"/>
      <point x="170" y="440" type="line"/>
      <point x="68" y="448"/>
      <point x="34" y="393"/>
      <point x="34" y="333" type="curve" smooth="yes"/>
      <point x="34" y="246"/>
      <point x="71" y="216"/>
      <point x="138" y="158" type="curve" smooth="yes"/>
      <point x="175" y="126"/>
      <point x="211" y="94"/>
      <point x="211" y="53" type="curve" smooth="yes"/>
      <point x="211" y="4"/>
      <point x="202" y="-30"/>
      <point x="171" y="-30" type="curve" smooth="yes"/>
      <point x="145" y="-30"/>
      <point x="135" y="-11"/>
      <point x="135" y="28" type="curve" smooth="yes"/>
      <point x="135" y="52"/>
      <point x="139" y="85"/>
      <point x="144" y="125" type="curve"/>
      <point x="42" y="125" type="line"/>
      <point x="37" y="93"/>
      <point x="35" y="63"/>
      <point x="35" y="36" type="curve" smooth="yes"/>
      <point x="35" y="-54"/>
      <point x="67" y="-109"/>
    </contour>
  </outline>
</glyph>
<glyph name="dieresis" format="2">
  <advance width="355"/>
  <unicode hex="00A8"/>
  <anchor x="176" y="555" name="_top"/>
  <outline>
    <contour>
      <point x="305" y="624" type="line"/>
      <point x="304" y="726" type="line"/>
      <point x="205" y="723" type="line"/>
      <point x="209" y="629" type="line"/>
    </contour>
    <contour>
      <point x="148" y="624" type="line"/>
      <point x="147" y="726" type="line"/>
      <point x="48" y="723" type="line"/>
      <point x="52" y="629" type="line"/>
    </contour>
  </outline>
</glyph>
<glyph name="copyright" format="2">
  <advance width="608"/>
  <unicode hex="00A9"/>
  <outline>
    <contour>
      <point x="287" y="58" type="curve" smooth="yes"/>
      <point x="460" y="58"/>
      <point x="564" y="185"/>
      <point x="564" y="423" type="curve" smooth="yes"/>
      <point x="564" y="605"/>
      <point x="464" y="713"/>
      <point x="311" y="713" type="curve" smooth="yes"/>
      <point x="145" y="713"/>
      <point x="43" y="592"/>
      <point x="43" y="365" type="curve" smooth="yes"/>
      <point x="43" y="168"/>
      <point x="138" y="58"/>
    </contour>
    <contour>
      <point x="299" y="178" type="curve" smooth="yes"/>
      <point x="378" y="178"/>
      <point x="406" y="227"/>
      <point x="406" y="308" type="curve" smooth="yes"/>
      <point x="406" y="319"/>
      <point x="406" y="330"/>
      <point x="405" y="342" type="curve"/>
      <point x="322" y="341" type="line"/>
      <point x="323" y="325"/>
      <point x="323" y="312"/>
      <point x="323" y="300" type="curve" smooth="yes"/>
      <point x="323" y="262"/>
      <point x="318" y="244"/>
      <point x="300" y="244" type="curve" smooth="yes"/>
      <point x="286" y="244"/>
      <point x="282" y="260"/>
      <point x="279" y="289" type="curve" smooth="yes"/>
      <point x="277" y="312"/>
      <point x="278" y="343"/>
      <point x="278" y="382" type="curve" smooth="yes"/>
      <point x="278" y="424"/>
      <point x="277" y="458"/>
      <point x="279" y="482" type="curve" smooth="yes"/>
      <point x="281" y="510"/>
      <point x="287" y="526"/>
      <point x="302" y="526" type="curve" smooth="yes"/>
      <point x="316" y="526"/>
      <point x="321" y="510"/>
      <point x="321" y="484" type="curve" smooth="yes"/>
      <point x="321" y="459"/>
      <point x="316" y="426"/>
      <point x="313" y="391" type="curve"/>
      <point x="401" y="391" type="line"/>
      <point x="405" y="417"/>
      <point x="407" y="442"/>
      <point x="407" y="464" type="curve" smooth="yes"/>
      <point x="407" y="541"/>
      <point x="382" y="593"/>
      <point x="311" y="593" type="curve" smooth="yes"/>
      <point x="244" y="593"/>
      <point x="214" y="562"/>
      <point x="199" y="508" type="curve" smooth="yes"/>
      <point x="190" y="475"/>
      <point x="189" y="433"/>
      <point x="189" y="384" type="curve" smooth="yes"/>
      <point x="189" y="331"/>
      <point x="190" y="284"/>
      <point x="201" y="249" type="curve" smooth="yes"/>
      <point x="215" y="204"/>
      <point x="242" y="178"/>
    </contour>
    <contour>
      <point x="292" y="123" type="curve" smooth="yes"/>
      <point x="183" y="123"/>
      <point x="132" y="188"/>
      <point x="132" y="383" type="curve" smooth="yes"/>
      <point x="132" y="486"/>
      <point x="156" y="642"/>
      <point x="307" y="642" type="curve" smooth="yes"/>
      <point x="419" y="642"/>
      <point x="470" y="585"/>
      <point x="470" y="399" type="curve" smooth="yes"/>
      <point x="470" y="217"/>
      <point x="398" y="123"/>
    </contour>
  </outline>
</glyph>
<glyph name="ordfeminine" format="2">
  <advance width="347"/>
  <unicode hex="00AA"/>
  <outline>
    <contour>
      <point x="63" y="528" type="curve" smooth="yes"/>
      <point x="63" y="508"/>
      <point x="76" y="472"/>
      <point x="123" y="472" type="curve" smooth="yes"/>
      <point x="153" y="472"/>
      <point x="178" y="484"/>
      <point x="195" y="509" type="curve"/>
      <point x="201" y="494"/>
      <point x="208" y="482"/>
      <point x="223" y="472" type="curve"/>
      <point x="285" y="500" type="line"/>
      <point x="272" y="511"/>
      <point x="268" y="531"/>
      <point x="268" y="545" type="curve" smooth="yes"/>
      <point x="268" y="624" type="line" smooth="yes"/>
      <point x="269" y="679"/>
      <point x="227" y="703"/>
      <point x="172" y="703" type="curve" smooth="yes"/>
      <point x="107" y="703"/>
      <point x="66" y="672"/>
      <point x="69" y="625" type="curve"/>
      <point x="144" y="620" type="line"/>
      <point x="140" y="636"/>
      <point x="144" y="653"/>
      <point x="167" y="653" type="curve" smooth="yes"/>
      <point x="184" y="653"/>
      <point x="192" y="645"/>
      <point x="192" y="633" type="curve" smooth="yes"/>
      <point x="192" y="615"/>
      <point x="173" y="611"/>
      <point x="139" y="598" type="curve" smooth="yes"/>
      <point x="105" y="585"/>
      <point x="63" y="573"/>
    </contour>
    <contour>
      <point x="135" y="539" type="curve" smooth="yes"/>
      <point x="135" y="549"/>
      <point x="144" y="554"/>
      <point x="155" y="559" type="curve" smooth="yes"/>
      <point x="167" y="565"/>
      <point x="181" y="570"/>
      <point x="191" y="578" type="curve"/>
      <point x="191" y="566" type="line" smooth="yes"/>
      <point x="191" y="541"/>
      <point x="170" y="524"/>
      <point x="151" y="524" type="curve" smooth="yes"/>
      <point x="142" y="524"/>
      <point x="135" y="529"/>
    </contour>
  </outline>
</glyph>
<glyph name="guillemetleft" format="2">
  <advance width="562"/>
  <unicode hex="00AB"/>
  <outline>
    <contour>
      <point x="58" y="215" type="line"/>
      <point x="117" y="263"/>
      <point x="159" y="293"/>
      <point x="198" y="326" type="curve" smooth="yes"/>
      <point x="242" y="365"/>
      <point x="301" y="402"/>
      <point x="299" y="400" type="curve"/>
      <point x="246" y="497" type="line"/>
      <point x="249" y="500"/>
      <point x="194" y="439"/>
      <point x="153" y="402" type="curve" smooth="yes"/>
      <point x="113" y="364"/>
      <point x="57" y="319"/>
      <point x="59" y="321" type="curve"/>
    </contour>
    <contour>
      <point x="244" y="31" type="curve"/>
      <point x="298" y="126" type="line"/>
      <point x="301" y="125"/>
      <point x="238" y="163"/>
      <point x="195" y="204" type="curve" smooth="yes"/>
      <point x="153" y="242"/>
      <point x="115" y="272"/>
      <point x="59" y="321" type="curve"/>
      <point x="58" y="215" type="line"/>
      <point x="56" y="216"/>
      <point x="111" y="168"/>
      <point x="151" y="130" type="curve" smooth="yes"/>
      <point x="189" y="93"/>
      <point x="246" y="28"/>
    </contour>
    <contour>
      <point x="258" y="215" type="line"/>
      <point x="318" y="263"/>
      <point x="359" y="293"/>
      <point x="398" y="326" type="curve" smooth="yes"/>
      <point x="443" y="364"/>
      <point x="501" y="402"/>
      <point x="499" y="400" type="curve"/>
      <point x="446" y="497" type="line"/>
      <point x="449" y="500"/>
      <point x="394" y="439"/>
      <point x="353" y="402" type="curve" smooth="yes"/>
      <point x="313" y="364"/>
      <point x="257" y="319"/>
      <point x="259" y="321" type="curve"/>
    </contour>
    <contour>
      <point x="444" y="31" type="curve"/>
      <point x="498" y="126" type="line"/>
      <point x="501" y="125"/>
      <point x="440" y="165"/>
      <point x="395" y="204" type="curve" smooth="yes"/>
      <point x="352" y="240"/>
      <point x="315" y="272"/>
      <point x="259" y="321" type="curve"/>
      <point x="258" y="215" type="line"/>
      <point x="256" y="216"/>
      <point x="311" y="168"/>
      <point x="351" y="130" type="curve" smooth="yes"/>
      <point x="389" y="93"/>
      <point x="446" y="28"/>
    </contour>
  </outline>
</glyph>
<glyph name="registered" format="2">
  <advance width="470"/>
  <unicode hex="00AE"/>
  <outline>
    <contour>
      <point x="218" y="222" type="curve" smooth="yes"/>
      <point x="347" y="222"/>
      <point x="429" y="317"/>
      <point x="429" y="495" type="curve" smooth="yes"/>
      <point x="429" y="631"/>
      <point x="359" y="712"/>
      <point x="246" y="712" type="curve" smooth="yes"/>
      <point x="120" y="712"/>
      <point x="41" y="621"/>
      <point x="41" y="453" type="curve" smooth="yes"/>
      <point x="41" y="305"/>
      <point x="107" y="222"/>
    </contour>
    <contour>
      <point x="232" y="276" type="curve" smooth="yes"/>
      <point x="154" y="276"/>
      <point x="110" y="324"/>
      <point x="110" y="465" type="curve" smooth="yes"/>
      <point x="110" y="541"/>
      <point x="121" y="653"/>
      <point x="231" y="653" type="curve" smooth="yes"/>
      <point x="312" y="653"/>
      <point x="355" y="613"/>
      <point x="355" y="476" type="curve" smooth="yes"/>
      <point x="355" y="345"/>
      <point x="309" y="276"/>
    </contour>
    <contour>
      <point x="253" y="320" type="curve"/>
      <point x="313" y="325" type="line"/>
      <point x="299" y="365"/>
      <point x="286" y="401"/>
      <point x="276" y="437" type="curve"/>
      <point x="289" y="455"/>
      <point x="294" y="480"/>
      <point x="294" y="515" type="curve" smooth="yes"/>
      <point x="294" y="588"/>
      <point x="283" y="618"/>
      <point x="237" y="618" type="curve" smooth="yes"/>
      <point x="229" y="618"/>
      <point x="187" y="617"/>
      <point x="168" y="616" type="curve"/>
      <point x="169" y="583"/>
      <point x="171" y="495"/>
      <point x="171" y="470" type="curve" smooth="yes"/>
      <point x="171" y="398"/>
      <point x="170" y="357"/>
      <point x="170" y="322" type="curve"/>
      <point x="228" y="322" type="line"/>
      <point x="226" y="360"/>
      <point x="224" y="386"/>
      <point x="223" y="409" type="curve"/>
      <point x="226" y="410"/>
      <point x="234" y="411"/>
      <point x="236" y="412" type="curve"/>
      <point x="243" y="381"/>
      <point x="249" y="348"/>
    </contour>
    <contour>
      <point x="222" y="450" type="curve"/>
      <point x="222" y="457"/>
      <point x="221" y="464"/>
      <point x="221" y="471" type="curve" smooth="yes"/>
      <point x="220" y="505"/>
      <point x="221" y="549"/>
      <point x="221" y="579" type="curve"/>
      <point x="224" y="579"/>
      <point x="226" y="579"/>
      <point x="229" y="579" type="curve" smooth="yes"/>
      <point x="236" y="579"/>
      <point x="244" y="579"/>
      <point x="244" y="513" type="curve" smooth="yes"/>
      <point x="244" y="456"/>
      <point x="239" y="454"/>
    </contour>
  </outline>
</glyph>
<glyph name="macron" format="2">
  <advance width="306"/>
  <unicode hex="00AF"/>
  <anchor x="153" y="555" name="_top"/>
  <outline>
    <contour>
      <point x="59" y="630" type="line"/>
      <point x="247" y="633" type="line"/>
      <point x="243" y="712" type="line"/>
      <point x="59" y="715" type="line"/>
    </contour>
  </outline>
</glyph>
<glyph name="degree" format="2">
  <advance width="347"/>
  <unicode hex="00B0"/>
  <outline>
    <contour>
      <point x="176" y="494" type="curve"/>
      <point x="243" y="494"/>
      <point x="290" y="542"/>
      <point x="290" y="609" type="curve" smooth="yes"/>
      <point x="290" y="668"/>
      <point x="243" y="710"/>
      <point x="173" y="710" type="curve"/>
      <point x="102" y="710"/>
      <point x="57" y="664"/>
      <point x="57" y="593" type="curve" smooth="yes"/>
      <point x="57" y="574"/>
      <point x="61" y="494"/>
    </contour>
    <contour>
      <point x="174" y="541" type="curve" smooth="yes"/>
      <point x="121" y="541"/>
      <point x="113" y="574"/>
      <point x="113" y="603" type="curve" smooth="yes"/>
      <point x="113" y="633"/>
      <point x="135" y="663"/>
      <point x="173" y="663" type="curve" smooth="yes"/>
      <point x="201" y="663"/>
      <point x="234" y="648"/>
      <point x="234" y="606" type="curve" smooth="yes"/>
      <point x="234" y="568"/>
      <point x="213" y="541"/>
    </contour>
  </outline>
</glyph>
<glyph name="plusminus" format="2">
  <advance width="395"/>
  <unicode hex="00B1"/>
  <outline>
    <contour>
      <point x="251" y="235" type="line"/>
      <point x="252" y="230"/>
      <point x="242" y="312"/>
      <point x="242" y="379" type="curve" smooth="yes"/>
      <point x="242" y="449"/>
      <point x="250" y="520"/>
      <point x="249" y="517" type="curve"/>
      <point x="140" y="513" type="line"/>
      <point x="140" y="517"/>
      <point x="144" y="444"/>
      <point x="145" y="378" type="curve" smooth="yes"/>
      <point x="146" y="315"/>
      <point x="140" y="225"/>
      <point x="141" y="229" type="curve"/>
    </contour>
    <contour>
      <point x="54" y="85" type="line"/>
      <point x="50" y="85"/>
      <point x="145" y="89"/>
      <point x="198" y="89" type="curve" smooth="yes"/>
      <point x="254" y="89"/>
      <point x="340" y="88"/>
      <point x="336" y="88" type="curve"/>
      <point x="340" y="192" type="line"/>
      <point x="344" y="192"/>
      <point x="249" y="189"/>
      <point x="190" y="187" type="curve" smooth="yes"/>
      <point x="132" y="185"/>
      <point x="46" y="189"/>
      <point x="50" y="189" type="curve"/>
    </contour>
    <contour>
      <point x="49" y="315" type="line"/>
      <point x="44" y="315"/>
      <point x="146" y="321"/>
      <point x="207" y="321" type="curve" smooth="yes"/>
      <point x="268" y="321"/>
      <point x="330" y="316"/>
      <point x="327" y="316" type="curve"/>
      <point x="344" y="422" type="line"/>
      <point x="348" y="422"/>
      <point x="264" y="419"/>
      <point x="206" y="418" type="curve" smooth="yes"/>
      <point x="150" y="416"/>
      <point x="50" y="419"/>
      <point x="55" y="419" type="curve"/>
    </contour>
  </outline>
</glyph>
<glyph name="twosuperior" format="2">
  <advance width="245"/>
  <unicode hex="00B2"/>
  <outline>
    <contour>
      <point x="108" y="592" type="line"/>
      <point x="172" y="625"/>
      <point x="207" y="671"/>
      <point x="207" y="727" type="curve" smooth="yes"/>
      <point x="207" y="774"/>
      <point x="176" y="805"/>
      <point x="121" y="805" type="curve" smooth="yes"/>
      <point x="62" y="805"/>
      <point x="33" y="771"/>
      <point x="33" y="722" type="curve" smooth="yes"/>
      <point x="33" y="714"/>
      <point x="34" y="704"/>
      <point x="36" y="695" type="curve"/>
      <point x="106" y="698" type="line"/>
      <point x="104" y="705"/>
      <point x="102" y="713"/>
      <point x="102" y="721" type="curve" smooth="yes"/>
      <point x="102" y="733"/>
      <point x="106" y="743"/>
      <point x="116" y="743" type="curve" smooth="yes"/>
      <point x="127" y="743"/>
      <point x="132" y="732"/>
      <point x="132" y="717" type="curve" smooth="yes"/>
      <point x="132" y="659"/>
      <point x="89" y="645"/>
      <point x="31" y="612" type="curve"/>
    </contour>
    <contour>
      <point x="30" y="556" type="line"/>
      <point x="78" y="556"/>
      <point x="99" y="555"/>
      <point x="121" y="555" type="curve" smooth="yes"/>
      <point x="149" y="555"/>
      <point x="153" y="555"/>
      <point x="211" y="554" type="curve"/>
      <point x="210" y="614" type="line"/>
      <point x="197" y="613"/>
      <point x="164" y="612"/>
      <point x="126" y="612" type="curve" smooth="yes"/>
      <point x="103" y="612"/>
      <point x="49" y="612"/>
      <point x="31" y="612" type="curve"/>
    </contour>
  </outline>
</glyph>
<glyph name="threesuperior" format="2">
  <advance width="245"/>
  <unicode hex="00B3"/>
  <outline>
    <contour>
      <point x="115" y="560" type="curve" smooth="yes"/>
      <point x="168" y="560"/>
      <point x="206" y="584"/>
      <point x="206" y="626" type="curve" smooth="yes"/>
      <point x="206" y="650"/>
      <point x="192" y="665"/>
      <point x="174" y="668" type="curve"/>
      <point x="194" y="680"/>
      <point x="210" y="702"/>
      <point x="210" y="729" type="curve" smooth="yes"/>
      <point x="210" y="780"/>
      <point x="178" y="806"/>
      <point x="123" y="806" type="curve" smooth="yes"/>
      <point x="75" y="806"/>
      <point x="38" y="777"/>
      <point x="38" y="729" type="curve" smooth="yes"/>
      <point x="38" y="721"/>
      <point x="39" y="713"/>
      <point x="41" y="705" type="curve"/>
      <point x="111" y="709" type="line"/>
      <point x="109" y="714"/>
      <point x="108" y="721"/>
      <point x="108" y="728" type="curve" smooth="yes"/>
      <point x="108" y="739"/>
      <point x="111" y="749"/>
      <point x="121" y="749" type="curve" smooth="yes"/>
      <point x="133" y="749"/>
      <point x="136" y="740"/>
      <point x="136" y="722" type="curve" smooth="yes"/>
      <point x="136" y="694"/>
      <point x="127" y="684"/>
      <point x="108" y="684" type="curve" smooth="yes"/>
      <point x="93" y="684"/>
      <point x="90" y="684"/>
      <point x="84" y="685" type="curve"/>
      <point x="84" y="646" type="line"/>
      <point x="104" y="646"/>
      <point x="100" y="646"/>
      <point x="110" y="646" type="curve" smooth="yes"/>
      <point x="119" y="646"/>
      <point x="126" y="643"/>
      <point x="126" y="630" type="curve" smooth="yes"/>
      <point x="126" y="624"/>
      <point x="126" y="612"/>
      <point x="114" y="612" type="curve" smooth="yes"/>
      <point x="104" y="612"/>
      <point x="104" y="622"/>
      <point x="104" y="629" type="curve"/>
      <point x="34" y="629" type="line"/>
      <point x="35" y="573"/>
      <point x="66" y="560"/>
    </contour>
  </outline>
</glyph>
<glyph name="paragraph" format="2">
  <advance width="501"/>
  <unicode hex="00B6"/>
  <outline>
    <contour>
      <point x="269" y="193" type="curve"/>
      <point x="318" y="710" type="line"/>
      <point x="280" y="714"/>
      <point x="248" y="715"/>
      <point x="203" y="715" type="curve" smooth="yes"/>
      <point x="78" y="715"/>
      <point x="34" y="632"/>
      <point x="34" y="450" type="curve" smooth="yes"/>
      <point x="34" y="264"/>
      <point x="93" y="187"/>
    </contour>
    <contour>
      <point x="218" y="-113" type="curve"/>
      <point x="315" y="-100" type="line"/>
      <point x="314" y="62"/>
      <point x="315" y="183"/>
      <point x="315" y="357" type="curve" smooth="yes"/>
      <point x="315" y="532"/>
      <point x="318" y="717"/>
      <point x="318" y="710" type="curve"/>
      <point x="222" y="703" type="line"/>
      <point x="222" y="710"/>
      <point x="228" y="477"/>
      <point x="228" y="359" type="curve" smooth="yes"/>
      <point x="228" y="321"/>
      <point x="225" y="101"/>
    </contour>
    <contour>
      <point x="365" y="-113" type="curve"/>
      <point x="458" y="-100" type="line" smooth="yes"/>
      <point x="466" y="-99"/>
      <point x="454" y="183"/>
      <point x="454" y="357" type="curve" smooth="yes"/>
      <point x="454" y="532"/>
      <point x="464" y="711"/>
      <point x="457" y="710" type="curve" smooth="yes"/>
      <point x="368" y="703" type="line"/>
      <point x="368" y="538"/>
      <point x="367" y="509"/>
      <point x="367" y="359" type="curve" smooth="yes"/>
      <point x="367" y="277"/>
      <point x="370" y="114"/>
    </contour>
  </outline>
</glyph>
<glyph name="periodcentered" format="2">
  <advance width="251"/>
  <unicode hex="00B7"/>
  <outline>
    <contour>
      <point x="185" y="217" type="line"/>
      <point x="183" y="393" type="line"/>
      <point x="65" y="385" type="line"/>
      <point x="69" y="219" type="line"/>
    </contour>
  </outline>
</glyph>
<glyph name="onesuperior" format="2">
  <advance width="245"/>
  <unicode hex="00B9"/>
  <outline>
    <contour>
      <point x="95" y="567" type="curve"/>
      <point x="183" y="567" type="line"/>
      <point x="180" y="662"/>
      <point x="180" y="717"/>
      <point x="184" y="801" type="curve"/>
      <point x="131" y="801" type="line"/>
      <point x="98" y="736" type="line"/>
      <point x="100" y="671"/>
      <point x="99" y="623"/>
    </contour>
    <contour>
      <point x="46" y="700" type="line"/>
      <point x="75" y="696"/>
      <point x="122" y="704"/>
      <point x="156" y="720" type="curve"/>
      <point x="131" y="801" type="line"/>
      <point x="111" y="773"/>
      <point x="61" y="751"/>
      <point x="40" y="754" type="curve"/>
    </contour>
  </outline>
</glyph>
<glyph name="ordmasculine" format="2">
  <advance width="332"/>
  <unicode hex="00BA"/>
  <outline>
    <contour>
      <point x="164" y="469" type="curve" smooth="yes"/>
      <point x="235" y="469"/>
      <point x="273" y="510"/>
      <point x="273" y="590" type="curve" smooth="yes"/>
      <point x="273" y="667"/>
      <point x="238" y="703"/>
      <point x="169" y="703" type="curve" smooth="yes"/>
      <point x="97" y="703"/>
      <point x="59" y="660"/>
      <point x="59" y="590" type="curve" smooth="yes"/>
      <point x="59" y="513"/>
      <point x="94" y="469"/>
    </contour>
    <contour>
      <point x="165" y="528" type="curve" smooth="yes"/>
      <point x="142" y="528"/>
      <point x="137" y="555"/>
      <point x="137" y="589" type="curve" smooth="yes"/>
      <point x="137" y="629"/>
      <point x="147" y="647"/>
      <point x="168" y="647" type="curve" smooth="yes"/>
      <point x="187" y="647"/>
      <point x="195" y="629"/>
      <point x="195" y="593" type="curve" smooth="yes"/>
      <point x="195" y="541"/>
      <point x="183" y="528"/>
    </contour>
  </outline>
</glyph>
<glyph name="guillemetright" format="2">
  <advance width="562"/>
  <unicode hex="00BB"/>
  <outline>
    <contour>
      <point x="498" y="207" type="curve"/>
      <point x="500" y="313" type="line"/>
      <point x="469" y="341"/>
      <point x="438" y="370"/>
      <point x="407" y="398" type="curve"/>
      <point x="376" y="431"/>
      <point x="345" y="464"/>
      <point x="314" y="497" type="curve"/>
      <point x="259" y="402" type="line"/>
      <point x="294" y="376"/>
      <point x="328" y="350"/>
      <point x="363" y="324" type="curve"/>
      <point x="408" y="285"/>
      <point x="453" y="246"/>
    </contour>
    <contour>
      <point x="298" y="207" type="curve"/>
      <point x="300" y="313" type="line"/>
      <point x="269" y="341"/>
      <point x="238" y="370"/>
      <point x="207" y="398" type="curve"/>
      <point x="176" y="431"/>
      <point x="145" y="464"/>
      <point x="114" y="497" type="curve"/>
      <point x="59" y="402" type="line"/>
      <point x="94" y="376"/>
      <point x="128" y="350"/>
      <point x="163" y="324" type="curve"/>
      <point x="208" y="285"/>
      <point x="253" y="246"/>
    </contour>
    <contour>
      <point x="312" y="31" type="line"/>
      <point x="343" y="63"/>
      <point x="373" y="94"/>
      <point x="404" y="126" type="curve"/>
      <point x="435" y="153"/>
      <point x="467" y="180"/>
      <point x="498" y="207" type="curve"/>
      <point x="500" y="313" type="line"/>
      <point x="453" y="276"/>
      <point x="407" y="239"/>
      <point x="360" y="202" type="curve"/>
      <point x="326" y="177"/>
      <point x="293" y="153"/>
      <point x="259" y="128" type="curve"/>
    </contour>
    <contour>
      <point x="112" y="31" type="line"/>
      <point x="143" y="63"/>
      <point x="173" y="94"/>
      <point x="204" y="126" type="curve"/>
      <point x="235" y="153"/>
      <point x="267" y="180"/>
      <point x="298" y="207" type="curve"/>
      <point x="300" y="313" type="line"/>
      <point x="253" y="276"/>
      <point x="207" y="239"/>
      <point x="160" y="202" type="curve"/>
      <point x="126" y="177"/>
      <point x="93" y="153"/>
      <point x="59" y="128" type="curve"/>
    </contour>
  </outline>
</glyph>
<glyph name="onequarter" format="2">
  <advance width="556"/>
  <unicode hex="00BC"/>
  <outline>
    <contour>
      <point x="62" y="-1" type="curve"/>
      <point x="177" y="0" type="line"/>
      <point x="214" y="87"/>
      <point x="279" y="239"/>
      <point x="324" y="340" type="curve" smooth="yes"/>
      <point x="371" y="445"/>
      <point x="444" y="604"/>
      <point x="486" y="695" type="curve"/>
      <point x="370" y="697" type="line"/>
      <point x="334" y="606"/>
      <point x="268" y="446"/>
      <point x="220" y="339" type="curve" smooth="yes"/>
      <point x="174" y="237"/>
      <point x="103" y="85"/>
    </contour>
    <contour>
      <point x="118" y="461" type="curve"/>
      <point x="206" y="461" type="line"/>
      <point x="203" y="556"/>
      <point x="203" y="611"/>
      <point x="207" y="695" type="curve"/>
      <point x="154" y="695" type="line"/>
      <point x="134" y="667"/>
      <point x="84" y="645"/>
      <point x="63" y="648" type="curve"/>
      <point x="69" y="594" type="line"/>
      <point x="84" y="592"/>
      <point x="103" y="593"/>
      <point x="123" y="597" type="curve"/>
      <point x="124" y="548"/>
      <point x="122" y="507"/>
    </contour>
    <contour>
      <point x="387" y="-1" type="line"/>
      <point x="463" y="0" type="line"/>
      <point x="463" y="40" type="line"/>
      <point x="485" y="40" type="line"/>
      <point x="485" y="100" type="line"/>
      <point x="462" y="99" type="line"/>
      <point x="462" y="144" type="line" smooth="yes"/>
      <point x="462" y="174"/>
      <point x="463" y="205"/>
      <point x="463" y="235" type="curve"/>
      <point x="344" y="236" type="line"/>
      <point x="335" y="213"/>
      <point x="325" y="190"/>
      <point x="316" y="167" type="curve" smooth="yes"/>
      <point x="287" y="98" type="line"/>
      <point x="292" y="39" type="line"/>
      <point x="387" y="40" type="line"/>
    </contour>
    <contour>
      <point x="357" y="97" type="line"/>
      <point x="388" y="183" type="line"/>
      <point x="388" y="97" type="line"/>
    </contour>
  </outline>
</glyph>
<glyph name="onehalf" format="2">
  <advance width="556"/>
  <unicode hex="00BD"/>
  <outline>
    <contour>
      <point x="61" y="-1" type="curve"/>
      <point x="176" y="0" type="line"/>
      <point x="213" y="87"/>
      <point x="278" y="239"/>
      <point x="323" y="340" type="curve" smooth="yes"/>
      <point x="370" y="445"/>
      <point x="443" y="604"/>
      <point x="485" y="695" type="curve"/>
      <point x="369" y="697" type="line"/>
      <point x="333" y="606"/>
      <point x="267" y="446"/>
      <point x="219" y="339" type="curve" smooth="yes"/>
      <point x="173" y="237"/>
      <point x="102" y="85"/>
    </contour>
    <contour>
      <point x="309" y="2" type="line"/>
      <point x="357" y="2"/>
      <point x="378" y="1"/>
      <point x="400" y="1" type="curve" smooth="yes"/>
      <point x="490" y="0" type="line"/>
      <point x="489" y="60" type="line"/>
      <point x="478" y="59"/>
      <point x="452" y="58"/>
      <point x="420" y="58" type="curve"/>
      <point x="463" y="89"/>
      <point x="486" y="128"/>
      <point x="486" y="173" type="curve" smooth="yes"/>
      <point x="486" y="220"/>
      <point x="455" y="251"/>
      <point x="400" y="251" type="curve" smooth="yes"/>
      <point x="341" y="251"/>
      <point x="312" y="217"/>
      <point x="312" y="168" type="curve" smooth="yes"/>
      <point x="312" y="160"/>
      <point x="313" y="150"/>
      <point x="315" y="141" type="curve"/>
      <point x="385" y="144" type="line"/>
      <point x="383" y="151"/>
      <point x="381" y="159"/>
      <point x="381" y="167" type="curve" smooth="yes"/>
      <point x="381" y="179"/>
      <point x="385" y="189"/>
      <point x="395" y="189" type="curve" smooth="yes"/>
      <point x="406" y="189"/>
      <point x="411" y="178"/>
      <point x="411" y="163" type="curve" smooth="yes"/>
      <point x="411" y="105"/>
      <point x="368" y="91"/>
      <point x="310" y="58" type="curve"/>
    </contour>
    <contour>
      <point x="117" y="461" type="curve"/>
      <point x="205" y="461" type="line"/>
      <point x="202" y="556"/>
      <point x="202" y="611"/>
      <point x="206" y="695" type="curve"/>
      <point x="153" y="695" type="line"/>
      <point x="133" y="667"/>
      <point x="83" y="645"/>
      <point x="62" y="648" type="curve"/>
      <point x="68" y="594" type="line"/>
      <point x="82" y="592"/>
      <point x="101" y="593"/>
      <point x="121" y="596" type="curve"/>
      <point x="123" y="547"/>
      <point x="121" y="507"/>
    </contour>
  </outline>
</glyph>
<glyph name="threequarters" format="2">
  <advance width="556"/>
  <unicode hex="00BE"/>
  <outline>
    <contour>
      <point x="62" y="-1" type="curve"/>
      <point x="177" y="0" type="line"/>
      <point x="214" y="87"/>
      <point x="279" y="239"/>
      <point x="324" y="340" type="curve" smooth="yes"/>
      <point x="371" y="445"/>
      <point x="444" y="604"/>
      <point x="486" y="695" type="curve"/>
      <point x="370" y="697" type="line"/>
      <point x="334" y="606"/>
      <point x="268" y="446"/>
      <point x="220" y="339" type="curve" smooth="yes"/>
      <point x="174" y="237"/>
      <point x="103" y="85"/>
    </contour>
    <contour>
      <point x="145" y="454" type="curve" smooth="yes"/>
      <point x="198" y="454"/>
      <point x="236" y="478"/>
      <point x="236" y="520" type="curve" smooth="yes"/>
      <point x="236" y="544"/>
      <point x="222" y="559"/>
      <point x="204" y="562" type="curve"/>
      <point x="224" y="574"/>
      <point x="240" y="596"/>
      <point x="240" y="623" type="curve" smooth="yes"/>
      <point x="240" y="674"/>
      <point x="208" y="700"/>
      <point x="153" y="700" type="curve" smooth="yes"/>
      <point x="105" y="700"/>
      <point x="68" y="671"/>
      <point x="68" y="623" type="curve" smooth="yes"/>
      <point x="68" y="615"/>
      <point x="69" y="607"/>
      <point x="71" y="599" type="curve"/>
      <point x="141" y="603" type="line"/>
      <point x="139" y="608"/>
      <point x="138" y="615"/>
      <point x="138" y="622" type="curve" smooth="yes"/>
      <point x="138" y="633"/>
      <point x="141" y="643"/>
      <point x="151" y="643" type="curve" smooth="yes"/>
      <point x="163" y="643"/>
      <point x="166" y="634"/>
      <point x="166" y="616" type="curve" smooth="yes"/>
      <point x="166" y="588"/>
      <point x="157" y="578"/>
      <point x="138" y="578" type="curve" smooth="yes"/>
      <point x="123" y="578"/>
      <point x="120" y="578"/>
      <point x="114" y="579" type="curve"/>
      <point x="114" y="540" type="line"/>
      <point x="134" y="540"/>
      <point x="130" y="540"/>
      <point x="140" y="540" type="curve" smooth="yes"/>
      <point x="149" y="540"/>
      <point x="156" y="537"/>
      <point x="156" y="524" type="curve" smooth="yes"/>
      <point x="156" y="518"/>
      <point x="156" y="506"/>
      <point x="144" y="506" type="curve" smooth="yes"/>
      <point x="134" y="506"/>
      <point x="134" y="516"/>
      <point x="134" y="523" type="curve"/>
      <point x="64" y="523" type="line"/>
      <point x="65" y="467"/>
      <point x="96" y="454"/>
    </contour>
    <contour>
      <point x="387" y="-1" type="line"/>
      <point x="463" y="0" type="line"/>
      <point x="463" y="40" type="line"/>
      <point x="485" y="40" type="line"/>
      <point x="485" y="100" type="line"/>
      <point x="462" y="99" type="line"/>
      <point x="462" y="144" type="line" smooth="yes"/>
      <point x="462" y="174"/>
      <point x="463" y="205"/>
      <point x="463" y="235" type="curve"/>
      <point x="344" y="236" type="line"/>
      <point x="335" y="213"/>
      <point x="325" y="190"/>
      <point x="316" y="167" type="curve" smooth="yes"/>
      <point x="287" y="98" type="line"/>
      <point x="292" y="39" type="line"/>
      <point x="387" y="40" type="line"/>
    </contour>
    <contour>
      <point x="357" y="97" type="line"/>
      <point x="388" y="183" type="line"/>
      <point x="388" y="97" type="line"/>
    </contour>
  </outline>
</glyph>
<glyph name="questiondown" format="2">
  <advance width="415"/>
  <unicode hex="00BF"/>
  <outline>
    <contour>
      <point x="157" y="339" type="line"/>
      <point x="163" y="306"/>
      <point x="169" y="282"/>
      <point x="169" y="266" type="curve" smooth="yes"/>
      <point x="169" y="246"/>
      <point x="164" y="228"/>
      <point x="132" y="190" type="curve" smooth="yes"/>
      <point x="98" y="149"/>
      <point x="56" y="113"/>
      <point x="56" y="-6" type="curve" smooth="yes"/>
      <point x="56" y="-104"/>
      <point x="114" y="-162"/>
      <point x="199" y="-162" type="curve" smooth="yes"/>
      <point x="321" y="-162"/>
      <point x="360" y="-69"/>
      <point x="360" y="17" type="curve" smooth="yes"/>
      <point x="360" y="48"/>
      <point x="355" y="82"/>
      <point x="344" y="120" type="curve"/>
      <point x="241" y="122" type="line"/>
      <point x="250" y="79"/>
      <point x="257" y="39"/>
      <point x="257" y="9" type="curve" smooth="yes"/>
      <point x="257" y="-27"/>
      <point x="246" y="-62"/>
      <point x="205" y="-62" type="curve" smooth="yes"/>
      <point x="184" y="-62"/>
      <point x="159" y="-44"/>
      <point x="159" y="-3" type="curve" smooth="yes"/>
      <point x="159" y="79"/>
      <point x="191" y="101"/>
      <point x="223" y="142" type="curve" smooth="yes"/>
      <point x="261" y="190"/>
      <point x="272" y="227"/>
      <point x="272" y="267" type="curve" smooth="yes"/>
      <point x="272" y="286"/>
      <point x="269" y="306"/>
      <point x="261" y="338" type="curve"/>
    </contour>
    <contour>
      <point x="266" y="557" type="line"/>
      <point x="145" y="552" type="line"/>
      <point x="149" y="390" type="line"/>
      <point x="258" y="387" type="line"/>
    </contour>
  </outline>
</glyph>
<glyph name="AE" format="2">
  <advance width="498"/>
  <unicode hex="00C6"/>
  <anchor x="326" y="693" name="top"/>
  <outline>
    <contour>
      <point x="-30" y="1" type="curve"/>
      <point x="84" y="0" type="line"/>
      <point x="98" y="54"/>
      <point x="104" y="79"/>
      <point x="118" y="126" type="curve"/>
      <point x="245" y="132" type="line"/>
      <point x="243" y="-6" type="line"/>
      <point x="497" y="-1" type="line"/>
      <point x="491" y="75" type="line"/>
      <point x="352" y="79" type="line"/>
      <point x="352" y="189" type="line"/>
      <point x="492" y="192" type="line"/>
      <point x="494" y="282" type="line"/>
      <point x="350" y="283" type="line"/>
      <point x="351" y="341" type="line" smooth="yes"/>
      <point x="352" y="413"/>
      <point x="352" y="530"/>
      <point x="353" y="609" type="curve"/>
      <point x="485" y="610" type="line"/>
      <point x="486" y="694" type="line"/>
      <point x="180" y="702" type="line"/>
      <point x="164" y="641"/>
      <point x="126" y="506"/>
      <point x="82" y="356" type="curve" smooth="yes"/>
      <point x="30" y="180"/>
      <point x="13" y="127"/>
    </contour>
    <contour>
      <point x="246" y="222" type="line"/>
      <point x="146" y="224" type="line"/>
      <point x="158" y="266"/>
      <point x="171" y="310"/>
      <point x="181" y="349" type="curve" smooth="yes"/>
      <point x="206" y="447"/>
      <point x="225" y="521"/>
      <point x="243" y="582" type="curve"/>
      <point x="245" y="515"/>
      <point x="248" y="428"/>
      <point x="247" y="342" type="curve" smooth="yes"/>
    </contour>
  </outline>
</glyph>
<glyph name="Eth" format="2">
  <advance width="385"/>
  <unicode hex="00D0"/>
  <outline>
    <contour>
      <point x="0" y="304" type="line"/>
      <point x="8" y="304"/>
      <point x="36" y="305"/>
      <point x="86" y="305" type="curve"/>
      <point x="117" y="305"/>
      <point x="181" y="304"/>
      <point x="221" y="304" type="curve"/>
      <point x="219" y="388" type="line"/>
      <point x="184" y="387"/>
      <point x="125" y="385"/>
      <point x="91" y="386" type="curve"/>
      <point x="50" y="387"/>
      <point x="17" y="388"/>
      <point x="4" y="388" type="curve"/>
    </contour>
    <component base="D"/>
  </outline>
</glyph>
<glyph name="Thorn" format="2">
  <advance width="358"/>
  <unicode hex="00DE"/>
  <outline>
    <contour>
      <point x="153" y="111" type="line"/>
      <point x="281" y="111"/>
      <point x="360" y="182"/>
      <point x="360" y="365" type="curve" smooth="yes"/>
      <point x="360" y="524"/>
      <point x="323" y="594"/>
      <point x="159" y="594" type="curve" smooth="yes"/>
      <point x="151" y="594"/>
      <point x="142" y="595"/>
      <point x="131" y="594" type="curve"/>
      <point x="131" y="497" type="line"/>
      <point x="150" y="501"/>
      <point x="167" y="504"/>
      <point x="199" y="504" type="curve" smooth="yes"/>
      <point x="232" y="504"/>
      <point x="251" y="487"/>
      <point x="251" y="362" type="curve" smooth="yes"/>
      <point x="251" y="209"/>
      <point x="234" y="188"/>
      <point x="149" y="188" type="curve"/>
    </contour>
    <contour>
      <point x="54" y="-6" type="curve"/>
      <point x="164" y="5" type="line"/>
      <point x="163" y="103"/>
      <point x="161" y="265"/>
      <point x="161" y="350" type="curve"/>
      <point x="161" y="448"/>
      <point x="163" y="618"/>
      <point x="163" y="702" type="curve"/>
      <point x="50" y="693" type="line"/>
      <point x="53" y="620"/>
      <point x="58" y="477"/>
      <point x="58" y="352" type="curve"/>
      <point x="58" y="228"/>
      <point x="56" y="75"/>
    </contour>
  </outline>
</glyph>
<glyph name="germandbls" format="2">
  <advance width="424"/>
  <unicode hex="00DF"/>
  <outline>
    <contour>
      <point x="31" y="-2" type="curve"/>
      <point x="150" y="1" type="line"/>
      <point x="147" y="36"/>
      <point x="143" y="123"/>
      <point x="143" y="271" type="curve" smooth="yes"/>
      <point x="143" y="373"/>
      <point x="142" y="507"/>
      <point x="145" y="545" type="curve" smooth="yes"/>
      <point x="149" y="589"/>
      <point x="169" y="614"/>
      <point x="210" y="614" type="curve" smooth="yes"/>
      <point x="253" y="614"/>
      <point x="267" y="589"/>
      <point x="267" y="553" type="curve" smooth="yes"/>
      <point x="267" y="497"/>
      <point x="186" y="448"/>
      <point x="186" y="370" type="curve" smooth="yes"/>
      <point x="186" y="309"/>
      <point x="210" y="294"/>
      <point x="257" y="244" type="curve" smooth="yes"/>
      <point x="288" y="211"/>
      <point x="312" y="203"/>
      <point x="312" y="148" type="curve" smooth="yes"/>
      <point x="312" y="104"/>
      <point x="280" y="80"/>
      <point x="202" y="85" type="curve"/>
      <point x="194" y="-1" type="line"/>
      <point x="339" y="-8"/>
      <point x="418" y="49"/>
      <point x="418" y="156" type="curve" smooth="yes"/>
      <point x="418" y="222"/>
      <point x="384" y="259"/>
      <point x="352" y="289" type="curve" smooth="yes"/>
      <point x="322" y="318"/>
      <point x="291" y="339"/>
      <point x="291" y="373" type="curve" smooth="yes"/>
      <point x="291" y="433"/>
      <point x="371" y="462"/>
      <point x="371" y="566" type="curve" smooth="yes"/>
      <point x="371" y="652"/>
      <point x="306" y="701"/>
      <point x="218" y="701" type="curve" smooth="yes"/>
      <point x="109" y="701"/>
      <point x="50" y="642"/>
      <point x="42" y="540" type="curve" smooth="yes"/>
      <point x="40" y="514"/>
      <point x="40" y="329"/>
      <point x="40" y="270" type="curve" smooth="yes"/>
      <point x="40" y="119"/>
      <point x="33" y="22"/>
    </contour>
  </outline>
</glyph>
<glyph name="ae" format="2">
  <advance width="489"/>
  <unicode hex="00E6"/>
  <anchor x="250" y="515" name="top"/>
  <outline>
    <contour>
      <point x="132" y="-9" type="curve" smooth="yes"/>
      <point x="178" y="-9"/>
      <point x="209" y="17"/>
      <point x="229" y="57" type="curve"/>
      <point x="245" y="17"/>
      <point x="275" y="-9"/>
      <point x="330" y="-9" type="curve" smooth="yes"/>
      <point x="432" y="-9"/>
      <point x="456" y="62"/>
      <point x="456" y="141" type="curve" smooth="yes"/>
      <point x="456" y="150"/>
      <point x="456" y="159"/>
      <point x="455" y="168" type="curve"/>
      <point x="351" y="168" type="line"/>
      <point x="352" y="156"/>
      <point x="353" y="144"/>
      <point x="353" y="132" type="curve" smooth="yes"/>
      <point x="353" y="100"/>
      <point x="346" y="71"/>
      <point x="320" y="71" type="curve" smooth="yes"/>
      <point x="298" y="71"/>
      <point x="291" y="88"/>
      <point x="289" y="126" type="curve" smooth="yes"/>
      <point x="287" y="151"/>
      <point x="289" y="185"/>
      <point x="290" y="229" type="curve"/>
      <point x="347" y="231"/>
      <point x="416" y="233"/>
      <point x="453" y="233" type="curve"/>
      <point x="457" y="277"/>
      <point x="459" y="317"/>
      <point x="459" y="352" type="curve" smooth="yes"/>
      <point x="459" y="461"/>
      <point x="430" y="527"/>
      <point x="349" y="527" type="curve" smooth="yes"/>
      <point x="293" y="527"/>
      <point x="268" y="500"/>
      <point x="247" y="470" type="curve"/>
      <point x="230" y="503"/>
      <point x="204" y="525"/>
      <point x="151" y="525" type="curve" smooth="yes"/>
      <point x="64" y="525"/>
      <point x="27" y="468"/>
      <point x="27" y="376" type="curve" smooth="yes"/>
      <point x="27" y="361"/>
      <point x="28" y="345"/>
      <point x="30" y="328" type="curve"/>
      <point x="128" y="331" type="line"/>
      <point x="126" y="354"/>
      <point x="124" y="374"/>
      <point x="124" y="391" type="curve" smooth="yes"/>
      <point x="124" y="419"/>
      <point x="129" y="437"/>
      <point x="152" y="437" type="curve" smooth="yes"/>
      <point x="175" y="437"/>
      <point x="182" y="418"/>
      <point x="182" y="381" type="curve" smooth="yes"/>
      <point x="182" y="330"/>
      <point x="140" y="301"/>
      <point x="106" y="269" type="curve" smooth="yes"/>
      <point x="66" y="232"/>
      <point x="23" y="190"/>
      <point x="23" y="104" type="curve" smooth="yes"/>
      <point x="23" y="38"/>
      <point x="52" y="-9"/>
    </contour>
    <contour>
      <point x="153" y="81" type="curve" smooth="yes"/>
      <point x="125" y="81"/>
      <point x="121" y="102"/>
      <point x="121" y="127" type="curve" smooth="yes"/>
      <point x="121" y="167"/>
      <point x="139" y="185"/>
      <point x="160" y="213" type="curve" smooth="yes"/>
      <point x="169" y="225"/>
      <point x="175" y="233"/>
      <point x="183" y="244" type="curve"/>
      <point x="183" y="232"/>
      <point x="183" y="219"/>
      <point x="183" y="207" type="curve" smooth="yes"/>
      <point x="183" y="101"/>
      <point x="172" y="81"/>
    </contour>
    <contour>
      <point x="290" y="309" type="line"/>
      <point x="290" y="346"/>
      <point x="290" y="378"/>
      <point x="293" y="402" type="curve" smooth="yes"/>
      <point x="297" y="432"/>
      <point x="306" y="449"/>
      <point x="325" y="449" type="curve" smooth="yes"/>
      <point x="351" y="449"/>
      <point x="356" y="421"/>
      <point x="356" y="375" type="curve" smooth="yes"/>
      <point x="356" y="357"/>
      <point x="355" y="334"/>
      <point x="354" y="309" type="curve"/>
    </contour>
  </outline>
</glyph>
<glyph name="eth" format="2">
  <advance width="370"/>
  <unicode hex="00F0"/>
  <outline>
    <contour>
      <point x="175" y="-10" type="curve" smooth="yes"/>
      <point x="300" y="-10"/>
      <point x="337" y="75"/>
      <point x="337" y="322" type="curve" smooth="yes"/>
      <point x="337" y="626"/>
      <point x="223" y="680"/>
      <point x="131" y="717" type="curve"/>
      <point x="80" y="632" type="line"/>
      <point x="176" y="606"/>
      <point x="230" y="516"/>
      <point x="230" y="371" type="curve" smooth="yes"/>
      <point x="230" y="266"/>
      <point x="230" y="244"/>
      <point x="230" y="231" type="curve" smooth="yes"/>
      <point x="230" y="117"/>
      <point x="224" y="68"/>
      <point x="179" y="68" type="curve" smooth="yes"/>
      <point x="141" y="68"/>
      <point x="133" y="106"/>
      <point x="133" y="212" type="curve" smooth="yes"/>
      <point x="133" y="311"/>
      <point x="147" y="346"/>
      <point x="187" y="346" type="curve" smooth="yes"/>
      <point x="232" y="346"/>
      <point x="230" y="289"/>
      <point x="230" y="231" type="curve"/>
      <point x="293" y="346" type="line"/>
      <point x="265" y="400"/>
      <point x="233" y="427"/>
      <point x="178" y="427" type="curve" smooth="yes"/>
      <point x="83" y="427"/>
      <point x="28" y="361"/>
      <point x="28" y="204" type="curve" smooth="yes"/>
      <point x="28" y="62"/>
      <point x="70" y="-10"/>
    </contour>
    <contour>
      <point x="158" y="458" type="line"/>
      <point x="188" y="476"/>
      <point x="201" y="483"/>
      <point x="256" y="516" type="curve" smooth="yes"/>
      <point x="296" y="540"/>
      <point x="323" y="556"/>
      <point x="362" y="575" type="curve"/>
      <point x="310" y="662" type="line"/>
      <point x="279" y="641"/>
      <point x="247" y="622"/>
      <point x="207" y="599" type="curve" smooth="yes"/>
      <point x="162" y="573"/>
      <point x="142" y="564"/>
      <point x="105" y="544" type="curve"/>
    </contour>
  </outline>
</glyph>
<glyph name="divide" format="2">
  <advance width="394"/>
  <unicode hex="00F7"/>
  <outline>
    <contour>
      <point x="52" y="238" type="line"/>
      <point x="85" y="239"/>
      <point x="149" y="239"/>
      <point x="193" y="239" type="curve" smooth="yes"/>
      <point x="238" y="239"/>
      <point x="304" y="239"/>
      <point x="339" y="238" type="curve"/>
      <point x="335" y="342" type="line"/>
      <point x="307" y="340"/>
      <point x="249" y="339"/>
      <point x="209" y="339" type="curve" smooth="yes"/>
      <point x="164" y="339"/>
      <point x="96" y="340"/>
      <point x="56" y="342" type="curve"/>
    </contour>
    <contour>
      <point x="201" y="63" type="curve" smooth="yes"/>
      <point x="242" y="63"/>
      <point x="270" y="95"/>
      <point x="270" y="133" type="curve" smooth="yes"/>
      <point x="270" y="175"/>
      <point x="235" y="207"/>
      <point x="192" y="207" type="curve" smooth="yes"/>
      <point x="152" y="207"/>
      <point x="123" y="178"/>
      <point x="123" y="139" type="curve" smooth="yes"/>
      <point x="123" y="97"/>
      <point x="158" y="63"/>
    </contour>
    <contour>
      <point x="201" y="368" type="curve" smooth="yes"/>
      <point x="240" y="368"/>
      <point x="270" y="400"/>
      <point x="270" y="438" type="curve" smooth="yes"/>
      <point x="270" y="480"/>
      <point x="235" y="512"/>
      <point x="192" y="512" type="curve" smooth="yes"/>
      <point x="152" y="512"/>
      <point x="123" y="483"/>
      <point x="123" y="444" type="curve" smooth="yes"/>
      <point x="123" y="402"/>
      <point x="158" y="368"/>
    </contour>
  </outline>
</glyph>
<glyph name="oslash" format="2">
  <advance width="333"/>
  <unicode hex="00F8"/>
  <anchor x="167" y="515" name="top"/>
  <outline>
    <contour>
      <point x="161" y="-10" type="curve" smooth="yes"/>
      <point x="235" y="-10"/>
      <point x="272" y="32"/>
      <point x="290" y="94" type="curve" smooth="yes"/>
      <point x="303" y="141"/>
      <point x="306" y="201"/>
      <point x="306" y="263" type="curve" smooth="yes"/>
      <point x="306" y="323"/>
      <point x="306" y="378"/>
      <point x="297" y="423" type="curve" smooth="yes"/>
      <point x="285" y="486"/>
      <point x="253" y="527"/>
      <point x="175" y="527" type="curve" smooth="yes"/>
      <point x="100" y="527"/>
      <point x="63" y="487"/>
      <point x="44" y="427" type="curve" smooth="yes"/>
      <point x="29" y="381"/>
      <point x="26" y="324"/>
      <point x="26" y="264" type="curve" smooth="yes"/>
      <point x="26" y="206"/>
      <point x="26" y="153"/>
      <point x="33" y="110" type="curve" smooth="yes"/>
      <point x="44" y="36"/>
      <point x="76" y="-10"/>
    </contour>
    <contour>
      <point x="165" y="71" type="curve" smooth="yes"/>
      <point x="144" y="71"/>
      <point x="136" y="86"/>
      <point x="134" y="142" type="curve" smooth="yes"/>
      <point x="133" y="167"/>
      <point x="133" y="200"/>
      <point x="133" y="243" type="curve" smooth="yes"/>
      <point x="133" y="310"/>
      <point x="133" y="356"/>
      <point x="136" y="387" type="curve" smooth="yes"/>
      <point x="139" y="436"/>
      <point x="148" y="449"/>
      <point x="168" y="449" type="curve" smooth="yes"/>
      <point x="188" y="449"/>
      <point x="195" y="435"/>
      <point x="198" y="382" type="curve" smooth="yes"/>
      <point x="199" y="355"/>
      <point x="199" y="318"/>
      <point x="199" y="267" type="curve" smooth="yes"/>
      <point x="199" y="213"/>
      <point x="199" y="173"/>
      <point x="197" y="144" type="curve" smooth="yes"/>
      <point x="194" y="87"/>
      <point x="186" y="71"/>
    </contour>
    <contour>
      <point x="127" y="-60" type="line"/>
      <point x="146" y="21"/>
      <point x="179" y="156"/>
      <point x="199" y="230" type="curve" smooth="yes"/>
      <point x="219" y="304"/>
      <point x="272" y="465"/>
      <point x="306" y="565" type="curve"/>
      <point x="217" y="580" type="line"/>
      <point x="197" y="501"/>
      <point x="160" y="356"/>
      <point x="129" y="247" type="curve" smooth="yes"/>
      <point x="98" y="138"/>
      <point x="59" y="16"/>
      <point x="38" y="-46" type="curve"/>
    </contour>
  </outline>
</glyph>
<glyph name="thorn" format="2">
  <advance width="358"/>
  <unicode hex="00FE"/>
  <outline>
    <contour>
      <point x="44" y="-166" type="curve"/>
      <point x="164" y="-160" type="line"/>
      <point x="160" y="12" type="line"/>
      <point x="170" y="1"/>
      <point x="183" y="-8"/>
      <point x="217" y="-8" type="curve" smooth="yes"/>
      <point x="258" y="-8"/>
      <point x="285" y="15"/>
      <point x="302" y="52" type="curve" smooth="yes"/>
      <point x="326" y="102"/>
      <point x="331" y="178"/>
      <point x="331" y="251" type="curve" smooth="yes"/>
      <point x="331" y="304"/>
      <point x="332" y="356"/>
      <point x="328" y="401" type="curve" smooth="yes"/>
      <point x="320" y="473"/>
      <point x="299" y="525"/>
      <point x="238" y="525" type="curve" smooth="yes"/>
      <point x="206" y="525"/>
      <point x="176" y="512"/>
      <point x="158" y="475" type="curve"/>
      <point x="158" y="547"/>
      <point x="159" y="618"/>
      <point x="159" y="690" type="curve"/>
      <point x="50" y="685" type="line"/>
      <point x="50" y="613"/>
      <point x="53" y="308"/>
      <point x="53" y="184" type="curve" smooth="yes"/>
      <point x="53" y="95"/>
      <point x="48" y="-68"/>
    </contour>
    <contour>
      <point x="157" y="185" type="curve" smooth="yes"/>
      <point x="157" y="326" type="line" smooth="yes"/>
      <point x="157" y="391"/>
      <point x="166" y="431"/>
      <point x="192" y="431" type="curve" smooth="yes"/>
      <point x="212" y="431"/>
      <point x="219" y="413"/>
      <point x="221" y="369" type="curve" smooth="yes"/>
      <point x="223" y="339"/>
      <point x="222" y="298"/>
      <point x="222" y="242" type="curve" smooth="yes"/>
      <point x="222" y="195"/>
      <point x="223" y="148"/>
      <point x="218" y="114" type="curve" smooth="yes"/>
      <point x="213" y="85"/>
      <point x="205" y="65"/>
      <point x="188" y="65" type="curve" smooth="yes"/>
      <point x="153" y="65"/>
      <point x="157" y="125"/>
    </contour>
  </outline>
</glyph>
<glyph name="Hbar" format="2">
  <advance width="412"/>
  <unicode hex="0126"/>
  <anchor x="205" y="459" name="_center"/>
  <outline>
    <contour>
      <point x="-1" y="413" type="line"/>
      <point x="-1" y="413"/>
      <point x="47" y="415"/>
      <point x="203" y="415" type="curve"/>
      <point x="246" y="415"/>
      <point x="414" y="414"/>
      <point x="414" y="414" type="curve"/>
      <point x="415" y="496" type="line"/>
      <point x="415" y="496"/>
      <point x="255" y="493"/>
      <point x="208" y="494" type="curve"/>
      <point x="140" y="495"/>
      <point x="0" y="496"/>
      <point x="0" y="496" type="curve"/>
    </contour>
    <component base="H"/>
  </outline>
</glyph>
<glyph name="idotless" format="2">
  <advance width="178"/>
  <unicode hex="0131"/>
  <anchor x="87" y="0" name="bottom"/>
  <anchor x="86" y="515" name="top"/>
  <outline>
    <contour>
      <point x="147" y="0" type="line"/>
      <point x="143" y="91"/>
      <point x="141" y="172"/>
      <point x="141" y="265" type="curve" smooth="yes"/>
      <point x="141" y="384"/>
      <point x="143" y="473"/>
      <point x="145" y="514" type="curve"/>
      <point x="29" y="515" type="line"/>
      <point x="31" y="467"/>
      <point x="37" y="385"/>
      <point x="37" y="266" type="curve" smooth="yes"/>
      <point x="37" y="163"/>
      <point x="34" y="81"/>
      <point x="29" y="2" type="curve"/>
    </contour>
  </outline>
</glyph>
<glyph name="kgreenlandic" format="2">
  <advance width="332"/>
  <unicode hex="0138"/>
  <outline>
    <contour>
      <point x="234" y="0" type="curve"/>
      <point x="356" y="3" type="line"/>
      <point x="305" y="103"/>
      <point x="264" y="189"/>
      <point x="224" y="278" type="curve"/>
      <point x="264" y="374"/>
      <point x="292" y="438"/>
      <point x="327" y="519" type="curve"/>
      <point x="213" y="521" type="line"/>
      <point x="188" y="445"/>
      <point x="165" y="384"/>
      <point x="118" y="269" type="curve"/>
      <point x="160" y="177"/>
      <point x="199" y="88"/>
    </contour>
    <contour>
      <point x="31" y="1" type="curve"/>
      <point x="140" y="1" type="line"/>
      <point x="139" y="52"/>
      <point x="138" y="159"/>
      <point x="138" y="264" type="curve"/>
      <point x="138" y="368"/>
      <point x="138" y="469"/>
      <point x="138" y="516" type="curve"/>
      <point x="36" y="519" type="line"/>
      <point x="36" y="473"/>
      <point x="37" y="373"/>
      <point x="37" y="266" type="curve"/>
      <point x="37" y="159"/>
      <point x="34" y="52"/>
    </contour>
  </outline>
</glyph>
<glyph name="lcaron" format="2">
  <advance width="244"/>
  <unicode hex="013E"/>
  <outline>
    <contour>
      <point x="32" y="0" type="curve"/>
      <point x="141" y="11" type="line"/>
      <point x="141" y="11"/>
      <point x="139" y="121"/>
      <point x="139" y="264" type="curve" smooth="yes"/>
      <point x="139" y="396"/>
      <point x="141" y="547"/>
      <point x="142" y="691" type="curve"/>
      <point x="35" y="692" type="line"/>
      <point x="37" y="599"/>
      <point x="40" y="403"/>
      <point x="40" y="266" type="curve" smooth="yes"/>
      <point x="40" y="117"/>
      <point x="31" y="-18"/>
    </contour>
    <contour>
      <point x="212" y="431" type="line"/>
      <point x="255" y="475"/>
      <point x="263" y="538"/>
      <point x="263" y="599" type="curve" smooth="yes"/>
      <point x="263" y="643"/>
      <point x="263" y="654"/>
      <point x="263" y="698" type="curve"/>
      <point x="164" y="691" type="line"/>
      <point x="166" y="586" type="line"/>
      <point x="214" y="583" type="line"/>
      <point x="214" y="548"/>
      <point x="209" y="500"/>
      <point x="175" y="461" type="curve"/>
    </contour>
  </outline>
</glyph>
<glyph name="ldot" format="2">
  <advance width="210"/>
  <unicode hex="0140"/>
  <outline>
    <contour>
      <point x="32" y="0" type="curve"/>
      <point x="141" y="11" type="line"/>
      <point x="141" y="11"/>
      <point x="139" y="121"/>
      <point x="139" y="264" type="curve" smooth="yes"/>
      <point x="139" y="396"/>
      <point x="141" y="547"/>
      <point x="142" y="691" type="curve"/>
      <point x="35" y="692" type="line"/>
      <point x="37" y="599"/>
      <point x="40" y="403"/>
      <point x="40" y="266" type="curve" smooth="yes"/>
      <point x="40" y="117"/>
      <point x="31" y="-18"/>
    </contour>
    <contour>
      <point x="238" y="303" type="line"/>
      <point x="236" y="416" type="line"/>
      <point x="155" y="410" type="line"/>
      <point x="159" y="305" type="line"/>
    </contour>
  </outline>
</glyph>
<glyph name="Eng" format="2">
  <advance width="421"/>
  <unicode hex="014A"/>
  <outline>
    <contour>
      <point x="212" y="-168" type="line"/>
      <point x="315" y="-180"/>
      <point x="366" y="-130"/>
      <point x="366" y="0" type="curve" smooth="yes"/>
      <point x="366" y="128"/>
      <point x="365" y="255"/>
      <point x="365" y="383" type="curve" smooth="yes"/>
      <point x="366" y="508"/>
      <point x="369" y="646"/>
      <point x="371" y="715" type="curve"/>
      <point x="265" y="715" type="line"/>
      <point x="268" y="621"/>
      <point x="271" y="466"/>
      <point x="271" y="381" type="curve" smooth="yes"/>
      <point x="271" y="355"/>
      <point x="271" y="288"/>
      <point x="272" y="253" type="curve"/>
      <point x="264" y="296"/>
      <point x="245" y="368"/>
      <point x="237" y="409" type="curve" smooth="yes"/>
      <point x="218" y="509"/>
      <point x="198" y="602"/>
      <point x="180" y="704" type="curve"/>
      <point x="50" y="704" type="line"/>
      <point x="53" y="628"/>
      <point x="56" y="481"/>
      <point x="56" y="356" type="curve" smooth="yes"/>
      <point x="56" y="231"/>
      <point x="54" y="80"/>
      <point x="53" y="1" type="curve"/>
      <point x="156" y="0" type="line"/>
      <point x="155" y="68"/>
      <point x="153" y="189"/>
      <point x="153" y="274" type="curve" smooth="yes"/>
      <point x="153" y="320"/>
      <point x="153" y="367"/>
      <point x="153" y="413" type="curve"/>
      <point x="158" y="390"/>
      <point x="174" y="328"/>
      <point x="179" y="305" type="curve" smooth="yes"/>
      <point x="197" y="220"/>
      <point x="239" y="88"/>
      <point x="264" y="-14" type="curve"/>
      <point x="258" y="-58"/>
      <point x="248" y="-78"/>
      <point x="195" y="-81" type="curve"/>
    </contour>
  </outline>
</glyph>
<glyph name="eng" format="2">
  <advance width="354"/>
  <unicode hex="014B"/>
  <outline>
    <contour>
      <point x="150" y="-169" type="line"/>
      <point x="252" y="-180"/>
      <point x="317" y="-131"/>
      <point x="317" y="0" type="curve" smooth="yes"/>
      <point x="317" y="78"/>
      <point x="315" y="88"/>
      <point x="315" y="231" type="curve" smooth="yes"/>
      <point x="315" y="407" type="line" smooth="yes"/>
      <point x="315" y="490"/>
      <point x="281" y="523"/>
      <point x="231" y="523" type="curve" smooth="yes"/>
      <point x="204" y="523"/>
      <point x="169" y="519"/>
      <point x="140" y="477" type="curve"/>
      <point x="140" y="492"/>
      <point x="139" y="507"/>
      <point x="139" y="522" type="curve"/>
      <point x="41" y="515" type="line"/>
      <point x="42" y="465"/>
      <point x="43" y="375"/>
      <point x="43" y="266" type="curve" smooth="yes"/>
      <point x="43" y="159"/>
      <point x="41" y="76"/>
      <point x="37" y="1" type="curve"/>
      <point x="151" y="1" type="line"/>
      <point x="150" y="82"/>
      <point x="147" y="181"/>
      <point x="147" y="276" type="curve" smooth="yes"/>
      <point x="147" y="376"/>
      <point x="144" y="437"/>
      <point x="183" y="437" type="curve" smooth="yes"/>
      <point x="210" y="437"/>
      <point x="211" y="410"/>
      <point x="211" y="387" type="curve" smooth="yes"/>
      <point x="211" y="230" type="line" smooth="yes"/>
      <point x="213" y="89"/>
      <point x="212" y="7"/>
      <point x="211" y="-17" type="curve" smooth="yes"/>
      <point x="209" y="-57"/>
      <point x="212" y="-89"/>
      <point x="147" y="-89" type="curve"/>
    </contour>
  </outline>
</glyph>
